<svg width="156" height="156" viewBox="0 0 156 156" fill="none" xmlns="http://www.w3.org/2000/svg">
<g filter="url(#filter0_d_0_177)">
<circle cx="78" cy="78" r="36" fill="white"/>
<circle cx="78" cy="78" r="35.5" stroke="#FFA32B" stroke-opacity="0.2"/>
</g>
<path fill-rule="evenodd" clip-rule="evenodd" d="M85.89 92.1373H69.9631C69.7606 92.1373 69.5733 92.0462 69.4417 91.8892C69.3151 91.7323 69.2645 91.5247 69.2999 91.3273C69.4822 90.411 69.5885 89.5301 69.6391 88.6897H74.3068C75.0561 88.6897 75.6585 88.0872 75.6585 87.338C75.6585 86.5938 75.0561 85.9863 74.3068 85.9863H69.6239C69.2544 81.0452 67.9735 82.6855 68.662 78.5088C68.7734 77.8507 68.8595 77.1369 68.8342 76.4737C68.8241 76.2864 68.6671 76.1395 68.4798 76.1446C68.2925 76.1547 68.1457 76.3117 68.1558 76.499C68.1811 77.2229 68.1052 77.9773 67.9989 78.6911C67.8976 79.3796 67.7609 80.0732 67.604 80.7566H64.3386C63.964 80.7566 63.6653 80.4529 63.6653 80.0782V76.3977V76.3927C63.6906 74.3373 64.4297 72.4894 65.8219 70.9302L70.6365 73.7095C70.844 73.831 71.0718 73.8918 71.3098 73.8918C71.7958 73.8918 72.2413 73.6386 72.4843 73.2184C72.8539 72.5704 72.6362 71.7402 71.9882 71.3706L68.009 69.0722C68.0799 69.0266 68.1558 68.976 68.2317 68.9304C70.1504 67.7154 72.0489 67.1889 72.5197 67.0674C73.0766 66.7029 73.4664 65.7866 73.6183 64.4652C73.6588 64.121 73.9474 63.8628 74.2916 63.8628H81.5615C81.9058 63.8628 82.1943 64.121 82.2348 64.4652C82.3867 65.7866 82.7765 66.7029 83.3385 67.0674C83.8093 67.1889 85.7027 67.7154 87.6265 68.9304C87.7227 68.9912 87.8188 69.0519 87.915 69.1177L84.0118 71.3706C83.3688 71.7452 83.1461 72.5704 83.5157 73.2184C83.7587 73.6386 84.2042 73.8918 84.6902 73.8918C84.9281 73.8918 85.161 73.831 85.3635 73.7095L90.0818 70.9858C91.4487 72.535 92.1676 74.3626 92.1929 76.3927V76.3977V80.0782C92.1929 80.4529 91.8892 80.7566 91.5145 80.7566H88.2542C88.0973 80.0732 87.9606 79.3796 87.8593 78.6911C87.753 77.9773 87.672 77.2229 87.7024 76.499C87.7075 76.3117 87.5607 76.1547 87.3733 76.1446C87.186 76.1395 87.0291 76.2864 87.024 76.4737C86.9987 77.1419 87.0848 77.8608 87.1961 78.524C87.7885 82.0931 86.5228 82.1033 86.2343 85.9863H81.5463C80.8021 85.9863 80.1946 86.5938 80.1946 87.338C80.1946 88.0872 80.8021 88.6897 81.5463 88.6897H86.214C86.2646 89.5149 86.3709 90.3856 86.5481 91.2868C86.5633 91.3425 86.5684 91.3982 86.5684 91.4589C86.5684 91.8335 86.2646 92.1373 85.89 92.1373Z" fill="#142653"/>
<path fill-rule="evenodd" clip-rule="evenodd" d="M91.388 90.1274C89.849 90.1274 88.5985 88.877 88.5985 87.3379C88.5985 85.7989 89.849 84.5485 91.388 84.5485C92.927 84.5485 94.1775 85.7989 94.1775 87.3379C94.1775 88.877 92.927 90.1274 91.388 90.1274Z" fill="#142653"/>
<path fill-rule="evenodd" clip-rule="evenodd" d="M64.4702 90.1274C62.9312 90.1274 61.6807 88.877 61.6807 87.3379C61.6807 85.7989 62.9312 84.5485 64.4702 84.5485C66.0092 84.5485 67.2597 85.7989 67.2597 87.3379C67.2597 88.877 66.0092 90.1274 64.4702 90.1274Z" fill="#142653"/>
<path fill-rule="evenodd" clip-rule="evenodd" d="M93.2105 70.4137C92.2182 70.4137 91.2918 69.8771 90.7957 69.0165C90.421 68.3685 90.3198 67.6192 90.5172 66.9003C90.7096 66.1814 91.1703 65.579 91.8132 65.2043C92.2385 64.9613 92.7194 64.8297 93.2054 64.8297C94.2028 64.8297 95.1292 65.3663 95.6254 66.227C96.3949 67.5584 95.9392 69.2696 94.6027 70.0391C94.1825 70.2821 93.7016 70.4137 93.2105 70.4137Z" fill="#142653"/>
<path fill-rule="evenodd" clip-rule="evenodd" d="M89.2718 88.0164H81.5463C81.1717 88.0164 80.8679 87.7127 80.8679 87.3381C80.8679 86.9634 81.1717 86.6597 81.5463 86.6597H89.2718C89.6464 86.6597 89.9502 86.9634 89.9502 87.3381C89.9502 87.7127 89.6464 88.0164 89.2718 88.0164Z" fill="#142653"/>
<path fill-rule="evenodd" clip-rule="evenodd" d="M74.3068 88.0164H66.5813C66.2067 88.0164 65.908 87.7127 65.908 87.3381C65.908 86.9634 66.2067 86.6597 66.5813 86.6597H74.3068C74.6815 86.6597 74.9852 86.9634 74.9852 87.3381C74.9852 87.7127 74.6815 88.0164 74.3068 88.0164Z" fill="#142653"/>
<path fill-rule="evenodd" clip-rule="evenodd" d="M84.6902 73.2185C84.4573 73.2185 84.2295 73.097 84.1029 72.8793C83.9156 72.5553 84.027 72.1402 84.351 71.9528L91.0437 68.0901C91.3627 67.9028 91.7778 68.0142 91.9651 68.3382C92.1524 68.6622 92.041 69.0773 91.717 69.2646L85.0243 73.1274C84.918 73.1881 84.8016 73.2185 84.6902 73.2185Z" fill="#142653"/>
<path fill-rule="evenodd" clip-rule="evenodd" d="M71.3098 73.2185C71.1984 73.2185 71.082 73.1881 70.9757 73.1274L64.2829 69.2646C63.9589 69.0773 63.8475 68.6622 64.0349 68.3382C64.2222 68.0142 64.6373 67.9028 64.9613 68.0901L71.649 71.9528C71.973 72.1402 72.0844 72.5553 71.897 72.8793C71.7755 73.097 71.5477 73.2185 71.3098 73.2185Z" fill="#142653"/>
<path fill-rule="evenodd" clip-rule="evenodd" d="M62.7895 70.4137C62.3034 70.4137 61.8174 70.2821 61.3972 70.0391C60.0607 69.2696 59.6051 67.5584 60.3746 66.227C60.8707 65.3663 61.7972 64.8297 62.7945 64.8297C63.2805 64.8297 63.7615 64.9613 64.1867 65.2043C64.8297 65.579 65.2954 66.1764 65.4878 66.9003C65.6802 67.6192 65.5789 68.3685 65.2094 69.0165C64.7082 69.8771 63.7817 70.4137 62.7895 70.4137Z" fill="#142653"/>
<defs>
<filter id="filter0_d_0_177" x="0" y="0" width="156" height="156" filterUnits="userSpaceOnUse" color-interpolation-filters="sRGB">
<feFlood flood-opacity="0" result="BackgroundImageFix"/>
<feColorMatrix in="SourceAlpha" type="matrix" values="0 0 0 0 0 0 0 0 0 0 0 0 0 0 0 0 0 0 127 0" result="hardAlpha"/>
<feOffset/>
<feGaussianBlur stdDeviation="21"/>
<feComposite in2="hardAlpha" operator="out"/>
<feColorMatrix type="matrix" values="0 0 0 0 1 0 0 0 0 0.806525 0 0 0 0 0.554167 0 0 0 0.13 0"/>
<feBlend mode="normal" in2="BackgroundImageFix" result="effect1_dropShadow_0_177"/>
<feBlend mode="normal" in="SourceGraphic" in2="effect1_dropShadow_0_177" result="shape"/>
</filter>
</defs>
</svg>
