<svg width="156" height="156" viewBox="0 0 156 156" fill="none" xmlns="http://www.w3.org/2000/svg">
<g filter="url(#filter0_d_0_196)">
<circle cx="78" cy="78" r="36" fill="white"/>
<circle cx="78" cy="78" r="35.5" stroke="#FFA32B" stroke-opacity="0.2"/>
</g>
<g clip-path="url(#clip0_0_196)">
<path d="M65.9674 66.1622L63.6098 63.804H60V65.9133H62.7359L63.8173 66.9947C64.4353 66.6129 65.1173 66.3338 65.8331 66.1826C65.8331 66.1826 65.8802 66.1756 65.9674 66.1622Z" fill="#142653"/>
<path d="M96 65.9133V63.804H92.3902L90.0326 66.1622C90.1198 66.1756 90.1669 66.1826 90.1669 66.1826C90.8827 66.3338 91.5647 66.6129 92.1827 66.9947L93.2641 65.9133H96Z" fill="#142653"/>
<path d="M71.2405 74.217C71.8954 74.217 72.4263 73.6861 72.4263 73.0312C72.4263 72.3763 71.8954 71.8455 71.2405 71.8455C70.5856 71.8455 70.0548 72.3763 70.0548 73.0312C70.0548 73.6861 70.5856 74.217 71.2405 74.217Z" fill="#142653"/>
<path d="M82.5 89.0064C83.1549 89.0064 83.6858 88.4755 83.6858 87.8206C83.6858 87.1658 83.1549 86.6349 82.5 86.6349C81.8451 86.6349 81.3143 87.1658 81.3143 87.8206C81.3143 88.4755 81.8451 89.0064 82.5 89.0064Z" fill="#142653"/>
<path d="M87.6664 81.4017C87.332 81.4686 86.9855 81.5049 86.6299 81.5049L80.6916 81.5048C79.6374 81.5048 78.6832 81.1029 78 80.4457C77.3168 81.103 76.3626 81.5048 75.3084 81.5048L69.3701 81.5049C69.0145 81.5049 68.668 81.4686 68.3336 81.4017C68.3801 81.9476 68.474 82.5728 68.6551 83.1898C69.2885 85.3471 68.9237 90.5492 68.6827 91.9576C68.3493 93.907 68.6117 95.6631 68.6685 95.9998H72.4453V90.9417C71.1443 90.5008 70.2049 89.2688 70.2049 87.8207C70.2049 86.0037 71.6831 84.5256 73.5 84.5256C75.3169 84.5256 76.7951 86.0037 76.7951 87.8207C76.7951 89.2688 75.8558 90.5008 74.5547 90.9417V95.9998H81.4453V90.9417C80.1442 90.5008 79.2049 89.2688 79.2049 87.8207C79.2049 86.0037 80.6831 84.5256 82.5 84.5256C84.3169 84.5256 85.7951 86.0037 85.7951 87.8207C85.7951 89.2688 84.8557 90.5008 83.5547 90.9417V95.9998H87.3314C87.3875 95.6614 87.6481 93.8909 87.3173 91.9576C87.0764 90.5492 86.7116 85.347 87.345 83.1898C87.526 82.5727 87.6199 81.9476 87.6664 81.4017Z" fill="#142653"/>
<path d="M73.5 89.0064C74.1549 89.0064 74.6858 88.4755 74.6858 87.8206C74.6858 87.1658 74.1549 86.6349 73.5 86.6349C72.8451 86.6349 72.3143 87.1658 72.3143 87.8206C72.3143 88.4755 72.8451 89.0064 73.5 89.0064Z" fill="#142653"/>
<path d="M88.0547 73.031C88.0547 74.8479 86.5767 76.3266 84.7591 76.3266C82.9423 76.3266 81.4643 74.8479 81.4643 73.031C81.4643 71.2141 82.9423 69.7362 84.7591 69.7362C85.2563 69.7362 85.7281 69.8466 86.1506 70.0441L90.0326 66.1622C89.1495 66.0223 84.1713 65.2151 82.8452 64.5L82.0423 60H73.9577L73.1548 64.5C71.8287 65.2151 66.8534 66.0216 65.9681 66.1622L69.8494 70.0441C70.272 69.8466 70.7438 69.7362 71.2409 69.7362C73.0577 69.7362 74.5357 71.2141 74.5357 73.031C74.5357 74.8479 73.0577 76.3266 71.2409 76.3266C69.4233 76.3266 67.9453 74.8479 67.9453 73.031C67.9453 72.4791 68.0817 71.958 68.3236 71.501L63.8173 66.9947C62.558 67.7745 61.5652 68.9845 61.0905 70.4231C60.3804 72.5473 60.3797 74.8451 61.0884 76.9699C61.8795 79.1644 61.5701 81.6127 61.0884 83.9562C60.007 89.2043 61.4934 96 61.4934 96H66.5363C66.4315 95.2076 66.2803 93.4898 66.6038 91.602C66.859 90.1106 67.1093 85.4123 66.6312 83.7839C66.2536 82.4979 66.1812 81.2189 66.1826 80.4047C65.2615 79.6643 64.6392 78.6033 64.5127 77.3869L64.1414 73.8094L66.2395 73.5914L66.6108 77.1689C66.7423 78.438 67.9284 79.3957 69.3698 79.3957H75.3084C76.1564 79.3957 76.8778 78.8241 76.9502 78.0956H79.0498C79.1222 78.8241 79.8436 79.3957 80.6916 79.3957H86.6302C88.0716 79.3957 89.2577 78.438 89.3892 77.1689L89.7605 73.5914L91.8586 73.8094L91.4873 77.3869C91.3608 78.6033 90.7385 79.6643 89.8174 80.4047C89.8188 81.2189 89.7464 82.4979 89.3688 83.7839C88.8907 85.4123 89.141 90.1106 89.3963 91.602C89.7197 93.4898 89.5685 95.2076 89.4638 96H94.5066C94.5101 95.9782 95.9958 89.2542 94.9116 83.9562C94.4299 81.6127 94.1205 79.1644 94.9116 76.9699C95.6203 74.8451 95.6196 72.5473 94.9095 70.4231C94.4348 68.9845 93.442 67.7745 92.1827 66.9947L87.6764 71.501C87.9183 71.958 88.0547 72.4791 88.0547 73.031Z" fill="#142653"/>
<path d="M84.7595 74.217C85.4144 74.217 85.9452 73.6861 85.9452 73.0312C85.9452 72.3763 85.4144 71.8455 84.7595 71.8455C84.1046 71.8455 83.5737 72.3763 83.5737 73.0312C83.5737 73.6861 84.1046 74.217 84.7595 74.217Z" fill="#142653"/>
</g>
<defs>
<filter id="filter0_d_0_196" x="0" y="0" width="156" height="156" filterUnits="userSpaceOnUse" color-interpolation-filters="sRGB">
<feFlood flood-opacity="0" result="BackgroundImageFix"/>
<feColorMatrix in="SourceAlpha" type="matrix" values="0 0 0 0 0 0 0 0 0 0 0 0 0 0 0 0 0 0 127 0" result="hardAlpha"/>
<feOffset/>
<feGaussianBlur stdDeviation="21"/>
<feComposite in2="hardAlpha" operator="out"/>
<feColorMatrix type="matrix" values="0 0 0 0 1 0 0 0 0 0.806525 0 0 0 0 0.554167 0 0 0 0.13 0"/>
<feBlend mode="normal" in2="BackgroundImageFix" result="effect1_dropShadow_0_196"/>
<feBlend mode="normal" in="SourceGraphic" in2="effect1_dropShadow_0_196" result="shape"/>
</filter>
<clipPath id="clip0_0_196">
<rect width="36" height="36" fill="white" transform="translate(60 60)"/>
</clipPath>
</defs>
</svg>
