<svg width="156" height="156" viewBox="0 0 156 156" fill="none" xmlns="http://www.w3.org/2000/svg">
<g filter="url(#filter0_d_0_213)">
<circle cx="78" cy="78" r="36" fill="white"/>
<circle cx="78" cy="78" r="35.5" stroke="#FFA32B" stroke-opacity="0.2"/>
</g>
<path d="M83.0625 66.7646V66.0306L81.7699 65.5997L81.6754 65.3494C81.6484 65.2779 81.6203 65.2076 81.5893 65.1384L81.4802 64.8949L82.0883 63.6788L81.0707 62.6612L79.8546 63.2692L79.611 63.1601C79.5407 63.1286 79.4698 63.1011 79.3978 63.0729L79.1497 62.9779L78.7194 61.6875H77.28L76.8497 62.9779L76.6016 63.0729C76.5296 63.1011 76.4582 63.1292 76.3884 63.1601L76.1449 63.2692L74.9288 62.6612L73.9112 63.6788L74.5193 64.8949L74.4101 65.1384C74.3792 65.2076 74.3511 65.2779 74.3241 65.3494L74.2296 65.5997L72.9375 66.0306V66.7646C73.6164 67.2787 74.0625 68.0854 74.0625 69C74.0625 69.2914 74.0051 69.5676 73.9224 69.8319L74.9288 70.8383L76.1449 70.2302L76.3884 70.3393C76.4588 70.3708 76.5296 70.3984 76.6016 70.4265L76.8497 70.5216L77.2806 71.8125H78.72L79.1503 70.5221L79.3984 70.4271C79.4704 70.3989 79.5418 70.3708 79.6116 70.3399L79.8551 70.2308L81.0712 70.8388L82.0776 69.8325C81.9949 69.5676 81.9375 69.2914 81.9375 69C81.9375 68.0848 82.3836 67.2782 83.0625 66.7646ZM78 69C76.7574 69 75.75 67.9926 75.75 66.75C75.75 65.5074 76.7574 64.5 78 64.5C79.2426 64.5 80.25 65.5074 80.25 66.75C80.25 67.9926 79.2426 69 78 69Z" fill="#142653"/>
<path d="M78.2942 72.9375H76.4695L76.4509 72.8807L75.3613 76.875H78.756L77.073 82.486L80.4621 75.75H77.1692L78.2942 72.9375Z" fill="#142653"/>
<path d="M71.25 67.3125H67.7304C64.3982 67.3125 61.6875 70.0232 61.6875 73.3554C61.6875 75.6589 62.9672 77.7294 65.0276 78.7599L65.0625 78.7774V77.6704L64.581 77.1894C64.1659 76.7743 63.9375 76.2225 63.9375 75.6353C63.9375 74.832 64.3661 74.1058 65.0625 73.7171V72.9375C65.0625 71.6966 66.0716 70.6875 67.3125 70.6875H70.6875H71.25C72.1804 70.6875 72.9375 69.9304 72.9375 69C72.9375 68.0696 72.1804 67.3125 71.25 67.3125Z" fill="#142653"/>
<path d="M65.7099 81.438C63.8908 82.7565 62.8125 84.8597 62.8125 87.1187V94.3125H65.0625V87.2329L64.1023 86.2727L64.8977 85.4773L66.1875 86.7671V94.3125H71.8125V90.1776C71.8125 86.2575 69.3718 82.7801 65.7099 81.438Z" fill="#142653"/>
<path d="M71.628 74.7999C71.3805 74.4281 71.25 73.9972 71.25 73.5517V72.375C71.25 72.0645 70.9974 71.8125 70.6875 71.8125H67.3125C66.6921 71.8125 66.1875 72.3171 66.1875 72.9375V74.4107L65.6548 74.6762C65.2898 74.859 65.0625 75.2263 65.0625 75.6352C65.0625 75.9221 65.1739 76.191 65.3764 76.3941L66.1875 77.2046V80.4244C66.9952 80.7293 67.7484 81.1258 68.4375 81.6017V79.125H69.5625C69.8634 79.125 70.1452 79.008 70.3579 78.7959C70.5705 78.5833 70.6875 78.3004 70.6875 78V76.3131H72.0735C72.2394 76.3131 72.375 76.1781 72.375 76.0116C72.375 75.9519 72.3576 75.894 72.3244 75.8445L71.628 74.7999Z" fill="#142653"/>
<path d="M90.3255 81.9532L87.2706 82.4623L85.29 84.4429C84.579 85.1539 84.1875 86.0983 84.1875 87.1041C84.1875 87.6851 84.3248 88.2667 84.5846 88.7865L85.3125 90.2422V94.3125H89.8125V89.9829L89.4182 89.3917C88.9401 88.6751 88.6875 87.8398 88.6875 86.9775V86.7784C88.6875 85.3198 89.412 83.9659 90.6253 83.157L91.2491 84.093C90.3497 84.6926 89.8125 85.6967 89.8125 86.7778V86.9769C89.8125 87.6165 89.9998 88.2352 90.3542 88.7674L90.9375 89.6421V90.9375H93.1875V86.0572C93.1875 84.2173 92.0428 82.5849 90.3255 81.9532Z" fill="#142653"/>
<path d="M85.3125 78C85.3125 78.3004 85.4295 78.5833 85.6421 78.7959C85.8542 79.008 86.1366 79.125 86.4369 79.125H87.5625V81.2732L89.8125 80.898V77.2041L90.6236 76.3935C90.8261 76.191 90.9375 75.9216 90.9375 75.6347C90.9375 75.2257 90.7102 74.8584 90.3446 74.6756L89.8125 74.4107V72.9375C89.8125 72.3171 89.3079 71.8125 88.6875 71.8125H85.3125C85.0026 71.8125 84.75 72.0645 84.75 72.375V73.5517C84.75 73.9972 84.6195 74.4287 84.372 74.7999L83.6756 75.8445C83.6424 75.894 83.625 75.9514 83.625 76.0116C83.625 76.1781 83.76 76.3131 83.9265 76.3131H85.3125V78Z" fill="#142653"/>
<path d="M90.9375 92.0625H93.1875V94.3125H90.9375V92.0625Z" fill="#142653"/>
<path d="M92.625 79.125C92.5851 79.125 92.5468 79.1306 92.508 79.1334C92.1851 79.3691 91.842 79.5834 91.4753 79.7668L90.9375 80.0357V80.9869C91.7357 81.3204 92.4253 81.8295 92.9709 82.4595C93.7404 82.2992 94.3125 81.6231 94.3125 80.8125C94.3125 79.8821 93.5554 79.125 92.625 79.125Z" fill="#142653"/>
<path d="M85.3125 70.6875H88.6875C89.9284 70.6875 90.9375 71.6966 90.9375 72.9375V73.7171C91.6344 74.1064 92.0625 74.832 92.0625 75.6353C92.0625 76.2225 91.8341 76.7743 91.419 77.1894L90.9375 77.6704V78.7774L90.9724 78.7599C93.0328 77.73 94.3125 75.6589 94.3125 73.3554C94.3125 70.0232 91.6018 67.3125 88.2696 67.3125H84.75C83.8196 67.3125 83.0625 68.0696 83.0625 69C83.0625 69.9304 83.8196 70.6875 84.75 70.6875H85.3125Z" fill="#142653"/>
<defs>
<filter id="filter0_d_0_213" x="0" y="0" width="156" height="156" filterUnits="userSpaceOnUse" color-interpolation-filters="sRGB">
<feFlood flood-opacity="0" result="BackgroundImageFix"/>
<feColorMatrix in="SourceAlpha" type="matrix" values="0 0 0 0 0 0 0 0 0 0 0 0 0 0 0 0 0 0 127 0" result="hardAlpha"/>
<feOffset/>
<feGaussianBlur stdDeviation="21"/>
<feComposite in2="hardAlpha" operator="out"/>
<feColorMatrix type="matrix" values="0 0 0 0 1 0 0 0 0 0.806525 0 0 0 0 0.554167 0 0 0 0.13 0"/>
<feBlend mode="normal" in2="BackgroundImageFix" result="effect1_dropShadow_0_213"/>
<feBlend mode="normal" in="SourceGraphic" in2="effect1_dropShadow_0_213" result="shape"/>
</filter>
</defs>
</svg>
