<svg width="156" height="156" viewBox="0 0 156 156" fill="none" xmlns="http://www.w3.org/2000/svg">
<g filter="url(#filter0_d_0_233)">
<circle cx="78" cy="78" r="36" fill="white"/>
<circle cx="78" cy="78" r="35.5" stroke="#FFA32B" stroke-opacity="0.2"/>
</g>
<path d="M89.25 81.375H90.375C90.6734 81.375 90.9595 81.2565 91.1705 81.0455C91.3815 80.8345 91.5 80.5484 91.5 80.25C91.5 79.9517 91.3815 79.6655 91.1705 79.4545C90.9595 79.2435 90.6734 79.125 90.375 79.125H87.6952L86.3779 76.4903C86.0993 75.9284 85.6689 75.4558 85.1354 75.1261C84.6019 74.7964 83.9866 74.6228 83.3595 74.625H72.6405C72.0134 74.6228 71.3981 74.7964 70.8646 75.1261C70.3311 75.4558 69.9007 75.9284 69.6221 76.4903L68.3047 79.125H65.625C65.3266 79.125 65.0405 79.2435 64.8295 79.4545C64.6185 79.6655 64.5 79.9517 64.5 80.25C64.5 80.5484 64.6185 80.8345 64.8295 81.0455C65.0405 81.2565 65.3266 81.375 65.625 81.375H66.75L65.175 83.4743C64.7383 84.0592 64.5016 84.7693 64.5 85.4993V88.125C64.5012 88.5182 64.6058 88.9042 64.8032 89.2442C65.0007 89.5842 65.2841 89.8664 65.625 90.0623V91.5C65.625 92.0968 65.8621 92.6691 66.284 93.091C66.706 93.513 67.2783 93.75 67.875 93.75H70.125C70.7217 93.75 71.294 93.513 71.716 93.091C72.1379 92.6691 72.375 92.0968 72.375 91.5V90.375H83.625V91.5C83.625 92.0968 83.8621 92.6691 84.284 93.091C84.706 93.513 85.2783 93.75 85.875 93.75H88.125C88.7217 93.75 89.294 93.513 89.716 93.091C90.1379 92.6691 90.375 92.0968 90.375 91.5V90.0623C90.7159 89.8664 90.9993 89.5842 91.1968 89.2442C91.3942 88.9042 91.4988 88.5182 91.5 88.125V85.5004C91.4988 84.7703 91.2621 84.0602 90.825 83.4754L89.25 81.375ZM87 84.75C87.3338 84.75 87.66 84.849 87.9375 85.0344C88.215 85.2198 88.4313 85.4834 88.559 85.7917C88.6868 86.1001 88.7202 86.4394 88.6551 86.7667C88.59 87.0941 88.4292 87.3948 88.1932 87.6308C87.9572 87.8668 87.6566 88.0275 87.3292 88.0926C87.0019 88.1577 86.6626 88.1243 86.3542 87.9966C86.0459 87.8688 85.7823 87.6526 85.5969 87.375C85.4115 87.0975 85.3125 86.7713 85.3125 86.4375C85.3125 85.99 85.4903 85.5607 85.8068 85.2443C86.1232 84.9278 86.5524 84.75 87 84.75ZM69.9 80.925C69.9403 80.8707 69.9761 80.8131 70.0069 80.7529L71.6347 77.4971C71.7281 77.3103 71.8717 77.1531 72.0493 77.0433C72.2269 76.9334 72.4316 76.8751 72.6405 76.875H83.3595C83.5684 76.8751 83.7731 76.9334 83.9507 77.0433C84.1283 77.1531 84.2719 77.3103 84.3653 77.4971L85.9931 80.7529C86.0239 80.8131 86.0597 80.8707 86.1 80.925L86.1371 80.9734L85.8176 81.186C85.6348 81.3084 85.42 81.3741 85.2 81.375H70.8056C70.5837 81.3753 70.3668 81.3095 70.1824 81.186L69.8629 80.9734L69.9 80.925ZM69 84.75C69.3338 84.75 69.66 84.849 69.9375 85.0344C70.215 85.2198 70.4313 85.4834 70.559 85.7917C70.6868 86.1001 70.7202 86.4394 70.6551 86.7667C70.59 87.0941 70.4292 87.3948 70.1932 87.6308C69.9572 87.8668 69.6566 88.0275 69.3292 88.0926C69.0019 88.1577 68.6626 88.1243 68.3542 87.9966C68.0459 87.8688 67.7823 87.6526 67.5969 87.375C67.4115 87.0975 67.3125 86.7713 67.3125 86.4375C67.3125 85.99 67.4903 85.5607 67.8068 85.2443C68.1232 84.9278 68.5524 84.75 69 84.75Z" fill="#142653"/>
<path d="M75.7275 71.25C75.0623 72.1368 74.1499 72.8072 73.1049 73.1771C72.0599 73.5469 70.9289 73.5998 69.8539 73.329C69.0685 73.132 68.3356 72.7659 67.7064 72.2562C67.0772 71.7465 66.5669 71.1056 66.2112 70.3781C66.1676 70.2917 66.147 70.1954 66.1516 70.0986C66.1561 70.0019 66.1855 69.908 66.237 69.8259C66.2885 69.7439 66.3603 69.6765 66.4454 69.6304C66.5306 69.5842 66.6262 69.5609 66.723 69.5625H69.3252C69.5226 69.5625 69.7166 69.5105 69.8876 69.4118C70.0587 69.3131 70.2007 69.171 70.2994 69L70.6234 68.4375C70.7221 68.2665 70.7741 68.0725 70.7741 67.875C70.7741 67.6775 70.7221 67.4835 70.6234 67.3125L70.2994 66.75C70.2007 66.579 70.0587 66.437 69.8876 66.3382C69.7166 66.2395 69.5226 66.1875 69.3252 66.1875H66.723C66.6267 66.1889 66.5315 66.1654 66.4468 66.1195C66.3621 66.0735 66.2906 66.0065 66.2393 65.925C66.1879 65.8434 66.1583 65.7501 66.1534 65.6538C66.1485 65.5575 66.1683 65.4616 66.2112 65.3753C66.5661 64.647 67.0761 64.0051 67.7054 63.4948C68.3347 62.9844 69.068 62.6179 69.8539 62.421C70.9289 62.1502 72.0599 62.2031 73.1049 62.573C74.1499 62.9429 75.0623 63.6133 75.7275 64.5H86.865C87.6618 64.4858 88.4391 64.7465 89.0661 65.2383C89.6931 65.73 90.1315 66.4228 90.3075 67.2C90.4066 67.6903 90.3956 68.1965 90.2753 68.682C90.1551 69.1675 89.9286 69.6203 89.6122 70.0078C89.2958 70.3952 88.8974 70.7076 88.4457 70.9224C87.994 71.1372 87.5002 71.2491 87 71.25H75.7275Z" fill="#142653"/>
<defs>
<filter id="filter0_d_0_233" x="0" y="0" width="156" height="156" filterUnits="userSpaceOnUse" color-interpolation-filters="sRGB">
<feFlood flood-opacity="0" result="BackgroundImageFix"/>
<feColorMatrix in="SourceAlpha" type="matrix" values="0 0 0 0 0 0 0 0 0 0 0 0 0 0 0 0 0 0 127 0" result="hardAlpha"/>
<feOffset/>
<feGaussianBlur stdDeviation="21"/>
<feComposite in2="hardAlpha" operator="out"/>
<feColorMatrix type="matrix" values="0 0 0 0 1 0 0 0 0 0.806525 0 0 0 0 0.554167 0 0 0 0.13 0"/>
<feBlend mode="normal" in2="BackgroundImageFix" result="effect1_dropShadow_0_233"/>
<feBlend mode="normal" in="SourceGraphic" in2="effect1_dropShadow_0_233" result="shape"/>
</filter>
</defs>
</svg>
