<svg width="156" height="156" viewBox="0 0 156 156" fill="none" xmlns="http://www.w3.org/2000/svg">
<g filter="url(#filter0_d_0_244)">
<circle cx="78" cy="78" r="36" fill="white"/>
<circle cx="78" cy="78" r="35.5" stroke="#FFA32B" stroke-opacity="0.2"/>
</g>
<path d="M61.125 86.4375H65.625V94.3125H61.125V86.4375Z" fill="#142653"/>
<path d="M80.5312 84.1875C82.2373 84.1875 83.625 85.5758 83.625 87.2812C83.625 87.5737 83.5845 87.8567 83.508 88.125H85.0656L91.7998 85.0172C92.1772 84.8422 92.5974 84.75 93.0148 84.75H93.1003C93.3242 84.75 93.5402 84.7809 93.75 84.8293V69.5625C93.75 68.3199 92.7426 67.3125 91.5 67.3125H88.125V63.9375C88.125 62.6949 87.1176 61.6875 85.875 61.6875H79.125C77.8824 61.6875 76.875 62.6949 76.875 63.9375V67.3125H73.5C72.2574 67.3125 71.25 68.3199 71.25 69.5625V85.4087L72.4712 84.1875H80.5312ZM79.125 63.9375H85.875V67.3125H79.125V63.9375ZM82.5 70.6875C85.9172 70.6875 88.6875 73.4578 88.6875 76.875C88.6875 80.2922 85.9172 83.0625 82.5 83.0625C79.0828 83.0625 76.3125 80.2922 76.3125 76.875C76.3125 73.4578 79.0828 70.6875 82.5 70.6875Z" fill="#142653"/>
<path d="M81.375 80.25H83.625V78H85.875V75.75H83.625V73.5H81.375V75.75H79.125V78H81.375V80.25Z" fill="#142653"/>
<path d="M93.1003 85.875H93.0148C92.7577 85.875 92.5041 85.9307 92.2712 86.0381L85.3125 89.25H80.5312C81.6186 89.25 82.5 88.3686 82.5 87.2812C82.5 86.1939 81.6186 85.3125 80.5312 85.3125H72.9375L70.6875 87.5625H66.75V93.75H85.875L93.9705 89.1966C94.5291 88.8821 94.875 88.2909 94.875 87.6497C94.875 86.6692 94.0808 85.875 93.1003 85.875ZM80.25 90.375H76.3125C76.002 90.375 75.75 90.123 75.75 89.8125C75.75 89.502 76.002 89.25 76.3125 89.25H80.25C80.5605 89.25 80.8125 89.502 80.8125 89.8125C80.8125 90.123 80.5605 90.375 80.25 90.375Z" fill="#142653"/>
<defs>
<filter id="filter0_d_0_244" x="0" y="0" width="156" height="156" filterUnits="userSpaceOnUse" color-interpolation-filters="sRGB">
<feFlood flood-opacity="0" result="BackgroundImageFix"/>
<feColorMatrix in="SourceAlpha" type="matrix" values="0 0 0 0 0 0 0 0 0 0 0 0 0 0 0 0 0 0 127 0" result="hardAlpha"/>
<feOffset/>
<feGaussianBlur stdDeviation="21"/>
<feComposite in2="hardAlpha" operator="out"/>
<feColorMatrix type="matrix" values="0 0 0 0 1 0 0 0 0 0.806525 0 0 0 0 0.554167 0 0 0 0.13 0"/>
<feBlend mode="normal" in2="BackgroundImageFix" result="effect1_dropShadow_0_244"/>
<feBlend mode="normal" in="SourceGraphic" in2="effect1_dropShadow_0_244" result="shape"/>
</filter>
</defs>
</svg>
