<svg width="156" height="156" viewBox="0 0 156 156" fill="none" xmlns="http://www.w3.org/2000/svg">
<g filter="url(#filter0_d_0_256)">
<circle cx="78" cy="78" r="36" fill="white"/>
<circle cx="78" cy="78" r="35.5" stroke="#FFA32B" stroke-opacity="0.2"/>
</g>
<g clip-path="url(#clip0_0_256)">
<path d="M78.8943 84.5945C77.8633 84.5945 77.0742 83.6526 77.2727 82.628C77.3828 82.0594 78.0522 78.6032 78.1633 78.0297C78.0914 78.0503 74.5561 78.0188 74.5561 78.0188L71.008 66.5247C70.8798 66.1092 70.4389 65.8765 70.0235 66.0047C69.608 66.133 69.3753 66.5737 69.5036 66.9891L72.9084 78.0188H70.3214C69.7761 78.0188 69.334 78.4609 69.334 79.0062V90.1834H66.8567C66.9041 90.1149 66.938 90.0356 66.9535 89.9491L68.0638 83.7501C68.0949 83.5758 68.0474 83.3967 67.9338 83.261C67.8201 83.1253 67.6522 83.0469 67.4753 83.0469H61.5038C61.3268 83.0469 61.1589 83.1253 61.0453 83.261C60.9316 83.3967 60.8841 83.5759 60.9153 83.7501L62.0256 89.9491C62.0411 90.0356 62.0749 90.1148 62.1224 90.1834H61.2776C60.5721 90.1834 60 90.7554 60 91.461V92.4919V93.2791C60 93.714 60.3525 94.0664 60.7873 94.0664H61.6651C61.665 94.0566 61.6644 94.047 61.6644 94.0371C61.6644 93.7756 61.6973 93.5217 61.7589 93.2791C62.0976 91.9448 63.3087 90.9546 64.7469 90.9546C66.1852 90.9546 67.3962 91.9447 67.7349 93.2791C67.7965 93.5218 67.8295 93.7757 67.8295 94.0371C67.8295 94.047 67.8289 94.0566 67.8288 94.0664H71.1124C71.1123 94.0566 71.1117 94.047 71.1117 94.0371C71.1117 93.7756 71.1447 93.5217 71.2062 93.2791C71.5449 91.9448 72.756 90.9546 74.1942 90.9546C75.6325 90.9546 76.8435 91.9447 77.1822 93.2791C77.2438 93.5218 77.2768 93.7757 77.2768 94.0371C77.2768 94.047 77.2762 94.0566 77.2761 94.0664H78.311C78.7458 94.0664 79.0982 93.714 79.0982 93.2791V84.5945H78.8943Z" fill="#142653"/>
<path d="M74.1941 92.0017C73.1135 92.0017 72.2375 92.8777 72.2375 93.9583C72.2375 95.0389 73.1135 95.9149 74.1941 95.9149C75.2747 95.9149 76.1507 95.0389 76.1507 93.9583C76.1507 92.8777 75.2747 92.0017 74.1941 92.0017ZM74.1941 94.6554C73.8092 94.6554 73.4972 94.3433 73.4972 93.9584C73.4972 93.5735 73.8092 93.2615 74.1941 93.2615C74.5791 93.2615 74.891 93.5735 74.891 93.9584C74.8911 94.3433 74.579 94.6554 74.1941 94.6554Z" fill="#142653"/>
<path d="M64.7469 92.0017C63.6663 92.0017 62.7903 92.8777 62.7903 93.9583C62.7903 95.0389 63.6664 95.9149 64.7469 95.9149C65.8275 95.9149 66.7035 95.0389 66.7035 93.9583C66.7035 92.8777 65.8275 92.0017 64.7469 92.0017ZM64.7469 94.6554C64.362 94.6554 64.05 94.3433 64.05 93.9584C64.05 93.5735 64.362 93.2615 64.7469 93.2615C65.1319 93.2615 65.4439 93.5735 65.4439 93.9584C65.4439 94.3433 65.1318 94.6554 64.7469 94.6554Z" fill="#142653"/>
<path d="M95.996 91.1756C95.9947 89.8988 95.125 88.8262 93.9463 88.5147L93.9311 73.9434L94.3394 73.7733C95.0605 73.473 95.4015 72.645 95.1012 71.924C94.8932 71.4245 94.4317 71.1077 93.9281 71.0598L93.919 62.3112C93.9186 61.9201 93.6014 61.6034 93.2104 61.6034C93.2102 61.6034 93.2099 61.6034 93.2097 61.6034C92.8184 61.6038 92.5015 61.9213 92.5019 62.3126L92.5114 71.4705L90.4754 72.3185C90.0784 71.3308 89.73 70.5483 89.4543 69.7458C88.9262 68.2092 88.1103 67.2827 87.0229 66.9793C86.4041 68.7258 86.1819 69.3527 85.7857 70.4706L87.2264 79.5687C87.2603 79.7829 87.1986 80.0012 87.0577 80.1661C86.9168 80.3311 86.7105 80.4267 86.4937 80.4265C84.728 80.4245 83.2209 80.4191 80.932 80.4191C80.5046 80.4191 80.1754 80.0322 80.2483 79.6072L80.5553 77.8213L79.2121 77.1691L78.1229 82.7925C78.0287 83.2789 78.4036 83.7285 78.8943 83.7285C79.1989 83.7285 79.5644 83.7285 79.9734 83.7285V94.2238C79.9734 95.1612 80.7333 95.921 81.6706 95.921C82.608 95.921 83.3678 95.1612 83.3678 94.2238V83.7286C83.6118 83.7286 83.8566 83.7286 84.1006 83.7286V94.2239C84.1006 95.1541 84.8551 95.9211 85.7978 95.9211C86.7352 95.9211 87.495 95.1612 87.495 94.2239C87.495 93.701 87.495 84.105 87.495 83.7286C87.9041 83.7286 88.2698 83.7286 88.5742 83.7286C89.0674 83.7286 89.4397 83.2785 89.3456 82.7926L87.3121 72.0591C87.377 72.2178 88.0535 73.855 88.3443 74.6631C88.614 75.4126 89.4648 75.804 90.2189 75.4897L92.515 74.5333L92.5295 88.5162C91.3515 88.8301 90.4841 89.9046 90.4855 91.1813L90.4857 91.3906L95.9966 91.3858L95.996 91.1756Z" fill="#142653"/>
<path d="M95.9974 92.488L90.4865 92.4928L90.4891 94.9602C90.4897 95.4965 91.7238 95.9299 93.2456 95.9283C94.7674 95.9268 96.0006 95.4908 96 94.9545L95.9974 92.488Z" fill="#142653"/>
<path d="M83.7337 65.9337C85.3525 65.9337 86.6647 64.6215 86.6647 63.0027C86.6647 61.384 85.3525 60.0718 83.7337 60.0718C82.115 60.0718 80.8028 61.384 80.8028 63.0027C80.8028 64.6215 82.115 65.9337 83.7337 65.9337Z" fill="#142653"/>
<path d="M81.5363 66.8683C81.7791 67.5533 82.4923 69.5657 82.764 70.3324C83.5041 70.3324 84.0033 70.3324 84.6654 70.3324C84.9381 69.5628 85.656 67.5371 85.8929 66.8683C84.1043 66.8683 83.4504 66.8683 81.5363 66.8683Z" fill="#142653"/>
<path d="M82.7505 74.7333C79.3796 73.0964 80.2816 73.5407 79.2761 73.0295L80.8703 70.4217L80.2667 72.5177L81.3666 73.0518L81.6724 70.552C81.1162 68.9825 81.0505 68.7971 80.4101 66.9902C79.81 67.1713 79.3876 67.5347 79.0641 67.9439C78.6856 68.4226 76.0957 72.7139 76.011 72.8455C75.5511 73.5606 75.8239 74.5143 76.5819 74.8824L81.5149 77.2778C82.2176 77.6191 83.0637 77.3259 83.4049 76.6234C83.7461 75.9207 83.4531 75.0745 82.7505 74.7333Z" fill="#142653"/>
</g>
<defs>
<filter id="filter0_d_0_256" x="0" y="0" width="156" height="156" filterUnits="userSpaceOnUse" color-interpolation-filters="sRGB">
<feFlood flood-opacity="0" result="BackgroundImageFix"/>
<feColorMatrix in="SourceAlpha" type="matrix" values="0 0 0 0 0 0 0 0 0 0 0 0 0 0 0 0 0 0 127 0" result="hardAlpha"/>
<feOffset/>
<feGaussianBlur stdDeviation="21"/>
<feComposite in2="hardAlpha" operator="out"/>
<feColorMatrix type="matrix" values="0 0 0 0 1 0 0 0 0 0.806525 0 0 0 0 0.554167 0 0 0 0.13 0"/>
<feBlend mode="normal" in2="BackgroundImageFix" result="effect1_dropShadow_0_256"/>
<feBlend mode="normal" in="SourceGraphic" in2="effect1_dropShadow_0_256" result="shape"/>
</filter>
<clipPath id="clip0_0_256">
<rect width="36" height="36" fill="white" transform="translate(60 60)"/>
</clipPath>
</defs>
</svg>
