<svg width="156" height="156" viewBox="0 0 156 156" fill="none" xmlns="http://www.w3.org/2000/svg">
<g filter="url(#filter0_d_0_289)">
<circle cx="78" cy="78" r="36" fill="white"/>
<circle cx="78" cy="78" r="35.5" stroke="#FFA32B" stroke-opacity="0.2"/>
</g>
<path fill-rule="evenodd" clip-rule="evenodd" d="M62.0752 84.0022H63.2821V82.8983C63.282 82.7121 63.3122 82.5271 63.3715 82.3505C63.6132 82.6555 63.9186 82.9038 64.2664 83.0782V84.0026H65.7516V83.3496C66.0953 83.3155 66.4293 83.2165 66.736 83.0576V84.0026H67.9425C67.9936 84.0024 68.0428 84.0212 68.0808 84.0553C68.1188 84.0894 68.1428 84.1364 68.1481 84.1871L68.8882 91.018C68.8996 91.1191 68.8895 91.2216 68.8585 91.3185C68.8275 91.4155 68.7763 91.5047 68.7083 91.5805C68.6403 91.6562 68.5571 91.7167 68.4641 91.758C68.371 91.7993 68.2703 91.8204 68.1685 91.8199H61.8492C61.7474 91.8204 61.6467 91.7993 61.5536 91.758C61.4605 91.7167 61.3773 91.6562 61.3093 91.5804C61.2413 91.5046 61.1901 91.4153 61.1591 91.3183C61.1281 91.2213 61.1181 91.1188 61.1295 91.0177L61.8696 84.1868C61.875 84.136 61.8989 84.0891 61.9369 84.055C61.9749 84.0209 62.0242 84.0021 62.0752 84.0022ZM94.1363 91.2102C94.3321 91.2102 94.52 91.2881 94.6585 91.4266C94.797 91.5651 94.8749 91.753 94.8749 91.9488C94.8749 92.1447 94.797 92.3326 94.6585 92.4711C94.52 92.6096 94.3321 92.6874 94.1363 92.6874H83.9428C83.3474 92.6858 82.7734 92.4655 82.3297 92.0685C81.886 91.6714 81.6036 91.1253 81.536 90.5337L80.4587 80.9724C80.4335 80.7409 80.3232 80.5271 80.1494 80.3723C79.9755 80.2174 79.7504 80.1326 79.5176 80.1343H79.359C79.1631 80.1343 78.9753 80.0564 78.8368 79.9179C78.6982 79.7794 78.6204 79.5916 78.6204 79.3957C78.6204 79.1998 78.6982 79.0119 78.8368 78.8734C78.9753 78.7349 79.1631 78.6571 79.359 78.6571H79.5176C80.113 78.6587 80.687 78.879 81.1307 79.2761C81.5744 79.6731 81.8568 80.2193 81.9244 80.8108L83.0017 90.3721C83.0269 90.6036 83.1372 90.8174 83.311 90.9722C83.4849 91.1271 83.71 91.2119 83.9428 91.2102H94.1363ZM92.9404 88.4422L93.1725 87.3845H90.8532L90.6602 89.3925H91.8981C92.4229 89.3925 92.8192 89.0535 92.9407 88.4422H92.9404ZM93.3886 86.4001L93.7044 84.9609H91.0857L90.9475 86.4L93.3886 86.4001ZM93.9205 83.9766L94.1428 82.9634C94.23 82.4347 93.8734 81.9686 93.2044 81.9686H91.3735L91.1803 83.9766H93.9205ZM90.3877 81.9686H86.8136L87.0065 83.9766H90.1947L90.3877 81.9686ZM87.101 84.9609L87.2393 86.4H89.9619L90.1002 84.9609H87.101ZM87.3339 87.3845L87.5267 89.3925H89.6744L89.8674 87.3845H87.3339ZM85.828 81.9685H83.0454L83.2716 83.9766H86.0209L85.8279 81.9686L85.828 81.9685ZM83.3826 84.9609L83.5447 86.4H86.2537L86.1155 84.9609H83.3826ZM83.6557 87.3845L83.8819 89.3925H86.5412L86.3483 87.3845H83.6557ZM86.0105 93.892C86.0105 94.0864 85.9529 94.2765 85.8449 94.4381C85.7368 94.5998 85.5833 94.7258 85.4037 94.8002C85.2241 94.8746 85.0265 94.894 84.8358 94.8561C84.6451 94.8182 84.47 94.7246 84.3325 94.5871C84.195 94.4496 84.1014 94.2745 84.0635 94.0838C84.0255 93.8931 84.045 93.6955 84.1194 93.5159C84.1938 93.3363 84.3198 93.1827 84.4814 93.0747C84.6431 92.9667 84.8331 92.9091 85.0275 92.9091C85.2882 92.9091 85.5383 93.0126 85.7226 93.197C85.907 93.3813 86.0105 93.6313 86.0105 93.892ZM92.4574 93.892C92.4574 94.0864 92.3998 94.2765 92.2917 94.4381C92.1837 94.5998 92.0302 94.7258 91.8506 94.8002C91.671 94.8746 91.4733 94.894 91.2826 94.8561C91.092 94.8182 90.9168 94.7245 90.7793 94.5871C90.6419 94.4496 90.5483 94.2744 90.5103 94.0838C90.4724 93.8931 90.4919 93.6954 90.5663 93.5158C90.6407 93.3362 90.7667 93.1827 90.9284 93.0747C91.09 92.9667 91.2801 92.909 91.4745 92.9091C91.6036 92.9091 91.7314 92.9345 91.8507 92.9839C91.9699 93.0333 92.0783 93.1057 92.1695 93.197C92.2608 93.2882 92.3332 93.3966 92.3826 93.5159C92.432 93.6351 92.4574 93.7629 92.4574 93.892ZM70.1217 86.6884C70.1145 86.7382 70.1181 86.789 70.1323 86.8373C70.1466 86.8856 70.171 86.9303 70.2041 86.9682C70.2371 87.0062 70.278 87.0366 70.3238 87.0574C70.3697 87.0782 70.4195 87.0888 70.4698 87.0886H72.0956V94.0312C72.0958 94.1244 72.1329 94.2137 72.1988 94.2796C72.2647 94.3455 72.354 94.3826 72.4472 94.3828H75.1427C75.2359 94.3826 75.3253 94.3456 75.3911 94.2797C75.457 94.2138 75.4941 94.1244 75.4943 94.0312V87.0886H76.4787V94.0312C76.4789 94.1244 76.516 94.2137 76.5819 94.2796C76.6477 94.3455 76.7371 94.3826 76.8302 94.3828H79.5258C79.619 94.3826 79.7083 94.3455 79.7742 94.2796C79.8401 94.2137 79.8772 94.1244 79.8774 94.0312V87.0886H80.1574L79.4847 81.1186H79.3591C78.9021 81.1186 78.4639 80.9371 78.1408 80.614C77.8177 80.2909 77.6362 79.8527 77.6362 79.3957C77.6362 78.9388 77.8177 78.5005 78.1408 78.1774C78.4639 77.8543 78.9021 77.6728 79.3591 77.6728H79.5177C79.9923 77.6727 80.4616 77.7724 80.8953 77.9653L80.6322 76.0831L84.7737 80.9839H88.4369C88.4841 80.7339 88.4751 80.4766 88.4104 80.2305C88.3458 79.9844 88.2271 79.7559 88.0632 79.5614L81.5993 71.9125C81.3176 71.569 80.9621 71.2934 80.5591 71.1064C80.1561 70.9193 79.7162 70.8256 79.272 70.8322H72.9635C72.5193 70.8256 72.0794 70.9193 71.6764 71.1064C71.2735 71.2934 70.9179 71.569 70.6362 71.9125L64.1727 79.5616C63.8823 79.9095 63.7414 80.3581 63.7808 80.8095C63.8201 81.2609 64.0364 81.6784 64.3825 81.9708C64.7286 82.2633 65.1763 82.4069 65.6279 82.3704C66.0795 82.3338 66.4984 82.1201 66.7929 81.7758L71.6034 76.0831L70.1217 86.6883V86.6884ZM75.9865 61.125C75.2731 61.125 74.5757 61.3365 73.9825 61.7329C73.3894 62.1292 72.927 62.6926 72.654 63.3517C72.381 64.0108 72.3096 64.736 72.4488 65.4357C72.5879 66.1354 72.9315 66.7781 73.4359 67.2826C73.9404 67.787 74.5831 68.1306 75.2828 68.2698C75.9825 68.4089 76.7077 68.3375 77.3668 68.0645C78.0259 67.7915 78.5893 67.3292 78.9856 66.736C79.382 66.1428 79.5935 65.4454 79.5935 64.732C79.5935 64.2583 79.5002 63.7893 79.319 63.3517C79.1377 62.9141 78.872 62.5164 78.537 62.1815C78.2021 61.8465 77.8045 61.5808 77.3668 61.3996C76.9292 61.2183 76.4602 61.125 75.9865 61.125Z" fill="#142653"/>
<defs>
<filter id="filter0_d_0_289" x="0" y="0" width="156" height="156" filterUnits="userSpaceOnUse" color-interpolation-filters="sRGB">
<feFlood flood-opacity="0" result="BackgroundImageFix"/>
<feColorMatrix in="SourceAlpha" type="matrix" values="0 0 0 0 0 0 0 0 0 0 0 0 0 0 0 0 0 0 127 0" result="hardAlpha"/>
<feOffset/>
<feGaussianBlur stdDeviation="21"/>
<feComposite in2="hardAlpha" operator="out"/>
<feColorMatrix type="matrix" values="0 0 0 0 1 0 0 0 0 0.806525 0 0 0 0 0.554167 0 0 0 0.13 0"/>
<feBlend mode="normal" in2="BackgroundImageFix" result="effect1_dropShadow_0_289"/>
<feBlend mode="normal" in="SourceGraphic" in2="effect1_dropShadow_0_289" result="shape"/>
</filter>
</defs>
</svg>
