<svg width="156" height="156" viewBox="0 0 156 156" fill="none" xmlns="http://www.w3.org/2000/svg">
<g filter="url(#filter0_d_0_307)">
<circle cx="78" cy="78" r="36" fill="white"/>
<circle cx="78" cy="78" r="35.5" stroke="#FFA32B" stroke-opacity="0.2"/>
</g>
<path d="M92.1975 61.9274C83.73 74.3325 91.23 63.3449 82.77 75.75C83.6726 75.7915 84.5487 76.068 85.3116 76.5521C86.0746 77.0362 86.6979 77.7111 87.12 78.51L94.68 63.3899C94.8315 63.0639 94.8562 62.6931 94.7494 62.3499C94.6425 62.0066 94.4118 61.7153 94.102 61.5329C93.7922 61.3504 93.4256 61.2897 93.0736 61.3626C92.7216 61.4356 92.4092 61.6369 92.1975 61.9274Z" fill="#142653"/>
<path d="M79.35 78.96C78.225 80.7 79.5 85.5 79.5 85.5C79.5 85.5 84.5175 84.75 85.65 83.04C86.1911 82.2045 86.3781 81.1884 86.1699 80.2151C85.9617 79.2418 85.3754 78.391 84.54 77.85C83.7046 77.3089 82.6884 77.1219 81.7151 77.3301C80.7418 77.5382 79.891 78.1245 79.35 78.96Z" fill="#142653"/>
<path d="M73.5 90.75C74.3284 90.75 75 90.0784 75 89.25C75 88.4216 74.3284 87.75 73.5 87.75C72.6716 87.75 72 88.4216 72 89.25C72 90.0784 72.6716 90.75 73.5 90.75Z" fill="#142653"/>
<path d="M83.4 88.5C82.11 88.5 80.6475 88.6575 79.8 87L78.39 87.2025C77.175 82.5675 76.185 77.685 80.7375 76.095L87.555 66.0675C80.4225 54.6 59.5725 62.8425 60.8025 79.32C61.0188 82.0208 61.8666 84.633 63.2776 86.946C64.6886 89.2591 66.6234 91.2083 68.9258 92.6365C71.2283 94.0647 73.8341 94.9319 76.5333 95.1683C79.2324 95.4047 81.9493 95.0037 84.465 93.9975C85.0736 93.7455 85.5765 93.291 85.8885 92.7108C86.2005 92.1307 86.3025 91.4606 86.1772 90.8139C86.0519 90.1672 85.7071 89.5836 85.201 89.162C84.6949 88.7403 84.0587 88.5065 83.4 88.5ZM68.25 69C68.9917 69 69.7167 69.2199 70.3334 69.632C70.9501 70.044 71.4307 70.6297 71.7145 71.3149C71.9984 72.0001 72.0726 72.7541 71.9279 73.4816C71.7832 74.209 71.4261 74.8772 70.9016 75.4016C70.3772 75.9261 69.709 76.2832 68.9816 76.4279C68.2542 76.5726 67.5002 76.4984 66.8149 76.2145C66.1297 75.9307 65.544 75.4501 65.132 74.8334C64.7199 74.2167 64.5 73.4917 64.5 72.75C64.5 71.7554 64.8951 70.8016 65.5983 70.0983C66.3016 69.3951 67.2554 69 68.25 69ZM66.75 85.5C66.1567 85.5 65.5766 85.324 65.0833 84.9944C64.5899 84.6647 64.2054 84.1962 63.9784 83.648C63.7513 83.0999 63.6919 82.4967 63.8076 81.9147C63.9234 81.3328 64.2091 80.7982 64.6287 80.3787C65.0482 79.9591 65.5828 79.6734 66.1647 79.5576C66.7467 79.4419 67.3499 79.5013 67.898 79.7283C68.4462 79.9554 68.9148 80.3399 69.2444 80.8333C69.574 81.3266 69.75 81.9066 69.75 82.5C69.75 83.2956 69.4339 84.0587 68.8713 84.6213C68.3087 85.1839 67.5456 85.5 66.75 85.5ZM73.5 92.25C72.9067 92.25 72.3266 92.074 71.8333 91.7444C71.3399 91.4147 70.9554 90.9462 70.7284 90.398C70.5013 89.8499 70.4419 89.2467 70.5576 88.6647C70.6734 88.0828 70.9591 87.5482 71.3787 87.1287C71.7982 86.7091 72.3328 86.4234 72.9147 86.3076C73.4967 86.1919 74.0999 86.2513 74.648 86.4783C75.1962 86.7054 75.6648 87.0899 75.9944 87.5833C76.324 88.0766 76.5 88.6566 76.5 89.25C76.5 90.0456 76.1839 90.8087 75.6213 91.3713C75.0587 91.9339 74.2956 92.25 73.5 92.25ZM74.25 66.75C74.25 66.0083 74.4699 65.2833 74.882 64.6666C75.294 64.0499 75.8797 63.5693 76.5649 63.2854C77.2502 63.0016 78.0042 62.9273 78.7316 63.072C79.459 63.2167 80.1272 63.5739 80.6516 64.0983C81.1761 64.6228 81.5332 65.291 81.6779 66.0184C81.8226 66.7458 81.7484 67.4998 81.4645 68.185C81.1807 68.8703 80.7001 69.4559 80.0834 69.868C79.4667 70.2801 78.7417 70.5 78 70.5C77.0054 70.5 76.0516 70.1049 75.3483 69.4016C74.6451 68.6984 74.25 67.7445 74.25 66.75Z" fill="#142653"/>
<path d="M68.25 75C69.4926 75 70.5 73.9926 70.5 72.75C70.5 71.5074 69.4926 70.5 68.25 70.5C67.0074 70.5 66 71.5074 66 72.75C66 73.9926 67.0074 75 68.25 75Z" fill="#142653"/>
<path d="M78 69C79.2426 69 80.25 67.9926 80.25 66.75C80.25 65.5074 79.2426 64.5 78 64.5C76.7574 64.5 75.75 65.5074 75.75 66.75C75.75 67.9926 76.7574 69 78 69Z" fill="#142653"/>
<path d="M66.75 84C67.5784 84 68.25 83.3284 68.25 82.5C68.25 81.6716 67.5784 81 66.75 81C65.9216 81 65.25 81.6716 65.25 82.5C65.25 83.3284 65.9216 84 66.75 84Z" fill="#142653"/>
<defs>
<filter id="filter0_d_0_307" x="0" y="0" width="156" height="156" filterUnits="userSpaceOnUse" color-interpolation-filters="sRGB">
<feFlood flood-opacity="0" result="BackgroundImageFix"/>
<feColorMatrix in="SourceAlpha" type="matrix" values="0 0 0 0 0 0 0 0 0 0 0 0 0 0 0 0 0 0 127 0" result="hardAlpha"/>
<feOffset/>
<feGaussianBlur stdDeviation="21"/>
<feComposite in2="hardAlpha" operator="out"/>
<feColorMatrix type="matrix" values="0 0 0 0 1 0 0 0 0 0.806525 0 0 0 0 0.554167 0 0 0 0.13 0"/>
<feBlend mode="normal" in2="BackgroundImageFix" result="effect1_dropShadow_0_307"/>
<feBlend mode="normal" in="SourceGraphic" in2="effect1_dropShadow_0_307" result="shape"/>
</filter>
</defs>
</svg>
