<svg width="156" height="156" viewBox="0 0 156 156" fill="none" xmlns="http://www.w3.org/2000/svg">
<g filter="url(#filter0_d_0_298)">
<circle cx="78" cy="78" r="36" fill="white"/>
<circle cx="78" cy="78" r="35.5" stroke="#FFA32B" stroke-opacity="0.2"/>
</g>
<g clip-path="url(#clip0_0_298)">
<path fill-rule="evenodd" clip-rule="evenodd" d="M78.2209 65.2685L79.3545 68.2542C79.3886 68.344 79.4679 68.4016 79.5638 68.4063L82.7537 68.5618C82.8536 68.5666 82.9359 68.6296 82.9668 68.7247C82.9977 68.8198 82.9681 68.9191 82.8902 68.9818L80.4009 70.9825C80.3261 71.0426 80.2958 71.1359 80.3209 71.2285L81.1588 74.3103C81.185 74.4069 81.1506 74.5045 81.0697 74.5633C80.9888 74.6221 80.8853 74.6246 80.8015 74.5698L78.1294 72.8207C78.0491 72.7681 77.9511 72.7681 77.8708 72.8207L75.1987 74.5698C75.1151 74.6246 75.0115 74.6221 74.9306 74.5633C74.8497 74.5045 74.8153 74.4068 74.8416 74.3103L75.6794 71.2285C75.7046 71.1359 75.6743 71.0426 75.5995 70.9825L73.1102 68.9818C73.0322 68.9191 73.0026 68.8198 73.0335 68.7247C73.0644 68.6296 73.1467 68.5667 73.2467 68.5618L76.4365 68.4063C76.5324 68.4017 76.6117 68.344 76.6458 68.2542L77.7794 65.2685C77.8149 65.175 77.9001 65.1162 78.0001 65.1162C78.1002 65.1162 78.1854 65.175 78.2209 65.2685ZM72.043 64.3292L74.0382 66.1257C74.2687 66.3332 74.6239 66.3145 74.8314 66.084C75.0389 65.8534 75.0202 65.4983 74.7896 65.2908L72.7944 63.4942C72.5639 63.2867 72.2087 63.3054 72.0012 63.536C71.7937 63.7665 71.8124 64.1217 72.043 64.3292ZM83.2058 63.4942L81.1989 65.3012C80.9684 65.5087 80.9497 65.8639 81.1572 66.0944C81.3647 66.325 81.7198 66.3437 81.9504 66.1362L83.9572 64.3292C84.1878 64.1217 84.2065 63.7665 83.999 63.536C83.7914 63.3054 83.4363 63.2867 83.2058 63.4942ZM78.5626 63.0267C78.5626 63.3373 78.3108 63.5892 78.0001 63.5892C77.6895 63.5892 77.4376 63.3373 77.4376 63.0267V60.9624C77.4376 60.6518 77.6895 60.3999 78.0001 60.3999C78.3108 60.3999 78.5626 60.6518 78.5626 60.9624V63.0267ZM78.0001 76.3747C80.1798 76.3747 81.9467 78.1416 81.9467 80.3212C81.9467 82.5008 80.1798 84.2678 78.0001 84.2678C75.8205 84.2678 74.0536 82.5008 74.0536 80.3212C74.0536 78.1416 75.8205 76.3747 78.0001 76.3747ZM85.7607 91.9365C85.3416 88.0207 82.0271 84.9709 78.0001 84.9709C73.9731 84.9709 70.6586 88.0207 70.2395 91.9366V93.5143C70.2395 94.6632 71.1766 95.6002 72.3255 95.6002H83.6747C84.8236 95.6002 85.7607 94.6632 85.7607 93.5143V91.9365ZM89.7949 79.2406C91.4255 79.2406 92.7474 80.5626 92.7474 82.1931C92.7474 83.8237 91.4255 85.1456 89.7949 85.1456C88.1643 85.1456 86.8424 83.8237 86.8424 82.1931C86.8424 80.5626 88.1642 79.2406 89.7949 79.2406ZM66.2054 79.2406C67.836 79.2406 69.1578 80.5626 69.1578 82.1931C69.1578 83.8237 67.836 85.1456 66.2054 85.1456C64.5747 85.1456 63.2529 83.8237 63.2529 82.1931C63.2529 80.5626 64.5747 79.2406 66.2054 79.2406ZM66.2053 85.9343C67.926 85.9343 69.4728 86.6785 70.5415 87.8626C69.7873 89.0046 69.2872 90.3335 69.126 91.774H61.9011C61.4633 91.774 61.0865 91.5836 60.8267 91.2312C60.5669 90.8788 60.4965 90.4626 60.6261 90.0444C61.3633 87.6636 63.5824 85.9343 66.2053 85.9343ZM89.7948 85.9343C92.4179 85.9343 94.6369 87.6636 95.3741 90.0444C95.5036 90.4626 95.4332 90.8788 95.1734 91.2312C94.9136 91.5837 94.5369 91.774 94.099 91.774H86.8741C86.713 90.3335 86.2128 89.0046 85.4586 87.8626C86.5274 86.6785 88.0742 85.9343 89.7948 85.9343ZM65.762 65.2685L66.8956 68.2542C66.9297 68.344 67.009 68.4016 67.1049 68.4063L70.2948 68.5618C70.3947 68.5666 70.477 68.6296 70.5079 68.7247C70.5388 68.8198 70.5093 68.9191 70.4313 68.9818L67.942 70.9825C67.8672 71.0426 67.8369 71.1359 67.8621 71.2285L68.6999 74.3103C68.7261 74.4069 68.6917 74.5045 68.6108 74.5633C68.5299 74.6221 68.4264 74.6246 68.3426 74.5698L65.6706 72.8207C65.5903 72.7681 65.4922 72.7681 65.4119 72.8207L62.7399 74.5698C62.6562 74.6246 62.5526 74.6221 62.4718 74.5633C62.3908 74.5045 62.3564 74.4068 62.3827 74.3103L63.2205 71.2285C63.2457 71.1359 63.2154 71.0426 63.1406 70.9825L60.6513 68.9817C60.5733 68.919 60.5437 68.8198 60.5747 68.7246C60.6055 68.6295 60.6879 68.5666 60.7878 68.5617L63.9776 68.4062C64.0736 68.4016 64.1529 68.3439 64.1869 68.2542L65.3205 65.2685C65.3561 65.175 65.4413 65.1162 65.5413 65.1162C65.6414 65.1162 65.7265 65.175 65.762 65.2685ZM90.6425 65.2685L91.7761 68.2542C91.8102 68.344 91.8895 68.4016 91.9854 68.4063L95.1753 68.5618C95.2752 68.5666 95.3575 68.6296 95.3884 68.7247C95.4193 68.8198 95.3898 68.9191 95.3118 68.9818L92.8225 70.9825C92.7477 71.0426 92.7174 71.1359 92.7426 71.2285L93.5804 74.3103C93.6066 74.4069 93.5722 74.5045 93.4914 74.5633C93.4105 74.6221 93.307 74.6246 93.2232 74.5698L90.5511 72.8207C90.4708 72.7681 90.3727 72.7681 90.2924 72.8207L87.6204 74.5698C87.5368 74.6246 87.4332 74.6221 87.3523 74.5633C87.2713 74.5045 87.237 74.4068 87.2632 74.3103L88.101 71.2285C88.1262 71.1359 88.0959 71.0426 88.0211 70.9825L85.5318 68.9818C85.4538 68.9191 85.4242 68.8198 85.4552 68.7247C85.486 68.6296 85.5684 68.5667 85.6683 68.5618L88.8581 68.4063C88.9541 68.4017 89.0334 68.344 89.0674 68.2542L90.201 65.2685C90.2365 65.175 90.3217 65.1162 90.4218 65.1162C90.5218 65.1162 90.607 65.175 90.6425 65.2685Z" fill="#142653"/>
</g>
<defs>
<filter id="filter0_d_0_298" x="0" y="0" width="156" height="156" filterUnits="userSpaceOnUse" color-interpolation-filters="sRGB">
<feFlood flood-opacity="0" result="BackgroundImageFix"/>
<feColorMatrix in="SourceAlpha" type="matrix" values="0 0 0 0 0 0 0 0 0 0 0 0 0 0 0 0 0 0 127 0" result="hardAlpha"/>
<feOffset/>
<feGaussianBlur stdDeviation="21"/>
<feComposite in2="hardAlpha" operator="out"/>
<feColorMatrix type="matrix" values="0 0 0 0 1 0 0 0 0 0.806525 0 0 0 0 0.554167 0 0 0 0.13 0"/>
<feBlend mode="normal" in2="BackgroundImageFix" result="effect1_dropShadow_0_298"/>
<feBlend mode="normal" in="SourceGraphic" in2="effect1_dropShadow_0_298" result="shape"/>
</filter>
<clipPath id="clip0_0_298">
<rect width="36" height="36" fill="white" transform="translate(60 60)"/>
</clipPath>
</defs>
</svg>
