<svg width="24" height="24" viewBox="0 0 24 24" fill="none" xmlns="http://www.w3.org/2000/svg">
<path fill-rule="evenodd" clip-rule="evenodd" d="M4.36014 5.06057C4.36214 5.06057 4.31214 5.11257 4.24914 5.17457C4.00714 5.40957 3.50614 5.89857 3.50109 6.92157C3.49314 8.35257 4.43414 11.0096 8.96514 15.5396C13.4751 20.0476 16.1281 20.9996 17.5621 20.9996H17.5831C18.6061 20.9946 19.0941 20.4926 19.3301 20.2516C19.4021 20.1776 19.4601 20.1236 19.5011 20.0896C20.4971 19.0876 21.0071 18.3416 21.0022 17.8636C20.9951 17.3756 20.3881 16.7986 19.5491 16.0006C19.2821 15.7466 18.9921 15.4706 18.6861 15.1646C17.8931 14.3736 17.5001 14.5086 16.6361 14.8126C15.4411 15.2316 13.8011 15.8016 11.2531 13.2526C8.70114 10.7026 9.27214 9.06457 9.69014 7.86957C9.99214 7.00557 10.1301 6.61157 9.33614 5.81757C9.02514 5.50757 8.74614 5.21357 8.48914 4.94357C7.69614 4.10957 7.12414 3.50657 6.63914 3.49957H6.63114C6.15214 3.49957 5.40814 4.01157 4.35514 5.06457C4.35814 5.06157 4.36014 5.06057 4.36014 5.06057ZM17.5631 22.4996C15.0711 22.4996 11.8221 20.5156 7.90514 16.6006C3.97314 12.6696 1.98614 9.41057 2.00106 6.91357C2.01014 5.26357 2.87514 4.41857 3.20014 4.10157C3.21714 4.08057 3.27514 4.02357 3.29514 4.00357C4.72914 2.56857 5.69614 1.98857 6.65814 1.99942C7.77514 2.01457 8.57014 2.85057 9.57614 3.90957C9.82514 4.17157 10.0951 4.45657 10.3961 4.75657C11.8561 6.21657 11.4401 7.40757 11.1061 8.36357C10.7421 9.40657 10.4271 10.3066 12.3131 12.1926C14.2011 14.0786 15.1011 13.7636 16.1401 13.3966C17.0971 13.0626 18.2851 12.6446 19.7471 14.1046C20.0431 14.4006 20.3241 14.6676 20.5831 14.9146C21.6471 15.9256 22.4871 16.7246 22.5013 17.8446C22.5131 18.7996 21.9331 19.7726 20.5011 21.2056L19.8671 20.7756L20.4031 21.2996C20.0861 21.6246 19.2421 22.4906 17.5911 22.4996H17.5631Z" fill="white"/>
</svg>
