<svg width="22" height="22" viewBox="0 0 22 22" fill="none" xmlns="http://www.w3.org/2000/svg">
<path fill-rule="evenodd" clip-rule="evenodd" d="M5.93061 6.84687C6.19909 6.57839 6.6344 6.57839 6.90288 6.84687L10.5695 10.5136C10.838 10.7821 10.838 11.2173 10.5695 11.4858L6.90288 15.1524C6.6344 15.4209 6.19909 15.4209 5.93061 15.1524C5.66213 14.884 5.66213 14.4487 5.93061 14.1802L9.11114 10.9997L5.93061 7.81914C5.66213 7.55066 5.66213 7.11535 5.93061 6.84687ZM11.4306 6.84687C11.6991 6.57839 12.1344 6.57839 12.4029 6.84687L16.0695 10.5136C16.338 10.7821 16.338 11.2173 16.0695 11.4858L12.4029 15.1524C12.1344 15.4209 11.6991 15.4209 11.4306 15.1524C11.1621 14.884 11.1621 14.4487 11.4306 14.1802L14.6111 10.9997L11.4306 7.81914C11.1621 7.55066 11.1621 7.11535 11.4306 6.84687Z" fill="white"/>
</svg>
