<svg width="24" height="24" viewBox="0 0 24 24" fill="none" xmlns="http://www.w3.org/2000/svg">
<path fill-rule="evenodd" clip-rule="evenodd" d="M2.84683 6.4094C3.10682 6.08694 3.57898 6.0363 3.90144 6.29629L10.4235 11.5548C11.3675 12.3034 12.7043 12.3037 13.6486 11.5557L20.1142 6.29825C20.4356 6.03692 20.908 6.0856 21.1693 6.40698C21.4306 6.72836 21.382 7.20073 21.0606 7.46205L14.5848 12.7277C13.0934 13.9128 10.9799 13.9127 9.48839 12.7277L9.4842 12.7243L2.95994 7.46401C2.63748 7.20402 2.58684 6.73186 2.84683 6.4094Z" fill="white"/>
<path d="M16.432 20.8504H7.56798C6.89256 20.8598 6.22211 20.7335 5.59636 20.4791C4.9706 20.2248 4.40226 19.8474 3.92498 19.3694C3.37683 18.8023 2.94662 18.1321 2.65928 17.3976C2.37193 16.6631 2.23315 15.8789 2.25098 15.0904V8.91339C2.20703 8.18124 2.31164 7.44776 2.55853 6.75709C2.80542 6.06642 3.18947 5.43283 3.68759 4.89445C4.18571 4.35607 4.78759 3.92402 5.45703 3.62429C6.12647 3.32457 6.84962 3.16337 7.58298 3.15039H16.419C17.1524 3.16337 17.8755 3.32457 18.545 3.62429C19.2144 3.92402 19.8163 4.35607 20.3144 4.89445C20.8125 5.43283 21.1966 6.06642 21.4434 6.75709C21.6903 7.44776 21.795 8.18124 21.751 8.91339V15.0904C21.7683 15.8782 21.6293 16.6617 21.3419 17.3955C21.0546 18.1292 20.6247 18.7988 20.077 19.3654C19.5998 19.8443 19.0313 20.2225 18.4051 20.4776C17.779 20.7327 17.108 20.8595 16.432 20.8504ZM7.58098 19.3504H16.43C16.9091 19.3587 17.385 19.2707 17.8294 19.0915C18.2738 18.9124 18.6777 18.6457 19.017 18.3074C19.4251 17.8793 19.7442 17.3746 19.956 16.8224C20.1678 16.2702 20.2681 15.6816 20.251 15.0904V8.91339C20.251 6.44339 18.64 4.65039 16.419 4.65039H7.58298C5.36198 4.65039 3.75098 6.44339 3.75098 8.91339V15.0904C3.73442 15.6809 3.83493 16.2688 4.04672 16.8203C4.25852 17.3717 4.5774 17.8758 4.98498 18.3034C5.32405 18.6415 5.72758 18.908 6.17163 19.0872C6.61568 19.2664 7.09121 19.3545 7.56998 19.3464L7.58098 19.3504Z" fill="white"/>
</svg>
