<svg width="164" height="164" viewBox="0 0 164 164" fill="none" xmlns="http://www.w3.org/2000/svg">
<g filter="url(#filter0_d_0_158)">
<circle cx="82" cy="82" r="40" fill="white"/>
<circle cx="82" cy="82" r="39.5" stroke="#FFA32B" stroke-opacity="0.2"/>
</g>
<g clip-path="url(#clip0_0_158)">
<path d="M99.9182 90.8534C99.4238 89.3976 98.4502 85.1822 93.6238 84.1623L94.2866 83.9869C95.8506 83.5725 96.9423 82.1536 96.9423 80.5352V79.8725C97.182 79.7486 97.3526 79.5288 97.4204 79.2612C98.7237 79.2343 99.7744 78.1742 99.7744 76.8644C99.7744 75.5547 98.7236 74.4946 97.4204 74.4677C97.3549 74.2128 97.1971 74.0049 96.9739 73.878C97.0533 72.93 96.8558 71.6624 96.3087 70.4544C96.0445 69.9067 95.7184 69.3212 95.259 68.784C91.3738 63.831 82.6797 65.3481 81.2245 72.0194C81.2221 72.0294 81.2221 72.0375 81.2198 72.0468C81.6312 72.4016 82.004 72.7635 82.2893 73.1292C82.3022 73.1444 82.3116 73.1596 82.3244 73.1748C84.426 65.988 94.6466 66.348 95.916 73.965C95.6997 74.1404 95.5536 74.3969 95.5536 74.6967V79.0331C95.5536 79.3207 95.6881 79.5709 95.8891 79.7462C95.9195 79.7713 95.9534 79.7895 95.9861 79.811V80.5352C95.9861 83.1313 93.1668 83.2944 90.6538 83.96C90.0308 83.2872 88.9308 83.7303 88.9308 84.6315C88.9308 85.7682 90.5556 86.0289 90.8711 84.8916C92.109 84.5637 91.7712 84.6532 92.5438 84.4487C92.3217 84.5988 92.0926 84.7333 91.8577 84.8554C91.6333 86.7787 89.0559 87.237 88.1874 85.4971C87.3681 85.3815 86.5918 85.0927 85.8754 84.6695C85.4335 85.0623 84.8958 85.3493 84.3032 85.4877C84.2892 85.506 84.2752 85.5234 84.26 85.541C84.26 86.7361 83.914 87.7584 83.1905 88.6531C84.8153 89.6373 86.1349 91.0855 86.9566 92.8663H98.4758C99.5209 92.8663 100.253 91.8389 99.9182 90.8534Z" fill="#142653"/>
<path d="M88.2903 83.5766C88.6387 83.0384 89.2406 82.6795 89.9267 82.6795C90.3779 82.6795 90.7882 82.8391 91.1178 83.0963C93.1072 82.001 94.5063 79.395 94.5063 76.3519C94.5063 72.321 92.0528 69.054 89.0254 69.054C86.267 69.054 83.99 71.7734 83.609 75.3092C83.8229 75.8194 84.0005 76.3471 84.1209 76.8942C84.2518 77.5137 84.281 77.9035 84.3068 78.4886C85.8964 78.8626 87.0922 80.3008 87.0922 81.9876C87.0922 82.3704 87.0232 82.7368 86.9099 83.0845C87.3436 83.3266 87.8077 83.4902 88.2903 83.5766Z" fill="#142653"/>
<path d="M81.7142 89.8599C80.8878 90.297 80.5828 90.3017 77.4233 91.1392C76.4823 92.0708 74.9103 91.8265 74.3082 90.6202C73.1019 90.4489 71.9822 89.9196 71.0225 89.1123C68.1015 89.5151 65.6059 91.5225 64.6381 94.3735C64.1858 95.7042 63.6621 96.5434 64.2875 97.4143C65.0403 98.4674 64.9876 98.0606 84.7485 98.0606C85.8076 98.0606 86.5532 97.0151 86.2143 96.0157C85.6311 94.2981 84.9848 91.4946 81.7142 89.8599Z" fill="#142653"/>
<path d="M74.4111 88.6993C74.8612 88.0055 75.7015 87.6269 76.5993 87.8916L78.2965 87.4416C80.8505 85.0466 80.4787 82.0414 80.4787 79.8118C79.1965 72.507 71.1336 72.3106 69.8163 79.8118C69.8163 91.7811 69.8175 71.175 69.8175 83.1443C70.3306 86.0577 72.1505 88.2943 74.4111 88.6993Z" fill="#142653"/>
<path d="M66.7563 84.3844C66.8603 84.7983 67.2179 85.1116 67.6645 85.1116C68.1928 85.1116 68.6206 84.6837 68.6206 84.1566V79.8202C68.6206 79.5197 68.4732 79.2631 68.2571 79.0879C68.4968 77.5952 69.2974 76.1177 70.2933 75.1382C71.7555 73.5814 74.2032 72.6825 76.992 73.3605C78.065 73.71 79.1217 74.198 80.0019 75.1382C80.9814 76.0991 81.7774 77.5409 82.0369 79.0884C81.4723 79.5461 81.6745 79.9411 81.6745 84.1567C81.6745 84.4863 81.8522 84.7634 82.1071 84.9346V85.6593C82.1071 88.17 79.6302 88.3267 76.7759 89.0835C76.1529 88.4108 75.0517 88.8538 75.0517 89.7551C75.0517 90.8918 76.6776 91.153 76.9932 90.0151C79.9482 89.2325 83.0632 88.9369 83.0632 85.6593V84.996C83.3029 84.8721 83.4735 84.6523 83.54 84.3841C84.8458 84.3578 85.8953 83.2971 85.8953 81.9879C85.8953 80.6788 84.8457 79.6186 83.54 79.5917C83.4758 79.337 83.318 79.1282 83.0948 79.0008C83.1438 78.4263 83.0725 77.7216 82.9498 77.143C82.8446 76.666 82.6809 76.1336 82.4308 75.5778C82.1655 75.0302 81.8393 74.4446 81.3799 73.908C80.9452 73.3517 80.3841 72.8443 79.7505 72.3978C74.2299 68.5727 66.6066 73.0975 67.1992 79.002C66.9771 79.1294 66.8205 79.3375 66.7563 79.5911C65.4495 79.6167 64.3986 80.6776 64.3986 81.9878C64.3986 83.2981 65.4495 84.3594 66.7563 84.3844Z" fill="#142653"/>
</g>
<defs>
<filter id="filter0_d_0_158" x="0" y="0" width="164" height="164" filterUnits="userSpaceOnUse" color-interpolation-filters="sRGB">
<feFlood flood-opacity="0" result="BackgroundImageFix"/>
<feColorMatrix in="SourceAlpha" type="matrix" values="0 0 0 0 0 0 0 0 0 0 0 0 0 0 0 0 0 0 127 0" result="hardAlpha"/>
<feOffset/>
<feGaussianBlur stdDeviation="21"/>
<feComposite in2="hardAlpha" operator="out"/>
<feColorMatrix type="matrix" values="0 0 0 0 1 0 0 0 0 0.806525 0 0 0 0 0.554167 0 0 0 0.13 0"/>
<feBlend mode="normal" in2="BackgroundImageFix" result="effect1_dropShadow_0_158"/>
<feBlend mode="normal" in="SourceGraphic" in2="effect1_dropShadow_0_158" result="shape"/>
</filter>
<clipPath id="clip0_0_158">
<rect width="36" height="36" fill="white" transform="translate(64 64)"/>
</clipPath>
</defs>
</svg>
