<svg width="164" height="164" viewBox="0 0 164 164" fill="none" xmlns="http://www.w3.org/2000/svg">
<g filter="url(#filter0_d_0_140)">
<circle cx="82" cy="82" r="40" fill="white"/>
<circle cx="82" cy="82" r="39.5" stroke="#FFA32B" stroke-opacity="0.2"/>
</g>
<path d="M79.5265 77.5096C77.624 77.5096 76.0764 75.9613 76.0764 74.0581C76.0764 72.1556 77.624 70.608 79.5265 70.608C81.4297 70.608 82.9781 72.1556 82.9781 74.0581C82.9781 75.9612 81.4297 77.5096 79.5265 77.5096ZM86.3591 86.5386C86.2537 86.1333 86.1972 85.7087 86.1972 85.2708C86.1972 85.2003 86.1988 85.1297 86.2017 85.06C85.2308 85.8765 84.1145 86.5096 82.9113 86.9253C82.8971 86.9305 82.883 86.9357 82.8682 86.9395C82.3961 87.1013 81.9099 87.2289 81.4148 87.321C80.7891 87.4375 80.1574 87.4946 79.528 87.4946C78.3945 87.4946 77.2685 87.3083 76.1952 86.9439C76.1692 86.935 76.1424 86.926 76.1165 86.9164C75.5048 86.7033 74.911 86.4324 74.3432 86.1044C73.5949 85.6723 72.921 85.161 72.3256 84.5864C72.3249 84.5857 72.3242 84.5857 72.3242 84.585C72.3064 84.5679 72.2893 84.5508 72.2714 84.5345C68.9728 81.3033 68.1347 76.1238 70.5472 71.9426C71.9107 69.5814 74.1071 67.8764 76.7326 67.1423C79.0774 66.4861 81.5306 66.6694 83.7292 67.6492V66.2835V65.1768C78.0316 63.1637 71.6191 65.4908 68.5565 70.7943C65.4167 76.233 66.7825 83.0574 71.4877 86.9157C71.7549 87.1354 72.0332 87.3454 72.322 87.5444L70.5569 90.5795L70.1286 90.3323L70.0952 90.313L70.0856 90.3071L69.7456 90.1112C69.6943 90.0815 69.6372 90.0666 69.5786 90.0666C69.5482 90.0666 69.5185 90.0703 69.4888 90.0785C69.4012 90.1015 69.3277 90.1579 69.2832 90.2358L65.8028 96.2609C65.1228 97.4403 65.5281 98.9538 66.7068 99.6337C67.095 99.8579 67.5196 99.9648 67.939 99.9648C68.7933 99.9648 69.6247 99.5217 70.0827 98.7297L73.5602 92.7061C73.6055 92.6282 73.6166 92.5369 73.5929 92.4486C73.5699 92.3603 73.5142 92.2867 73.437 92.2422L73.0755 92.0336L73.054 92.021L72.617 91.7687L74.3849 88.7023C74.7048 88.8456 75.0299 88.9747 75.3588 89.0898C76.6919 89.5559 78.0925 89.795 79.5118 89.795C79.8325 89.795 80.1547 89.7824 80.4768 89.7579C82.7385 89.5857 84.8896 88.8218 86.7393 87.5407C86.5781 87.2245 86.4504 86.889 86.3591 86.5386ZM77.7547 78.5466C75.2288 78.5466 73.1734 80.6019 73.1734 83.1287V83.9637C73.6818 84.4343 74.2475 84.8515 74.8621 85.2063C75.1716 85.3851 75.4871 85.5447 75.8077 85.6843V83.2489C75.8077 82.9624 76.0393 82.7301 76.3259 82.7301C76.6124 82.7301 76.8447 82.9624 76.8447 83.2489V86.0673C78.6165 86.6047 80.4811 86.5943 82.2076 86.0762V83.249C82.2076 82.9624 82.44 82.7301 82.7265 82.7301C83.0129 82.7301 83.2453 82.9624 83.2453 83.249V85.6962C84.1991 85.2813 85.0921 84.7008 85.8796 83.9645V83.1287C85.8796 80.602 83.8243 78.5467 81.2983 78.5467H77.7547V78.5466ZM84.7662 70.9799V64.3751C84.7662 64.1806 84.8946 64.0352 85.0096 64.0352H97.7121C97.8257 64.0352 97.9526 64.1806 97.9526 64.3751V70.9799C97.9526 71.1743 97.8257 71.3198 97.7121 71.3198H90.1417C90.0021 71.3198 89.8678 71.3755 89.7706 71.4757L88.2749 73.0048L88.2482 73.0323L87.451 73.8466V71.838C87.451 71.5515 87.2195 71.3199 86.9329 71.3199H85.0096C84.8946 71.3198 84.7662 71.1743 84.7662 70.9799ZM86.4312 65.6711C86.4312 65.9576 86.6628 66.19 86.9493 66.19H95.7697C96.0562 66.19 96.2885 65.9576 96.2885 65.6711C96.2885 65.3846 96.0562 65.1523 95.7697 65.1523H86.9492C86.6627 65.1523 86.4312 65.3846 86.4312 65.6711ZM86.4312 67.676C86.4312 67.9625 86.6628 68.1948 86.9493 68.1948H95.7697C96.0562 68.1948 96.2885 67.9625 96.2885 67.676C96.2885 67.3895 96.0562 67.1579 95.7697 67.1579H86.9492C86.6627 67.1579 86.4312 67.3895 86.4312 67.676ZM86.4312 69.6839C86.4312 69.9704 86.6628 70.2019 86.9493 70.2019H91.6419C91.9284 70.2019 92.16 69.9703 92.16 69.6839C92.16 69.3973 91.9284 69.1649 91.6419 69.1649H86.9493C86.6627 69.165 86.4312 69.3973 86.4312 69.6839ZM93.2452 90.3027H89.2132C86.3019 90.3027 83.9334 92.672 83.9334 95.5847V99.5648H87.0702V95.7213C87.0702 95.4347 87.3026 95.2031 87.5891 95.2031C87.8757 95.2031 88.108 95.4347 88.108 95.7213V99.5648H94.3505V95.7213C94.3505 95.4347 94.5828 95.2031 94.8693 95.2031C95.1558 95.2031 95.3881 95.4347 95.3881 95.7213V99.5648H98.5272V95.5847C98.5272 92.672 96.1579 90.3027 93.2452 90.3027ZM87.2342 85.2708C87.2342 85.7266 87.3106 86.1645 87.4518 86.572C87.9929 88.1374 89.4818 89.265 91.2292 89.265C93.433 89.265 95.2256 87.4731 95.2256 85.2708C95.2256 83.0678 93.433 81.2759 91.2292 81.2759C89.0268 81.2759 87.2342 83.0678 87.2342 85.2708ZM90.7274 80.2642C90.8922 80.2472 91.0599 80.239 91.2292 80.239C91.4222 80.239 91.6122 80.2501 91.7993 80.2716C92.4769 77.6432 92.2884 74.8819 91.2603 72.3567H90.3593L90.2026 72.5163L89.2399 73.5013C90.1099 75.8306 90.1172 78.3358 89.2889 80.6279C89.7387 80.4393 90.2219 80.314 90.7274 80.2642Z" fill="#142653"/>
<defs>
<filter id="filter0_d_0_140" x="0" y="0" width="164" height="164" filterUnits="userSpaceOnUse" color-interpolation-filters="sRGB">
<feFlood flood-opacity="0" result="BackgroundImageFix"/>
<feColorMatrix in="SourceAlpha" type="matrix" values="0 0 0 0 0 0 0 0 0 0 0 0 0 0 0 0 0 0 127 0" result="hardAlpha"/>
<feOffset/>
<feGaussianBlur stdDeviation="21"/>
<feComposite in2="hardAlpha" operator="out"/>
<feColorMatrix type="matrix" values="0 0 0 0 1 0 0 0 0 0.806525 0 0 0 0 0.554167 0 0 0 0.13 0"/>
<feBlend mode="normal" in2="BackgroundImageFix" result="effect1_dropShadow_0_140"/>
<feBlend mode="normal" in="SourceGraphic" in2="effect1_dropShadow_0_140" result="shape"/>
</filter>
</defs>
</svg>
