<svg width="164" height="164" viewBox="0 0 164 164" fill="none" xmlns="http://www.w3.org/2000/svg">
<g filter="url(#filter0_d_0_149)">
<circle cx="82" cy="82" r="40" fill="white"/>
<circle cx="82" cy="82" r="39.5" stroke="#FFA32B" stroke-opacity="0.2"/>
</g>
<path d="M86.95 80.6781H92.582C98.8328 80.5585 100.345 72.1632 94.6703 69.8007C89.1297 67.6773 84.5313 74.2867 88.3281 78.7304C87.8711 79.3773 87.407 80.0312 86.95 80.6781ZM95.1555 74.0124C96.5125 74.0476 96.5125 76.0374 95.1555 76.0726C93.7914 76.0374 93.7914 74.0476 95.1555 74.0124ZM92.5891 74.0124C93.9461 74.0476 93.9461 76.0374 92.5891 76.0726C91.225 76.0374 91.225 74.0476 92.5891 74.0124ZM90.0156 74.0124C91.3727 74.0476 91.3727 76.0374 90.0156 76.0726C88.6586 76.0374 88.6586 74.0476 90.0156 74.0124ZM71.0734 79.7781H78.0977C77.5281 78.9695 76.9516 78.1609 76.382 77.3523C81.1422 71.8187 75.3414 63.5429 68.4648 66.2077C61.3844 69.1257 63.2898 79.6515 71.0734 79.7781ZM74.2797 71.5585C75.8477 71.6007 75.8477 73.8929 74.2797 73.9351C72.7117 73.8859 72.7117 71.6007 74.2797 71.5585ZM71.0734 71.5585C72.6414 71.6007 72.6414 73.8929 71.0734 73.9351C69.5125 73.8929 69.5055 71.5937 71.0734 71.5585ZM67.8672 71.5585C69.4281 71.6007 69.4281 73.8929 67.8672 73.9351C66.2992 73.8859 66.2992 71.6007 67.8672 71.5585ZM91.0844 95.971C91.0844 97.2577 90.0438 98.2984 88.757 98.2984H75.5594C74.2727 98.2984 73.232 97.2577 73.232 95.971V94.6351C73.232 91.0492 75.8617 88.0257 79.3633 87.4913C80.8258 88.8765 83.4977 88.8765 84.9531 87.4913C88.4617 88.0257 91.0844 91.0492 91.0844 94.6351V95.971ZM82.1547 79.5249C84.1445 79.5249 85.7617 81.1421 85.7617 83.132C85.8039 86.1976 82.0141 87.8781 79.7781 85.839C77.3031 83.7085 78.843 79.5038 82.1547 79.5249ZM73.5484 98.3054H66.2922C65.2305 98.3054 64.3797 97.4476 64.3797 96.3929V95.289C64.3797 92.3077 66.5664 89.8398 69.4211 89.4109C70.6164 90.557 72.8242 90.557 74.0195 89.4109C74.1391 89.432 74.2516 89.4531 74.3641 89.4812C73.1406 90.9226 72.4656 92.7367 72.4656 94.6421V95.9781C72.4797 96.9062 72.8945 97.7429 73.5484 98.3054ZM71.7274 82.8507C73.3656 82.8507 74.6945 84.1796 74.6945 85.8179C74.7297 88.3421 71.6149 89.7273 69.7727 88.0468C67.7336 86.296 68.9992 82.8367 71.7274 82.8507ZM99.9297 95.289V96.3929C99.9297 97.4546 99.0719 98.3054 98.0102 98.3054H90.7609C91.4149 97.7429 91.8297 96.9062 91.8297 95.9781V94.6421C91.8297 92.7367 91.1547 90.9156 89.9313 89.4742C90.0438 89.4531 90.1633 89.4249 90.2758 89.4109C91.4781 90.557 93.6789 90.557 94.8742 89.4109C97.743 89.8468 99.9297 92.3077 99.9297 95.289ZM92.582 82.8507C94.2203 82.8507 95.5492 84.1796 95.5492 85.8179C95.5844 88.3421 92.4695 89.7273 90.6274 88.0468C88.5953 86.296 89.8609 82.8367 92.582 82.8507Z" fill="#142653"/>
<defs>
<filter id="filter0_d_0_149" x="0" y="0" width="164" height="164" filterUnits="userSpaceOnUse" color-interpolation-filters="sRGB">
<feFlood flood-opacity="0" result="BackgroundImageFix"/>
<feColorMatrix in="SourceAlpha" type="matrix" values="0 0 0 0 0 0 0 0 0 0 0 0 0 0 0 0 0 0 127 0" result="hardAlpha"/>
<feOffset/>
<feGaussianBlur stdDeviation="21"/>
<feComposite in2="hardAlpha" operator="out"/>
<feColorMatrix type="matrix" values="0 0 0 0 1 0 0 0 0 0.806525 0 0 0 0 0.554167 0 0 0 0.13 0"/>
<feBlend mode="normal" in2="BackgroundImageFix" result="effect1_dropShadow_0_149"/>
<feBlend mode="normal" in="SourceGraphic" in2="effect1_dropShadow_0_149" result="shape"/>
</filter>
</defs>
</svg>
