<svg width="98" height="98" viewBox="0 0 98 98" fill="none" xmlns="http://www.w3.org/2000/svg">
<path d="M2.84998 19.49L0 16.65L16.67 0L19.52 2.84001L2.84998 19.49Z" fill="#4AB9BB" fill-opacity="0.06"/>
<path d="M16.67 19.49L0 2.84001L2.84998 0L19.52 16.65L16.67 19.49Z" fill="#4AB9BB" fill-opacity="0.06"/>
<path d="M41.74 58.3198L38.9 55.4798L55.5699 38.8398L58.41 41.6798L41.74 58.3198Z" fill="#4AB9BB" fill-opacity="0.06"/>
<path d="M55.5699 58.3198L38.9 41.6798L41.74 38.8398L58.41 55.4798L55.5699 58.3198Z" fill="#4AB9BB" fill-opacity="0.06"/>
<path d="M2.84998 97.1599L0 94.3199L16.67 77.6699L19.52 80.5099L2.84998 97.1599Z" fill="#4AB9BB" fill-opacity="0.06"/>
<path d="M16.67 97.1599L0 80.5099L2.84998 77.6699L19.52 94.3199L16.67 97.1599Z" fill="#4AB9BB" fill-opacity="0.06"/>
<path d="M80.64 19.49L77.79 16.65L94.46 0L97.3099 2.84001L80.64 19.49Z" fill="#4AB9BB" fill-opacity="0.06"/>
<path d="M94.46 19.49L77.79 2.84001L80.64 0L97.3099 16.65L94.46 19.49Z" fill="#4AB9BB" fill-opacity="0.06"/>
<path d="M80.64 97.1599L77.79 94.3199L94.46 77.6699L97.3099 80.5099L80.64 97.1599Z" fill="#4AB9BB" fill-opacity="0.06"/>
<path d="M94.46 97.1599L77.79 80.5099L80.64 77.6699L97.3099 94.3199L94.46 97.1599Z" fill="#4AB9BB" fill-opacity="0.06"/>
</svg>
