<svg width="20" height="20" viewBox="0 0 20 20" fill="none" xmlns="http://www.w3.org/2000/svg">
<path fill-rule="evenodd" clip-rule="evenodd" d="M17.9043 5.8137C17.3368 4.41286 16.2426 3.39203 14.8251 2.93703C14.0509 2.68536 13.2118 2.62786 12.3993 2.76453C11.6551 2.8887 10.9809 3.33453 10.4143 3.7487C9.86758 3.35203 9.17675 2.8987 8.42925 2.77286C7.62338 2.6362 6.78588 2.69286 6.00505 2.93703C2.89672 3.94286 1.93922 7.34453 2.80838 10.0487C4.16172 14.392 9.99092 17.1528 10.2384 17.2687C10.2943 17.2945 10.3543 17.3078 10.4151 17.3078C10.4743 17.3078 10.5351 17.2945 10.5909 17.2687C10.8343 17.1553 16.5776 14.442 18.0118 10.0545L18.0126 10.0528C18.4718 8.62283 18.4326 7.11703 17.9043 5.8137Z" fill="white"/>
</svg>
