<svg width="20" height="20" viewBox="0 0 20 20" fill="none" xmlns="http://www.w3.org/2000/svg">
<path fill-rule="evenodd" clip-rule="evenodd" d="M14.1733 2.5H13.125C12.78 2.5 12.5 2.78 12.5 3.125C12.5 3.47 12.78 3.75 13.125 3.75H14.1733C15.6167 3.75 16.7925 4.925 16.7925 6.36917V7.68333C16.7925 8.02833 17.0725 8.30833 17.4175 8.30833C17.7625 8.30833 18.0425 8.02833 18.0425 7.68333V6.36917C18.0425 4.23583 16.3067 2.5 14.1733 2.5Z" fill="white"/>
<path fill-rule="evenodd" clip-rule="evenodd" d="M2.49976 7.93431C2.84476 7.93431 3.12476 7.65431 3.12476 7.30931V5.99514C3.12476 4.55098 4.29976 3.37598 5.74392 3.37598H6.81809C7.16309 3.37598 7.44309 3.09598 7.44309 2.75098C7.44309 2.40598 7.16309 2.12598 6.81809 2.12598H5.74392C3.61059 2.12598 1.87476 3.86181 1.87476 5.99514V7.30931C1.87476 7.65431 2.15476 7.93431 2.49976 7.93431Z" fill="white"/>
<path fill-rule="evenodd" clip-rule="evenodd" d="M6.79179 17.1259H5.74346C4.30012 17.1259 3.12512 15.9509 3.12512 14.5075V13.1934C3.12512 12.8484 2.84512 12.5684 2.50012 12.5684C2.15512 12.5684 1.87512 12.8484 1.87512 13.1934V14.5075C1.87512 16.64 3.61096 18.3759 5.74346 18.3759H6.79179C7.13679 18.3759 7.41679 18.0959 7.41679 17.7509C7.41679 17.4059 7.13679 17.1259 6.79179 17.1259Z" fill="white"/>
<path fill-rule="evenodd" clip-rule="evenodd" d="M17.4997 12.5684C17.1547 12.5684 16.8747 12.8484 16.8747 13.1934V14.5075C16.8747 15.9517 15.7005 17.1259 14.2563 17.1259H13.1813C12.8363 17.1259 12.5563 17.4059 12.5563 17.7509C12.5563 18.0959 12.8363 18.3759 13.1813 18.3759H14.2563C16.3897 18.3759 18.1247 16.6409 18.1247 14.5075V13.1934C18.1247 12.8484 17.8447 12.5684 17.4997 12.5684Z" fill="white"/>
<path fill-rule="evenodd" clip-rule="evenodd" d="M9.99975 6.73535C8.06226 6.73535 6.4856 8.31202 6.4856 10.2503C6.4856 12.1887 8.06226 13.7653 9.99975 13.7653C11.9381 13.7653 13.5148 12.1887 13.5148 10.2503C13.5148 8.31202 11.9381 6.73535 9.99975 6.73535Z" fill="white"/>
</svg>
