<svg width="20" height="20" viewBox="0 0 20 20" fill="none" xmlns="http://www.w3.org/2000/svg">
<path d="M17.8629 2.15198C17.4461 1.72416 16.8291 1.56477 16.2539 1.73255L2.84008 5.63326C2.23316 5.80187 1.80299 6.2859 1.68711 6.90079C1.56872 7.52658 1.98223 8.32098 2.52245 8.65317L6.71667 11.231C7.14684 11.4952 7.70207 11.429 8.05805 11.0699L12.8608 6.23724C13.1026 5.98558 13.5028 5.98558 13.7445 6.23724C13.9863 6.48051 13.9863 6.87478 13.7445 7.12644L8.93341 11.96C8.57659 12.3182 8.5099 12.876 8.77251 13.3089L11.3352 17.5451C11.6353 18.0484 12.1522 18.3337 12.7191 18.3337C12.7858 18.3337 12.8608 18.3337 12.9275 18.3253C13.5778 18.2414 14.0947 17.7968 14.2864 17.1676L18.2631 3.77098C18.4381 3.20056 18.2797 2.5798 17.8629 2.15198Z" fill="white"/>
</svg>
