<svg width="20" height="20" viewBox="0 0 20 20" fill="none" xmlns="http://www.w3.org/2000/svg">
<path fill-rule="evenodd" clip-rule="evenodd" d="M11.3054 17.9163H10.3312C9.27788 17.9163 8.42121 17.0605 8.42121 16.008C8.41954 15.833 8.37038 15.6588 8.28035 15.5072C8.12868 15.2463 7.89868 15.0713 7.62452 14.9988C7.35119 14.9255 7.06535 14.9655 6.82035 15.108C5.87952 15.6263 4.71535 15.2905 4.20785 14.3688L3.72868 13.543C3.71952 13.5288 3.71035 13.5147 3.70368 13.4997C3.46202 13.0797 3.39618 12.568 3.52952 12.0788C3.66202 11.5888 3.97785 11.1805 4.41785 10.928C4.74868 10.7372 4.95535 10.3805 4.95535 9.99801C4.95535 9.61468 4.74868 9.25634 4.41702 9.06467C3.50785 8.53967 3.19452 7.37134 3.71868 6.46134L4.24452 5.59551C4.76535 4.69467 5.93368 4.38051 6.84368 4.90384C7.00118 4.99717 7.17618 5.04634 7.35285 5.04801H7.35618C7.93868 5.04801 8.42038 4.57217 8.42788 3.98717C8.42788 2.93551 9.28038 2.08301 10.3279 2.08301H11.3054C12.4179 2.11884 13.2462 3.00217 13.2145 4.05384C13.2162 4.21384 13.2654 4.38884 13.3562 4.54301C13.5054 4.79467 13.737 4.96801 14.012 5.03884C14.2887 5.11051 14.5754 5.06801 14.8204 4.92301C15.7362 4.39884 16.9037 4.71134 17.4287 5.61967L17.4295 5.62044L17.9145 6.46301C17.9237 6.47967 17.932 6.49634 17.9387 6.51384C18.4212 7.41301 18.1037 8.54801 17.2162 9.06384C17.052 9.15884 16.9162 9.29467 16.822 9.45801C16.6745 9.71884 16.6387 10.0055 16.7129 10.2797C16.7879 10.5538 16.9654 10.783 17.2129 10.9238C17.2195 10.9272 17.2262 10.9313 17.2329 10.9355C17.6704 11.1913 17.9812 11.6022 18.1095 12.0913C18.2379 12.5822 18.1679 13.093 17.9129 13.5305L17.397 14.393C16.8745 15.2963 15.7054 15.6097 14.7962 15.0855C14.6395 14.998 14.4595 14.9472 14.2795 14.943C13.9879 14.9447 13.722 15.0572 13.5212 15.2597C13.3212 15.463 13.2129 15.7305 13.2145 16.0147C13.207 17.0663 12.3512 17.9163 11.3054 17.9163ZM10.8201 7.94241C11.956 7.94241 12.8768 8.86326 12.8768 9.99909C12.8768 11.1349 11.956 12.0549 10.8201 12.0549C9.68429 12.0549 8.76429 11.1349 8.76429 9.99909C8.76429 8.86326 9.68429 7.94241 10.8201 7.94241Z" fill="white"/>
</svg>
