<svg width="20" height="20" viewBox="0 0 20 20" fill="none" xmlns="http://www.w3.org/2000/svg">
<path fill-rule="evenodd" clip-rule="evenodd" d="M16.8304 4.50695C16.6387 4.22028 16.2487 4.14278 15.9629 4.33611C15.6762 4.52778 15.5996 4.91611 15.7921 5.20361C17.7179 8.07611 17.7179 11.9345 15.7921 14.8045C15.5996 15.0911 15.6762 15.4795 15.9629 15.672C16.0696 15.7436 16.1904 15.7778 16.3104 15.7778C16.5121 15.7778 16.7096 15.6811 16.8304 15.5011C19.0354 12.2153 19.0354 7.79695 16.8304 4.50695Z" fill="white"/>
<path fill-rule="evenodd" clip-rule="evenodd" d="M13.9703 6.34372C13.6678 6.50955 13.5578 6.89039 13.7253 7.19289C14.6837 8.93042 14.6837 11.0846 13.7253 12.8154C13.5578 13.1171 13.6678 13.4971 13.9695 13.6646C14.0653 13.7179 14.1695 13.7429 14.272 13.7429C14.4912 13.7429 14.7045 13.6263 14.8195 13.4204C15.9837 11.3179 15.9845 8.69959 14.8195 6.58872C14.652 6.28622 14.272 6.17705 13.9703 6.34372Z" fill="white"/>
<path fill-rule="evenodd" clip-rule="evenodd" d="M8.52018 4.48932C7.09851 3.64348 5.79097 4.64765 4.83597 5.37848C4.4443 5.67848 4.0743 5.96182 3.79347 6.05432C3.4118 6.17932 3.08264 6.21932 2.76347 6.25765C2.20764 6.32348 1.63347 6.39182 1.0043 6.92598C-0.00319789 7.78182 -0.0015312 9.13849 0.000135464 10.2285C-0.0015312 11.3177 -0.00319799 12.6743 1.00514 13.531C1.63347 14.0643 2.20764 14.1327 2.76347 14.1985C3.08264 14.2368 3.4118 14.2768 3.79347 14.4027C4.0743 14.4952 4.44347 14.7785 4.83514 15.0777C5.52764 15.6085 6.40601 16.281 7.39101 16.281C7.76351 16.281 8.15101 16.1852 8.54934 15.9485C9.68768 15.1393 10.091 13.6418 10.091 10.2285C10.091 6.76932 9.70184 5.32598 8.52018 4.48932Z" fill="white"/>
</svg>
