<svg width="24" height="24" viewBox="0 0 24 24" fill="none" xmlns="http://www.w3.org/2000/svg">
<path fill-rule="evenodd" clip-rule="evenodd" d="M4.36014 5.06051C4.36214 5.06051 4.31214 5.11251 4.24914 5.17451C4.00714 5.40951 3.50614 5.89851 3.50109 6.92151C3.49314 8.35251 4.43414 11.0095 8.96514 15.5395C13.4751 20.0475 16.1281 20.9995 17.5621 20.9995H17.5831C18.6061 20.9945 19.0941 20.4925 19.3301 20.2515C19.4021 20.1775 19.4601 20.1235 19.5011 20.0895C20.4971 19.0875 21.0071 18.3415 21.0022 17.8635C20.9951 17.3755 20.3881 16.7985 19.5491 16.0005C19.2821 15.7465 18.9921 15.4705 18.6861 15.1645C17.8931 14.3735 17.5001 14.5085 16.6361 14.8125C15.4411 15.2315 13.8011 15.8015 11.2531 13.2525C8.70114 10.7025 9.27214 9.06451 9.69014 7.86951C9.99214 7.00551 10.1301 6.61151 9.33614 5.81751C9.02514 5.50751 8.74614 5.21351 8.48914 4.94351C7.69614 4.10951 7.12414 3.50651 6.63914 3.49951H6.63114C6.15214 3.49951 5.40814 4.01151 4.35514 5.06451C4.35814 5.06151 4.36014 5.06051 4.36014 5.06051ZM17.5631 22.4995C15.0711 22.4995 11.8221 20.5155 7.90514 16.6005C3.97314 12.6695 1.98614 9.41051 2.00106 6.91351C2.01014 5.26351 2.87514 4.41851 3.20014 4.10151C3.21714 4.08051 3.27514 4.02351 3.29514 4.00351C4.72914 2.56851 5.69614 1.98851 6.65814 1.99936C7.77514 2.01451 8.57014 2.85051 9.57614 3.90951C9.82514 4.17151 10.0951 4.45651 10.3961 4.75651C11.8561 6.21651 11.4401 7.40751 11.1061 8.36351C10.7421 9.40651 10.4271 10.3065 12.3131 12.1925C14.2011 14.0785 15.1011 13.7635 16.1401 13.3965C17.0971 13.0625 18.2851 12.6445 19.7471 14.1045C20.0431 14.4005 20.3241 14.6675 20.5831 14.9145C21.6471 15.9255 22.4871 16.7245 22.5013 17.8445C22.5131 18.7995 21.9331 19.7725 20.5011 21.2055L19.8671 20.7755L20.4031 21.2995C20.0861 21.6245 19.2421 22.4905 17.5911 22.4995H17.5631Z" fill="white"/>
</svg>
