<svg width="24" height="24" viewBox="0 0 24 24" fill="none" xmlns="http://www.w3.org/2000/svg">
<g clip-path="url(#clip0_0_264)">
<path d="M23.7148 12.2242C23.7148 11.2409 23.635 10.5234 23.4623 9.7793H12.2344V14.2173H18.8249C18.6921 15.3202 17.9746 16.9811 16.3801 18.0972L16.3577 18.2458L19.9078 20.996L20.1537 21.0205C22.4126 18.9344 23.7148 15.8649 23.7148 12.2242Z" fill="#4285F4"/>
<path d="M12.234 23.9178C15.4628 23.9178 18.1734 22.8548 20.1533 21.0211L16.3797 18.0978C15.3698 18.8021 14.0145 19.2937 12.234 19.2937C9.07158 19.2937 6.38751 17.2076 5.43072 14.3242L5.29048 14.3361L1.59906 17.193L1.55078 17.3271C3.51732 21.2337 7.55674 23.9178 12.234 23.9178Z" fill="#34A853"/>
<path d="M5.4309 14.3248C5.17844 13.5807 5.03234 12.7834 5.03234 11.9596C5.03234 11.1357 5.17844 10.3385 5.41762 9.59439L5.41093 9.43592L1.67325 6.5332L1.55096 6.59137C0.740459 8.21247 0.275391 10.0329 0.275391 11.9596C0.275391 13.8863 0.740459 15.7066 1.55096 17.3277L5.4309 14.3248Z" fill="#FBBC05"/>
<path d="M12.234 4.62403C14.4795 4.62403 15.9943 5.59401 16.858 6.40461L20.233 3.10928C18.1602 1.1826 15.4628 0 12.234 0C7.55674 0 3.51732 2.68406 1.55078 6.59056L5.41744 9.59359C6.38751 6.7102 9.07157 4.62403 12.234 4.62403Z" fill="#EB4335"/>
</g>
<defs>
<clipPath id="clip0_0_264">
<rect width="24" height="24" fill="white"/>
</clipPath>
</defs>
</svg>
