<svg width="197" height="90" viewBox="0 0 197 90" fill="none" xmlns="http://www.w3.org/2000/svg">
<path d="M72.3623 59.8698C71.9704 59.8698 71.5946 59.7117 71.3175 59.4304C71.0404 59.1491 70.8848 58.7676 70.8848 58.3698V46.1798C70.8848 45.7819 71.0404 45.4004 71.3175 45.1191C71.5946 44.8378 71.9704 44.6798 72.3623 44.6798H76.3384C76.9906 44.6761 77.6364 44.8106 78.2345 45.0748C79.3976 45.579 80.3256 46.5175 80.8267 47.6964C81.0875 48.2999 81.22 48.9524 81.2158 49.6114C81.2207 50.2802 81.0882 50.9426 80.8267 51.5564C80.5766 52.1462 80.2146 52.6803 79.7613 53.1281C79.3058 53.5744 78.7747 53.9335 78.1935 54.1881C77.5954 54.4522 76.9496 54.5868 76.2973 54.5831H73.8348V58.3714C73.8359 58.5687 73.7985 58.7643 73.7246 58.9468C73.6507 59.1292 73.5419 59.295 73.4045 59.4346C73.2671 59.5741 73.1038 59.6845 72.924 59.7595C72.7443 59.8345 72.5517 59.8725 72.3573 59.8714L72.3623 59.8698ZM73.8398 47.1581V52.1098H75.8689C76.1931 52.1103 76.5139 52.0428 76.8112 51.9114C77.1041 51.7852 77.3717 51.6056 77.6008 51.3814C77.8261 51.1584 78.0072 50.8936 78.1344 50.6014C78.2622 50.2954 78.3281 49.9664 78.3281 49.6339C78.3281 49.3015 78.2622 48.9725 78.1344 48.6664C78.0072 48.3742 77.8261 48.1094 77.6008 47.8864C77.3718 47.6618 77.1041 47.4816 76.8112 47.3548C76.5138 47.224 76.193 47.157 75.8689 47.1581H73.8398Z" fill="#20286D"/>
<path d="M86.3207 50.528C86.4291 50.3613 86.567 50.168 86.7312 49.9463C86.8932 49.7253 87.0745 49.5194 87.2729 49.3313C87.4664 49.1483 87.6795 48.9878 87.9082 48.853C88.1227 48.7248 88.3669 48.6569 88.6158 48.6563C88.9364 48.6585 89.2441 48.7849 89.476 49.0097C89.6037 49.1234 89.705 49.2644 89.7725 49.4226C89.8401 49.5809 89.8723 49.7523 89.8667 49.9247C89.8734 50.226 89.7625 50.5177 89.5581 50.7363C89.3118 50.9804 88.9968 51.1406 88.6568 51.1947C88.3924 51.2566 88.1373 51.3541 87.8984 51.4847C87.6328 51.6294 87.3966 51.824 87.2023 52.058C86.9845 52.3216 86.8114 52.6201 86.6901 52.9413C86.5453 53.3326 86.4756 53.7484 86.4849 54.1663V58.453C86.4897 58.64 86.4567 58.8259 86.3878 58.9994C86.3189 59.1729 86.2156 59.3301 86.0843 59.4613C85.9579 59.5928 85.8063 59.6965 85.6389 59.7661C85.4714 59.8358 85.2917 59.8699 85.1108 59.8663C84.9269 59.8702 84.7441 59.8363 84.5734 59.7666C84.4027 59.697 84.2476 59.5931 84.1174 59.4611C83.9873 59.3291 83.8847 59.1717 83.8159 58.9985C83.7471 58.8253 83.7135 58.6397 83.7171 58.453V49.9463C83.7155 49.7765 83.7473 49.608 83.8107 49.4508C83.874 49.2936 83.9675 49.1508 84.0858 49.0307C84.2041 48.9106 84.3448 48.8156 84.4996 48.7514C84.6545 48.6871 84.8204 48.6548 84.9877 48.6563C85.3062 48.6526 85.6142 48.7717 85.8496 48.9897C85.9688 49.094 86.0664 49.2215 86.1366 49.3646C86.2067 49.5077 86.2481 49.6635 86.2584 49.823L86.3207 50.528Z" fill="#20286D"/>
<path d="M101.791 54.2729C101.796 55.0214 101.657 55.7636 101.382 56.4579C101.12 57.1198 100.733 57.7238 100.244 58.2363C99.7541 58.747 99.1688 59.1537 98.5224 59.4329C97.8369 59.7212 97.1022 59.8696 96.3603 59.8696C95.6183 59.8696 94.8837 59.7212 94.1982 59.4329C93.5518 59.1537 92.9665 58.747 92.4761 58.2363C91.9872 57.7238 91.6008 57.1198 91.3384 56.4579C90.7934 55.0538 90.7934 53.4921 91.3384 52.0879C91.603 51.4242 91.989 50.8174 92.4761 50.2996C92.9643 49.7838 93.55 49.3733 94.1982 49.0929C94.8837 48.8046 95.6183 48.6562 96.3603 48.6562C97.1022 48.6562 97.8369 48.8046 98.5224 49.0929C99.1706 49.3733 99.7563 49.7838 100.244 50.2996C100.732 50.8174 101.118 51.4242 101.382 52.0879C101.657 52.7823 101.796 53.5245 101.791 54.2729ZM99.0461 54.3146C99.0561 53.8176 98.9725 53.3231 98.7998 52.8579C98.6546 52.4737 98.439 52.1208 98.1645 51.8179C97.9195 51.5512 97.6226 51.339 97.2928 51.1946C96.9992 51.0613 96.6818 50.9904 96.3603 50.9863C96.0312 50.989 95.7064 51.0634 95.4081 51.2046C95.0808 51.3537 94.7873 51.5699 94.5462 51.8396C94.2766 52.1443 94.0645 52.4969 93.9208 52.8796C93.7493 53.3451 93.6663 53.8394 93.6762 54.3363C93.6667 54.8116 93.7464 55.2845 93.9109 55.7296C94.0507 56.1031 94.2597 56.4459 94.5265 56.7396C94.7669 57.0015 95.0604 57.2074 95.3868 57.3429C95.6954 57.4728 96.0262 57.5396 96.3603 57.5396C96.6944 57.5396 97.0252 57.4728 97.3338 57.3429C97.6602 57.2074 97.9537 57.0015 98.194 56.7396C98.4609 56.4459 98.6699 56.1031 98.8097 55.7296C98.976 55.2774 99.0562 54.7972 99.0461 54.3146Z" fill="#20286D"/>
<path d="M103.188 50.4251C103.131 50.2863 103.103 50.1371 103.106 49.9867C103.104 49.8139 103.135 49.6423 103.198 49.4818C103.262 49.3213 103.356 49.1752 103.475 49.0517C103.589 48.9249 103.729 48.824 103.884 48.756C104.039 48.6879 104.207 48.654 104.376 48.6567C104.644 48.6543 104.906 48.7377 105.125 48.8951C105.345 49.0478 105.507 49.2716 105.586 49.5301L107.799 56.4167L109.994 49.5301C110.073 49.2716 110.235 49.0478 110.455 48.8951C110.674 48.7377 110.936 48.6543 111.204 48.6567C111.374 48.6519 111.543 48.6835 111.7 48.7496C111.857 48.8156 111.998 48.9146 112.115 49.0401C112.351 49.2885 112.48 49.6217 112.475 49.9667C112.479 50.1236 112.451 50.2797 112.393 50.4251L109.378 58.7684C109.262 59.0943 109.047 59.3745 108.765 59.5684C108.482 59.7684 108.145 59.8739 107.801 59.8701C107.454 59.8728 107.114 59.7675 106.827 59.5684C106.54 59.377 106.321 59.0964 106.204 58.7684L103.188 50.4251Z" fill="#20286D"/>
<path d="M115.871 47.4287C115.668 47.4332 115.466 47.396 115.278 47.3192C115.089 47.2424 114.918 47.1277 114.774 46.9819C114.631 46.8361 114.518 46.6623 114.442 46.471C114.367 46.2797 114.33 46.0748 114.334 45.8687C114.33 45.6656 114.367 45.4638 114.443 45.2758C114.518 45.0877 114.631 44.9174 114.774 44.7754C114.917 44.6287 115.088 44.5134 115.277 44.4366C115.466 44.3598 115.668 44.323 115.871 44.3287C116.071 44.3271 116.269 44.3659 116.453 44.4428C116.638 44.5196 116.806 44.633 116.947 44.7763C117.088 44.9196 117.2 45.09 117.275 45.2775C117.351 45.4651 117.389 45.666 117.388 45.8687C117.393 46.075 117.356 46.2802 117.28 46.4717C117.204 46.6632 117.091 46.8368 116.946 46.982C116.807 47.1272 116.639 47.2417 116.454 47.3185C116.269 47.3954 116.071 47.4329 115.871 47.4287ZM115.871 59.8704C115.687 59.8747 115.504 59.8411 115.333 59.7716C115.162 59.7021 115.007 59.5982 114.876 59.4661C114.746 59.334 114.644 59.1765 114.575 59.0031C114.506 58.8297 114.473 58.6439 114.477 58.457V50.0704C114.473 49.8835 114.506 49.6977 114.575 49.5243C114.644 49.3509 114.746 49.1933 114.876 49.0612C115.007 48.9292 115.162 48.8252 115.333 48.7558C115.504 48.6863 115.687 48.6527 115.871 48.657C116.052 48.6535 116.232 48.6876 116.399 48.7572C116.566 48.8269 116.718 48.9306 116.844 49.062C116.975 49.1936 117.078 49.3509 117.147 49.5243C117.215 49.6977 117.248 49.8836 117.243 50.0704V58.457C117.248 58.6438 117.215 58.8297 117.147 59.0031C117.078 59.1765 116.975 59.3338 116.844 59.4654C116.718 59.5968 116.566 59.7005 116.399 59.7702C116.232 59.8398 116.052 59.8739 115.871 59.8704Z" fill="#20286D"/>
<path d="M119.35 54.3576C119.342 53.5756 119.467 52.798 119.719 52.0592C119.94 51.4047 120.273 50.7952 120.704 50.2592C121.097 49.774 121.581 49.3739 122.129 49.0826C122.651 48.8036 123.231 48.6578 123.82 48.6576C124.405 48.6495 124.982 48.8003 125.49 49.0942C125.988 49.384 126.424 49.7729 126.77 50.2376V45.7376C126.767 45.5507 126.8 45.365 126.869 45.1915C126.937 45.0181 127.04 44.8606 127.17 44.7284C127.3 44.5962 127.455 44.4922 127.626 44.4224C127.797 44.3527 127.98 44.3187 128.164 44.3226C128.345 44.319 128.525 44.3531 128.692 44.4228C128.86 44.4924 129.011 44.5961 129.138 44.7276C129.269 44.8591 129.372 45.0166 129.441 45.1904C129.51 45.3641 129.543 45.5503 129.538 45.7376V58.5542C129.537 58.9015 129.4 59.2342 129.158 59.4797C128.916 59.7251 128.588 59.8633 128.246 59.8642C127.934 59.8651 127.632 59.7508 127.396 59.5426C127.274 59.442 127.174 59.3172 127.102 59.1759C127.03 59.0346 126.987 58.8797 126.976 58.7209L126.915 57.8459C126.533 58.4485 126.024 58.957 125.424 59.3342C124.858 59.6885 124.205 59.8755 123.54 59.8742C122.955 59.8786 122.379 59.7281 121.868 59.4376C121.35 59.1415 120.9 58.7376 120.547 58.2526C120.162 57.7198 119.868 57.1255 119.677 56.4942C119.459 55.8036 119.349 55.0827 119.35 54.3576ZM122.036 54.3576C122.031 54.8109 122.09 55.2626 122.21 55.6992C122.311 56.0778 122.473 56.4367 122.691 56.7609C122.88 57.0442 123.124 57.2852 123.408 57.4692C123.671 57.6398 123.977 57.7301 124.29 57.7292C124.614 57.7261 124.933 57.6364 125.212 57.4692C125.525 57.2843 125.797 57.0365 126.012 56.7409C126.256 56.4033 126.442 56.0271 126.565 55.6276C126.706 55.1624 126.775 54.6776 126.769 54.1909C126.771 53.7554 126.716 53.3215 126.605 52.9009C126.507 52.5262 126.347 52.1711 126.132 51.8509C125.941 51.5657 125.693 51.3244 125.404 51.1426C125.131 50.971 124.815 50.8809 124.493 50.8826C124.166 50.8822 123.845 50.9684 123.561 51.1326C123.262 51.3106 123.002 51.5495 122.797 51.8342C122.558 52.1687 122.374 52.5409 122.254 52.9359C122.111 53.3956 122.039 53.8753 122.042 54.3576H122.036Z" fill="#20286D"/>
<path d="M139.115 56.6869C139.264 56.6872 139.411 56.7178 139.549 56.7767C139.686 56.8357 139.81 56.9219 139.914 57.0302C140.025 57.1352 140.113 57.2625 140.173 57.4039C140.233 57.5454 140.264 57.6979 140.262 57.8519C140.259 58.0339 140.213 58.2126 140.129 58.3736C140.008 58.5924 139.844 58.7835 139.647 58.9352C139.262 59.2349 138.829 59.4634 138.366 59.6102C137.806 59.7909 137.222 59.8787 136.634 59.8702C135.929 59.8793 135.229 59.745 134.576 59.4752C133.966 59.2218 133.418 58.8387 132.967 58.3519C132.503 57.8466 132.144 57.2521 131.911 56.6036C131.651 55.8843 131.523 55.123 131.532 54.3569C131.521 53.5522 131.659 52.7527 131.941 52.0002C132.192 51.3366 132.568 50.7292 133.049 50.2119C133.505 49.7236 134.056 49.337 134.667 49.0769C135.291 48.8115 135.961 48.6771 136.637 48.6819C137.366 48.6743 138.087 48.8308 138.749 49.1402C139.366 49.4278 139.926 49.8297 140.399 50.3252C140.848 50.7994 141.21 51.3529 141.464 51.9586C141.709 52.5262 141.838 53.1387 141.843 53.7586C141.843 54.3552 141.727 54.7886 141.495 55.0586C141.397 55.1844 141.272 55.2863 141.13 55.3567C140.988 55.4271 140.832 55.4642 140.674 55.4652H134.321C134.371 56.0418 134.635 56.5777 135.058 56.9652C135.482 57.3541 136.042 57.548 136.739 57.5469C137.308 57.5621 137.865 57.3785 138.317 57.0269C138.537 56.824 138.818 56.7039 139.115 56.6869ZM139.175 53.6869C139.18 53.3194 139.111 52.9548 138.972 52.6152C138.841 52.2987 138.649 52.012 138.407 51.7719C138.168 51.5369 137.89 51.3468 137.586 51.2102C137.286 51.0732 136.961 51.0022 136.633 51.0019C136.304 50.9994 135.979 51.0706 135.68 51.2102C135.391 51.3457 135.13 51.5364 134.912 51.7719C134.687 52.0171 134.509 52.3032 134.388 52.6152C134.256 52.9564 134.19 53.3203 134.195 53.6869H139.175Z" fill="#20286D"/>
<path d="M146.839 50.528C146.948 50.3613 147.085 50.1674 147.249 49.9463C147.412 49.7252 147.594 49.5194 147.793 49.3313C147.985 49.1475 148.199 48.987 148.428 48.853C148.642 48.7246 148.886 48.6567 149.135 48.6563C149.456 48.6585 149.764 48.7849 149.996 49.0097C150.123 49.1235 150.224 49.2647 150.291 49.4229C150.359 49.5811 150.39 49.7524 150.385 49.9247C150.392 50.2258 150.282 50.5176 150.078 50.7363C149.831 50.9804 149.515 51.1406 149.175 51.1947C148.911 51.2571 148.656 51.3546 148.416 51.4847C148.151 51.6294 147.915 51.824 147.72 52.058C147.502 52.3215 147.329 52.6201 147.208 52.9413C147.064 53.3339 146.994 53.7507 147.003 54.1697V58.4563C147.008 58.6431 146.975 58.829 146.906 59.0024C146.837 59.1758 146.735 59.3331 146.604 59.4647C146.477 59.5959 146.326 59.6996 146.158 59.7692C145.991 59.8388 145.811 59.873 145.63 59.8697C145.446 59.874 145.263 59.8404 145.092 59.7709C144.922 59.7014 144.766 59.5975 144.636 59.4654C144.506 59.3334 144.403 59.1758 144.335 59.0024C144.266 58.829 144.233 58.6432 144.237 58.4563V49.9463C144.235 49.7765 144.267 49.608 144.33 49.4508C144.394 49.2936 144.487 49.1508 144.605 49.0307C144.724 48.9106 144.864 48.8156 145.019 48.7514C145.174 48.6871 145.34 48.6548 145.507 48.6563C145.825 48.6527 146.133 48.7719 146.368 48.9897C146.487 49.0942 146.584 49.2217 146.655 49.3647C146.725 49.5077 146.767 49.6635 146.778 49.823L146.839 50.528Z" fill="#20286D"/>
<path d="M151.853 51.8613C151.856 51.4491 151.945 51.0423 152.116 50.668C152.292 50.2731 152.551 49.9216 152.874 49.638C153.246 49.3198 153.674 49.0765 154.135 48.9213C154.703 48.7312 155.298 48.6399 155.896 48.6513C156.841 48.6513 157.613 48.828 158.213 49.1813C158.771 49.4901 159.222 49.9662 159.505 50.5447C159.559 50.646 159.6 50.7542 159.626 50.8663C159.64 50.9383 159.647 51.0114 159.648 51.0847C159.65 51.3983 159.532 51.7005 159.319 51.928C159.22 52.0437 159.097 52.1362 158.959 52.1989C158.821 52.2616 158.671 52.2932 158.52 52.2913C158.298 52.2946 158.081 52.2295 157.896 52.1047C157.706 51.974 157.554 51.7946 157.454 51.5847C157.18 51.0297 156.634 50.7513 155.813 50.7513C155.253 50.7513 154.87 50.8625 154.664 51.0847C154.567 51.1753 154.489 51.2846 154.434 51.4063C154.38 51.5279 154.35 51.6594 154.347 51.793C154.343 51.9894 154.409 52.1806 154.531 52.333C154.666 52.4953 154.834 52.6266 155.023 52.718C155.25 52.8311 155.487 52.9216 155.731 52.988L156.581 53.228C156.991 53.3391 157.408 53.4641 157.832 53.603C158.237 53.7344 158.624 53.92 158.981 54.1547C159.328 54.3818 159.622 54.6833 159.841 55.038C160.082 55.4533 160.2 55.93 160.181 56.4113C160.17 56.6944 160.139 56.9763 160.088 57.2547C160.01 57.6756 159.834 58.0715 159.575 58.4097C159.237 58.8462 158.802 59.1951 158.305 59.428C157.739 59.7202 156.957 59.8658 155.959 59.8647C155.414 59.873 154.871 59.8137 154.34 59.688C153.925 59.5905 153.525 59.4369 153.15 59.2313C152.851 59.065 152.578 58.8544 152.341 58.6063C152.143 58.3981 151.974 58.1638 151.838 57.9097C151.783 57.788 151.735 57.6627 151.695 57.5347C151.668 57.44 151.654 57.3417 151.654 57.243C151.651 56.9321 151.769 56.6325 151.983 56.4097C152.119 56.2718 152.286 56.1695 152.469 56.1113C152.653 56.0531 152.847 56.0408 153.036 56.0755C153.226 56.1103 153.404 56.1909 153.556 56.3106C153.707 56.4303 153.828 56.5855 153.908 56.763C154.07 57.0264 154.287 57.2505 154.544 57.4197C154.859 57.648 155.365 57.763 156.041 57.763C156.349 57.7739 156.657 57.7316 156.952 57.638C157.141 57.5772 157.315 57.4779 157.464 57.3463C157.568 57.2563 157.643 57.1367 157.679 57.003C157.704 56.9044 157.718 56.8032 157.72 56.7013C157.726 56.5093 157.664 56.3215 157.546 56.1713C157.419 56.0157 157.262 55.8881 157.085 55.7963C156.867 55.6807 156.637 55.5896 156.399 55.5247C156.133 55.4497 155.855 55.3763 155.57 55.3063C155.144 55.2097 154.713 55.0919 154.278 54.953C153.852 54.8199 153.449 54.6239 153.079 54.3713C152.715 54.119 152.413 53.7841 152.198 53.393C151.955 52.9212 151.836 52.3935 151.853 51.8613Z" fill="#20286D"/>
<path d="M168.134 51.0497C168.003 51.0519 167.874 51.0261 167.754 50.9741C167.634 50.9221 167.526 50.8451 167.438 50.7481C167.345 50.6538 167.272 50.5417 167.223 50.4183C167.173 50.295 167.149 50.1629 167.15 50.0297C167.15 49.7645 167.254 49.5102 167.439 49.3226C167.624 49.1351 167.874 49.0297 168.135 49.0297H168.525V47.4897C168.522 47.1148 168.595 46.7433 168.74 46.3981C169.021 45.7222 169.551 45.1842 170.217 44.8981C170.558 44.7517 170.924 44.6774 171.294 44.6797H172.913C173.218 44.6797 173.51 44.8027 173.725 45.0214C173.941 45.2402 174.062 45.537 174.062 45.8464C174.062 46.1558 173.941 46.4526 173.725 46.6714C173.51 46.8902 173.218 47.0131 172.913 47.0131H172.176C171.765 47.0131 171.519 47.0797 171.427 47.2114C171.321 47.4199 171.275 47.6543 171.294 47.8881V49.0314H173.056C173.322 49.0314 173.578 49.1389 173.766 49.3302C173.954 49.5214 174.06 49.7809 174.06 50.0514C174.06 50.3219 173.954 50.5814 173.766 50.7727C173.578 50.9639 173.322 51.0714 173.056 51.0714H171.294V58.4781C171.295 58.6615 171.26 58.8433 171.192 59.013C171.123 59.1826 171.022 59.3367 170.894 59.4664C170.766 59.596 170.614 59.6986 170.447 59.7681C170.28 59.8376 170.101 59.8727 169.92 59.8714C169.737 59.8751 169.556 59.8411 169.387 59.7715C169.217 59.7019 169.064 59.5981 168.935 59.4664C168.805 59.3381 168.703 59.1843 168.634 59.0143C168.565 58.8443 168.531 58.6618 168.534 58.4781V51.0497H168.134Z" fill="#20286D"/>
<path d="M185.492 54.2729C185.498 55.0215 185.359 55.7639 185.082 56.4579C184.821 57.1201 184.435 57.7241 183.946 58.2363C183.456 58.7464 182.871 59.1531 182.225 59.4329C181.54 59.7212 180.805 59.8696 180.063 59.8696C179.321 59.8696 178.587 59.7212 177.901 59.4329C177.255 59.1541 176.669 58.7473 176.179 58.2363C175.69 57.7238 175.304 57.1198 175.042 56.4579C174.497 55.0538 174.497 53.4921 175.042 52.0879C175.306 51.4242 175.692 50.8174 176.179 50.2996C176.667 49.7834 177.253 49.3729 177.901 49.0929C178.587 48.8046 179.321 48.6562 180.063 48.6562C180.805 48.6562 181.54 48.8046 182.225 49.0929C182.873 49.3738 183.459 49.7842 183.948 50.2996C184.435 50.8171 184.82 51.424 185.084 52.0879C185.36 52.782 185.498 53.5244 185.492 54.2729ZM182.746 54.3146C182.756 53.8176 182.672 53.3231 182.5 52.8579C182.355 52.4734 182.139 52.1204 181.864 51.8179C181.62 51.5516 181.323 51.3394 180.994 51.1946C180.701 51.0613 180.383 50.9904 180.062 50.9863C179.732 50.9891 179.407 51.0635 179.108 51.2046C178.781 51.3542 178.489 51.5703 178.248 51.8396C177.978 52.1443 177.766 52.4969 177.622 52.8796C177.449 53.3448 177.366 53.8392 177.376 54.3363C177.367 54.8117 177.447 55.2846 177.612 55.7296C177.752 56.1034 177.961 56.4464 178.228 56.7396C178.468 57.0019 178.762 57.2078 179.088 57.3429C179.397 57.4728 179.728 57.5396 180.062 57.5396C180.396 57.5396 180.727 57.4728 181.035 57.3429C181.361 57.207 181.655 57.0012 181.896 56.7396C182.162 56.4459 182.371 56.1031 182.511 55.7296C182.676 55.2771 182.756 54.797 182.746 54.3146Z" fill="#20286D"/>
<path d="M190.35 50.528C190.458 50.3613 190.596 50.168 190.76 49.9463C190.923 49.7253 191.104 49.5194 191.302 49.3313C191.496 49.1483 191.709 48.9878 191.938 48.853C192.152 48.7248 192.396 48.6569 192.645 48.6563C192.966 48.6585 193.273 48.7849 193.505 49.0097C193.633 49.1234 193.734 49.2644 193.802 49.4226C193.869 49.5809 193.902 49.7523 193.896 49.9247C193.903 50.226 193.792 50.5177 193.587 50.7363C193.341 50.9804 193.026 51.1406 192.686 51.1947C192.422 51.2566 192.167 51.3541 191.928 51.4847C191.662 51.6294 191.426 51.824 191.232 52.058C191.014 52.3216 190.841 52.6201 190.719 52.9413C190.574 53.3337 190.505 53.7507 190.514 54.1697V58.4563C190.519 58.6433 190.486 58.8293 190.417 59.0027C190.348 59.1762 190.245 59.3334 190.114 59.4647C189.987 59.5961 189.836 59.6998 189.668 59.7695C189.501 59.8391 189.321 59.8732 189.14 59.8697C188.956 59.8735 188.773 59.8396 188.603 59.77C188.432 59.7003 188.277 59.5964 188.147 59.4644C188.017 59.3324 187.914 59.1751 187.845 59.0018C187.776 58.8286 187.743 58.6431 187.746 58.4563V49.9463C187.745 49.7765 187.777 49.608 187.84 49.4508C187.903 49.2936 187.997 49.1508 188.115 49.0307C188.233 48.9106 188.374 48.8156 188.529 48.7514C188.684 48.6871 188.85 48.6548 189.017 48.6563C189.336 48.6526 189.644 48.7717 189.879 48.9897C189.998 49.094 190.096 49.2215 190.166 49.3646C190.236 49.5077 190.277 49.6635 190.288 49.823L190.35 50.528Z" fill="#20286D"/>
<path d="M119.234 71.0241C119.227 70.7928 119.266 70.5623 119.348 70.3464C119.431 70.1306 119.555 69.9337 119.714 69.7675C119.872 69.6013 120.062 69.4691 120.272 69.3789C120.482 69.2886 120.708 69.2421 120.936 69.2421C121.164 69.2421 121.39 69.2886 121.6 69.3789C121.81 69.4691 122 69.6013 122.158 69.7675C122.317 69.9337 122.441 70.1306 122.524 70.3464C122.606 70.5623 122.645 70.7928 122.638 71.0241V82.7391C122.639 83.0215 122.583 83.3011 122.473 83.5608C122.369 83.8116 122.215 84.0383 122.022 84.2275C121.831 84.415 121.609 84.5668 121.365 84.6758C121.113 84.7874 120.841 84.8442 120.566 84.8425C120.194 84.8457 119.829 84.7454 119.51 84.5525C119.191 84.3604 118.926 84.0876 118.742 83.7608L114.46 75.6675V83.1158C114.468 83.3472 114.429 83.5776 114.346 83.7935C114.264 84.0094 114.14 84.2062 113.981 84.3724C113.823 84.5387 113.633 84.6708 113.423 84.761C113.213 84.8513 112.987 84.8978 112.759 84.8978C112.531 84.8978 112.305 84.8513 112.095 84.761C111.885 84.6708 111.695 84.5387 111.537 84.3724C111.378 84.2062 111.254 84.0094 111.171 83.7935C111.089 83.5776 111.05 83.3472 111.057 83.1158V71.4191C111.055 71.1366 111.111 70.8568 111.221 70.5975C111.328 70.3449 111.482 70.1152 111.673 69.9208C112.072 69.5219 112.609 69.2981 113.169 69.2975C113.535 69.2968 113.896 69.3933 114.214 69.5775C114.539 69.7635 114.803 70.0422 114.973 70.3791L119.241 78.8058L119.234 71.0241Z" fill="#20286D"/>
<path d="M125.606 71.377C125.603 71.1494 125.645 70.9236 125.729 70.7128C125.814 70.502 125.939 70.3105 126.098 70.1496C126.256 69.9886 126.445 69.8616 126.652 69.7758C126.86 69.6901 127.082 69.6474 127.307 69.6503H131.467C132.419 69.6442 133.363 69.843 134.234 70.2336C135.081 70.6137 135.846 71.1571 136.488 71.8337C137.822 73.2435 138.567 75.1224 138.567 77.077C138.567 79.0316 137.822 80.9105 136.488 82.3203C135.845 82.9933 135.08 83.5338 134.234 83.912C133.363 84.3021 132.419 84.5004 131.467 84.4937H127.307C127.082 84.497 126.86 84.4547 126.652 84.3691C126.444 84.2835 126.255 84.1564 126.097 83.9954C125.938 83.8344 125.813 83.6427 125.729 83.4317C125.644 83.2207 125.603 82.9947 125.606 82.767V71.377ZM129.007 81.6353H131.078C131.636 81.6384 132.188 81.5179 132.696 81.282C133.199 81.0478 133.652 80.7154 134.029 80.3037C134.417 79.8795 134.722 79.3854 134.93 78.847C135.368 77.71 135.368 76.4473 134.93 75.3103C134.52 74.2405 133.72 73.3721 132.696 72.8853C132.19 72.6431 131.637 72.519 131.078 72.522H129.007V81.6353Z" fill="#20286D"/>
<path d="M142.884 84.8316C142.661 84.8349 142.438 84.7927 142.231 84.7075C142.023 84.6222 141.835 84.4956 141.676 84.3351C141.518 84.1746 141.392 83.9835 141.308 83.7731C141.223 83.5627 141.181 83.3372 141.184 83.1099V71.0216C141.184 70.5637 141.363 70.1245 141.682 69.8006C142.001 69.4768 142.433 69.2949 142.884 69.2949C143.336 69.2949 143.768 69.4768 144.087 69.8006C144.406 70.1245 144.585 70.5637 144.585 71.0216V83.1099C144.587 83.3371 144.545 83.5624 144.46 83.7726C144.375 83.9828 144.25 84.1737 144.092 84.3341C143.933 84.4945 143.745 84.6211 143.538 84.7065C143.33 84.792 143.108 84.8345 142.884 84.8316Z" fill="#20286D"/>
<path d="M156.104 74.0002C155.828 74.0035 155.555 73.9315 155.315 73.7919C155.084 73.6623 154.896 73.4671 154.773 73.2302C154.599 72.9287 154.352 72.6773 154.056 72.5002C153.686 72.2705 153.258 72.1547 152.824 72.1669C152.576 72.1601 152.329 72.2026 152.097 72.2919C151.915 72.3637 151.748 72.4694 151.605 72.6036C151.481 72.7179 151.386 72.8601 151.327 73.0186C151.275 73.1588 151.247 73.3071 151.245 73.4569C151.241 73.6667 151.314 73.8705 151.45 74.0286C151.627 74.2182 151.84 74.37 152.076 74.4752C152.411 74.6374 152.756 74.7766 153.11 74.8919C153.52 75.0302 154.005 75.1836 154.566 75.3502L154.75 75.3919C155.063 75.4886 155.449 75.6236 155.907 75.7969C156.382 75.9796 156.828 76.2323 157.231 76.5469C157.673 76.8952 158.042 77.3298 158.316 77.8252C158.635 78.4322 158.791 79.1141 158.767 79.8019C158.772 80.4744 158.639 81.1405 158.378 81.7586C158.118 82.3676 157.734 82.9136 157.25 83.3602C156.725 83.8387 156.111 84.2064 155.444 84.4419C154.66 84.716 153.834 84.8485 153.005 84.8336C151.72 84.8336 150.637 84.5841 149.756 84.0852C148.875 83.5863 148.236 82.9624 147.84 82.2136C147.745 82.0548 147.673 81.8831 147.625 81.7036C147.592 81.5639 147.575 81.4206 147.574 81.2769C147.57 80.8425 147.727 80.4225 148.014 80.1002C148.157 79.9348 148.334 79.8034 148.533 79.7153C148.731 79.6272 148.947 79.5845 149.163 79.5902C149.48 79.5827 149.79 79.6817 150.045 79.8719C150.31 80.0802 150.533 80.3382 150.702 80.6319C150.936 81.0087 151.243 81.334 151.603 81.5886C152.036 81.8701 152.544 82.0082 153.057 81.9836C153.781 81.9836 154.352 81.7963 154.77 81.4219C154.969 81.2513 155.129 81.0378 155.237 80.7968C155.345 80.5558 155.399 80.2934 155.395 80.0286C155.405 79.7437 155.326 79.463 155.169 79.2269C154.994 78.9897 154.77 78.7946 154.512 78.6552C154.173 78.4658 153.815 78.3122 153.445 78.1969C153.021 78.0591 152.537 77.9063 151.99 77.7386L151.889 77.7186C151.532 77.6069 151.124 77.4686 150.659 77.3019C150.187 77.1316 149.741 76.8936 149.336 76.5952C148.911 76.2813 148.552 75.8847 148.28 75.4286C147.976 74.8841 147.827 74.2642 147.85 73.6386C147.849 73.0749 147.958 72.5166 148.169 71.9952C148.38 71.4691 148.697 70.9938 149.101 70.6002C149.544 70.1785 150.067 69.853 150.638 69.6436C151.328 69.3955 152.057 69.2758 152.79 69.2902C153.339 69.2838 153.886 69.3465 154.42 69.4769C154.872 69.5893 155.308 69.7572 155.72 69.9769C156.074 70.164 156.401 70.3983 156.694 70.6736C156.94 70.9052 157.158 71.1673 157.341 71.4536C157.445 71.6132 157.53 71.7843 157.597 71.9636C157.644 72.1076 157.668 72.2584 157.667 72.4102C157.668 72.6135 157.63 72.8149 157.556 73.0036C157.481 73.191 157.369 73.3611 157.227 73.5036C157.082 73.6503 156.911 73.7699 156.725 73.8569C156.531 73.9493 156.319 73.9981 156.104 74.0002Z" fill="#20286D"/>
<path d="M41.3074 19.8534C45.1372 19.8534 48.2418 16.7015 48.2418 12.8134C48.2418 8.92535 45.1372 5.77344 41.3074 5.77344C37.4777 5.77344 34.373 8.92535 34.373 12.8134C34.373 16.7015 37.4777 19.8534 41.3074 19.8534Z" fill="#F7A600"/>
<path d="M57.0201 59.9471C57.0201 59.9471 43.4944 52.8804 30.2068 58.1004C29.4155 55.6904 27.9199 40.8554 36.7734 34.0121C40.5903 31.0604 42.5423 32.9054 54.1209 23.7337C62.8743 16.8021 65.5633 9.70875 65.7768 9.09375C65.9508 11.9038 65.1201 23.3054 51.5681 33.4271C47.5723 36.4104 38.9913 39.0754 37.0673 49.8621C41.3077 49.8021 52.5646 50.1237 57.0201 59.9471Z" fill="#F7A600"/>
<path d="M21.9192 36.6385C16.4283 38.3162 11.6238 41.7612 8.23042 46.4539C4.83706 51.1466 3.03894 56.8324 3.10735 62.6535C3.27152 76.8018 15.0915 88.8801 29.0194 89.1418C34.9766 89.2538 40.7964 87.3191 45.5345 83.6515C50.2726 79.9839 53.6511 74.7986 55.1219 68.9368C55.2427 68.4459 55.2547 67.9339 55.157 67.4377C55.0594 66.9415 54.8546 66.4734 54.5574 66.0673C54.2602 65.6611 53.8779 65.3269 53.4381 65.0888C52.9984 64.8506 52.5121 64.7145 52.0142 64.6901C51.2428 64.6498 50.4813 64.8807 49.858 65.344C49.2348 65.8073 48.788 66.4746 48.593 67.2335C47.5173 71.5393 45.0582 75.3582 41.6048 78.0861C38.1513 80.8139 33.9007 82.295 29.5251 82.2951C18.6014 82.2951 9.70193 73.1285 9.86117 62.0318C9.92364 57.7933 11.3125 53.6848 13.827 50.3007C16.3414 46.9165 19.851 44.4321 23.8482 43.2068C24.638 42.968 25.3148 42.4447 25.7516 41.7353C26.1883 41.0258 26.355 40.1789 26.2204 39.3535C26.1407 38.874 25.9615 38.4172 25.6947 38.0134C25.4279 37.6096 25.0796 37.268 24.6728 37.0113C24.2661 36.7545 23.8103 36.5885 23.3355 36.5242C22.8608 36.46 22.378 36.4989 21.9192 36.6385Z" fill="#20286D"/>
<path d="M65.6161 8.02185C65.6161 8.02185 64.3027 6.49852 64.4488 4.96851C64.595 3.43852 65.4667 2.01185 65.1482 0.853516C65.1482 0.853516 67.7749 1.93018 67.5319 4.76852C67.3792 6.60185 66.0298 7.80518 66.0298 7.80518C66.0298 7.80518 65.1728 5.52352 65.9263 3.39852C65.9263 3.39852 64.9725 4.75685 65.6161 8.02185Z" fill="#13A538"/>
<path d="M62.8631 11.8783C62.8631 11.8783 61.5416 11.0983 61.2773 9.94999C61.013 8.80166 61.3035 7.54833 60.793 6.78333C60.793 6.78333 62.955 6.91499 63.4689 9.03499C63.7972 10.4067 63.111 11.6167 63.111 11.6167C63.111 11.6167 61.9389 10.1717 61.9717 8.43999C61.9717 8.44166 61.6072 9.66666 62.8631 11.8783Z" fill="#13A538"/>
<path d="M66.8281 11.8347C66.8281 11.8347 68.2712 12.3463 69.3021 11.8047C70.3331 11.263 71.085 10.223 71.9862 10.1213C71.9862 10.1213 70.4825 8.53633 68.5617 9.518C67.319 10.153 66.861 11.4713 66.861 11.4713C66.861 11.4713 68.7045 11.438 69.9801 10.288C69.9801 10.288 69.3005 11.3647 66.8281 11.8347Z" fill="#13A538"/>
<path d="M67.8691 7.66618C67.8691 7.66618 69.0544 8.08785 69.8999 7.64285C70.7453 7.19785 71.3626 6.34618 72.103 6.26285C72.103 6.26285 70.8701 4.96118 69.2925 5.76285C68.6564 6.11452 68.1625 6.68207 67.897 7.36618C67.897 7.36618 69.4107 7.33785 70.4564 6.39451C70.4564 6.40451 69.8982 7.28785 67.8691 7.66618Z" fill="#13A538"/>
<path d="M71.1719 8.87768C71.1719 8.87768 71.9927 9.16935 72.5804 8.86101C73.1681 8.55268 73.595 7.96101 74.1088 7.90268C74.1088 7.90268 73.2535 7.00101 72.1585 7.55935C71.7185 7.80274 71.3764 8.19488 71.1916 8.66768C71.1916 8.66768 72.2406 8.64935 72.9662 8.00101C72.9662 8.00101 72.5788 8.61101 71.1719 8.87768Z" fill="#13A538"/>
<path d="M62.0711 5.73509C62.0711 5.73509 61.0187 5.23509 60.7413 4.39009C60.4639 3.54509 60.5985 2.57342 60.1602 2.03342C60.1602 2.03342 61.8018 1.98009 62.3354 3.54675C62.5325 4.19608 62.4988 4.89507 62.2401 5.52175C62.2401 5.52175 61.2551 4.51175 61.1649 3.20175C61.1649 3.20175 60.9711 4.15175 62.0711 5.73509Z" fill="#13A538"/>
<path d="M59.5458 6.53467C59.5458 6.53467 58.6757 6.35634 58.3194 5.77634C57.9632 5.19634 57.891 4.44301 57.4707 4.12967C57.4707 4.12967 58.6839 3.79634 59.3553 4.85801C59.6165 5.30528 59.7152 5.83124 59.6344 6.34467C59.6344 6.34467 58.7233 5.77301 58.4229 4.81467C58.4229 4.81467 58.4409 5.55801 59.5458 6.53467Z" fill="#13A538"/>
</svg>
