<svg width="123" height="56" viewBox="0 0 123 56" fill="none" xmlns="http://www.w3.org/2000/svg">
<path d="M45.1799 37.2524C44.9353 37.2524 44.7006 37.154 44.5276 36.979C44.3546 36.804 44.2574 36.5666 44.2574 36.319V28.7342C44.2574 28.4866 44.3546 28.2492 44.5276 28.0742C44.7006 27.8992 44.9353 27.8008 45.1799 27.8008H47.6625C48.0697 27.7985 48.4729 27.8823 48.8464 28.0466C49.5726 28.3604 50.152 28.9443 50.4648 29.6779C50.6277 30.0534 50.7104 30.4594 50.7078 30.8694C50.7109 31.2855 50.6281 31.6977 50.4648 32.0796C50.3087 32.4466 50.0827 32.7789 49.7996 33.0576C49.5153 33.3353 49.1836 33.5587 48.8207 33.7171C48.4473 33.8815 48.0441 33.9652 47.6369 33.9629H46.0994V36.3201C46.1001 36.4428 46.0767 36.5645 46.0305 36.6781C45.9844 36.7916 45.9165 36.8948 45.8307 36.9816C45.7449 37.0684 45.6429 37.1371 45.5307 37.1838C45.4185 37.2304 45.2982 37.2541 45.1769 37.2534L45.1799 37.2524ZM46.1024 29.3429V32.4239H47.3693C47.5718 32.4243 47.7721 32.3822 47.9577 32.3005C48.1406 32.222 48.3077 32.1102 48.4507 31.9708C48.5914 31.832 48.7045 31.6672 48.7838 31.4854C48.8637 31.295 48.9048 31.0903 48.9048 30.8834C48.9048 30.6766 48.8637 30.4719 48.7838 30.2814C48.7045 30.0996 48.5914 29.9348 48.4507 29.7961C48.3077 29.6563 48.1406 29.5442 47.9577 29.4653C47.772 29.3839 47.5717 29.3422 47.3693 29.3429H46.1024Z" fill="#20286D"/>
<path d="M53.8945 31.4398C53.9621 31.3361 54.0482 31.2158 54.1507 31.0779C54.2519 30.9403 54.3651 30.8122 54.489 30.6952C54.6098 30.5813 54.7428 30.4815 54.8857 30.3976C55.0196 30.3178 55.1721 30.2755 55.3274 30.2752C55.5276 30.2765 55.7198 30.3552 55.8645 30.4951C55.9443 30.5658 56.0075 30.6536 56.0497 30.752C56.0919 30.8505 56.1119 30.9571 56.1085 31.0644C56.1127 31.2519 56.0434 31.4334 55.9158 31.5694C55.762 31.7213 55.5653 31.8209 55.3531 31.8546C55.188 31.8931 55.0287 31.9538 54.8795 32.0351C54.7137 32.1251 54.5662 32.2462 54.4449 32.3918C54.3089 32.5558 54.2008 32.7415 54.1251 32.9414C54.0347 33.1849 53.9912 33.4436 53.997 33.7036V36.3709C54 36.4872 53.9794 36.603 53.9363 36.7109C53.8933 36.8188 53.8288 36.9166 53.7469 36.9983C53.668 37.0801 53.5733 37.1446 53.4688 37.188C53.3642 37.2313 53.252 37.2525 53.1391 37.2503C53.0242 37.2527 52.9101 37.2316 52.8035 37.1883C52.6969 37.1449 52.6001 37.0803 52.5188 36.9981C52.4375 36.916 52.3735 36.8181 52.3306 36.7103C52.2876 36.6025 52.2666 36.4871 52.2688 36.3709V31.0779C52.2679 30.9722 52.2877 30.8674 52.3273 30.7696C52.3668 30.6717 52.4252 30.5829 52.4991 30.5081C52.5729 30.4334 52.6608 30.3743 52.7575 30.3343C52.8541 30.2943 52.9577 30.2742 53.0622 30.2752C53.2611 30.2729 53.4534 30.347 53.6003 30.4826C53.6748 30.5476 53.7357 30.6269 53.7795 30.7159C53.8233 30.8049 53.8492 30.9019 53.8555 31.0011L53.8945 31.4398Z" fill="#20286D"/>
<path d="M63.5551 33.7701C63.5584 34.2358 63.4717 34.6976 63.2999 35.1296C63.1361 35.5415 62.8948 35.9173 62.5896 36.2362C62.2834 36.5539 61.9179 36.807 61.5143 36.9808C61.0864 37.1601 60.6277 37.2525 60.1644 37.2525C59.7012 37.2525 59.2425 37.1601 58.8145 36.9808C58.4109 36.807 58.0454 36.5539 57.7393 36.2362C57.434 35.9173 57.1928 35.5415 57.0289 35.1296C56.6887 34.256 56.6887 33.2842 57.0289 32.4105C57.1941 31.9976 57.4351 31.62 57.7393 31.2978C58.0441 30.9768 58.4098 30.7214 58.8145 30.547C59.2425 30.3676 59.7012 30.2753 60.1644 30.2753C60.6277 30.2753 61.0864 30.3676 61.5143 30.547C61.9191 30.7214 62.2848 30.9768 62.5896 31.2978C62.8937 31.62 63.1347 31.9976 63.2999 32.4105C63.4717 32.8426 63.5584 33.3044 63.5551 33.7701ZM61.8413 33.796C61.8476 33.4867 61.7954 33.1791 61.6876 32.8896C61.5969 32.6506 61.4623 32.431 61.2909 32.2425C61.1379 32.0766 60.9526 31.9445 60.7466 31.8547C60.5633 31.7718 60.3652 31.7276 60.1644 31.7251C59.9589 31.7268 59.7562 31.7731 59.5699 31.8609C59.3655 31.9537 59.1823 32.0882 59.0318 32.256C58.8634 32.4456 58.731 32.665 58.6413 32.9031C58.5342 33.1928 58.4824 33.5003 58.4885 33.8095C58.4826 34.1053 58.5324 34.3995 58.6351 34.6765C58.7224 34.9089 58.8529 35.1222 59.0195 35.3049C59.1696 35.4679 59.3528 35.596 59.5566 35.6803C59.7493 35.7611 59.9558 35.8027 60.1644 35.8027C60.373 35.8027 60.5796 35.7611 60.7723 35.6803C60.976 35.596 61.1593 35.4679 61.3093 35.3049C61.476 35.1222 61.6064 34.9089 61.6937 34.6765C61.7976 34.3951 61.8477 34.0963 61.8413 33.796Z" fill="#20286D"/>
<path d="M64.4253 31.3755C64.3897 31.2892 64.3723 31.1963 64.3741 31.1028C64.3727 30.9952 64.3924 30.8884 64.432 30.7886C64.4716 30.6887 64.5303 30.5978 64.6047 30.521C64.676 30.442 64.763 30.3793 64.86 30.3369C64.957 30.2946 65.0618 30.2735 65.1674 30.2752C65.3348 30.2737 65.4983 30.3256 65.6348 30.4235C65.7722 30.5185 65.8737 30.6578 65.9229 30.8186L67.3046 35.1036L68.675 30.8186C68.7242 30.6578 68.8257 30.5185 68.963 30.4235C69.0995 30.3256 69.2631 30.2737 69.4304 30.2752C69.5365 30.2722 69.642 30.2919 69.74 30.333C69.8381 30.3741 69.9264 30.4357 69.9993 30.5137C70.1466 30.6683 70.2273 30.8756 70.2238 31.0903C70.2263 31.1879 70.2089 31.285 70.1725 31.3755L68.2906 36.5669C68.2182 36.7697 68.0839 36.944 67.9073 37.0647C67.7309 37.1891 67.5206 37.2547 67.3056 37.2524C67.0888 37.2541 66.8767 37.1886 66.6978 37.0647C66.5183 36.9456 66.3817 36.771 66.3083 36.5669L64.4253 31.3755Z" fill="#20286D"/>
<path d="M72.3465 29.5109C72.2198 29.5137 72.0938 29.4906 71.9761 29.4428C71.8584 29.395 71.7516 29.3236 71.6619 29.2329C71.5722 29.1422 71.5017 29.0341 71.4545 28.915C71.4072 28.796 71.3843 28.6685 71.3871 28.5402C71.3846 28.4139 71.4076 28.2883 71.4548 28.1713C71.5021 28.0543 71.5725 27.9483 71.6618 27.8599C71.7511 27.7687 71.8579 27.697 71.9757 27.6492C72.0935 27.6013 72.2197 27.5785 72.3465 27.582C72.4712 27.5811 72.5948 27.6052 72.7101 27.653C72.8254 27.7008 72.9302 27.7713 73.0184 27.8605C73.1065 27.9497 73.1762 28.0557 73.2235 28.1724C73.2707 28.2891 73.2946 28.4141 73.2936 28.5402C73.2968 28.6686 73.274 28.7963 73.2265 28.9154C73.1791 29.0346 73.1081 29.1426 73.0179 29.233C72.9307 29.3233 72.8262 29.3946 72.7107 29.4424C72.5952 29.4902 72.4713 29.5135 72.3465 29.5109ZM72.3465 37.2524C72.2316 37.2551 72.1173 37.2342 72.0106 37.1909C71.9039 37.1477 71.807 37.0831 71.7256 37.0009C71.6443 36.9187 71.5803 36.8207 71.5374 36.7128C71.4946 36.6048 71.4738 36.4893 71.4763 36.373V31.1546C71.4738 31.0383 71.4946 30.9228 71.5374 30.8148C71.5803 30.7069 71.6443 30.6089 71.7256 30.5267C71.807 30.4445 71.9039 30.3799 72.0106 30.3366C72.1173 30.2934 72.2316 30.2725 72.3465 30.2752C72.4595 30.273 72.5717 30.2942 72.6762 30.3375C72.7808 30.3809 72.8754 30.4454 72.9544 30.5272C73.036 30.6091 73.1002 30.707 73.143 30.8149C73.1858 30.9228 73.2064 31.0384 73.2034 31.1546V36.373C73.2064 36.4892 73.1858 36.6048 73.143 36.7127C73.1002 36.8206 73.036 36.9185 72.9544 37.0004C72.8754 37.0822 72.7808 37.1467 72.6762 37.19C72.5717 37.2334 72.4595 37.2546 72.3465 37.2524Z" fill="#20286D"/>
<path d="M74.5175 33.8219C74.5124 33.3354 74.5905 32.8516 74.7481 32.3919C74.8859 31.9846 75.0941 31.6054 75.3631 31.2719C75.6082 30.97 75.9108 30.721 76.2528 30.5397C76.5783 30.3662 76.9407 30.2754 77.3086 30.2753C77.6738 30.2703 78.0337 30.3641 78.351 30.547C78.6621 30.7273 78.934 30.9693 79.1505 31.2584V28.4584C79.1481 28.3421 79.169 28.2265 79.2119 28.1186C79.2548 28.0107 79.3188 27.9127 79.4001 27.8305C79.4814 27.7482 79.5783 27.6835 79.6849 27.6401C79.7916 27.5967 79.9058 27.5755 80.0207 27.5779C80.1337 27.5757 80.2459 27.5969 80.3504 27.6403C80.455 27.6836 80.5496 27.7482 80.6286 27.8299C80.7105 27.9118 80.775 28.0098 80.818 28.1179C80.8611 28.226 80.8817 28.3419 80.8787 28.4584V36.4332C80.8778 36.6493 80.7926 36.8563 80.6414 37.009C80.4903 37.1617 80.2856 37.2478 80.072 37.2483C79.8769 37.2488 79.6882 37.1777 79.541 37.0482C79.4651 36.9856 79.4027 36.9079 79.3576 36.82C79.3124 36.7321 79.2856 36.6357 79.2786 36.5369L79.2407 35.9925C79.0025 36.3674 78.6845 36.6838 78.31 36.9185C77.9563 37.139 77.5488 37.2553 77.1333 37.2545C76.7681 37.2573 76.4084 37.1636 76.0899 36.9828C75.7666 36.7986 75.4854 36.5473 75.2647 36.2455C75.0246 35.914 74.841 35.5442 74.7215 35.1514C74.5855 34.7217 74.5167 34.2731 74.5175 33.8219ZM76.1944 33.8219C76.1915 34.104 76.2281 34.3851 76.3031 34.6568C76.3661 34.8923 76.4676 35.1156 76.6034 35.3174C76.7214 35.4936 76.8739 35.6436 77.0513 35.7581C77.2157 35.8643 77.4067 35.9204 77.6017 35.9199C77.8044 35.9179 78.0031 35.8621 78.1778 35.7581C78.373 35.643 78.5429 35.4888 78.677 35.3049C78.8291 35.0949 78.9458 34.8608 79.0224 34.6122C79.1106 34.3227 79.1535 34.0211 79.1495 33.7182C79.1508 33.4473 79.1164 33.1773 79.047 32.9156C78.9859 32.6824 78.8861 32.4615 78.7518 32.2622C78.6326 32.0848 78.4779 31.9346 78.2977 31.8215C78.1268 31.7147 77.9297 31.6587 77.7288 31.6597C77.5247 31.6595 77.324 31.7131 77.1466 31.8153C76.9597 31.926 76.7975 32.0747 76.67 32.2519C76.5205 32.46 76.4059 32.6916 76.3307 32.9373C76.2411 33.2234 76.1965 33.5219 76.1985 33.8219H76.1944Z" fill="#20286D"/>
<path d="M86.8575 35.2717C86.9506 35.2719 87.0426 35.2909 87.1284 35.3276C87.2141 35.3643 87.2917 35.4179 87.3567 35.4853C87.4259 35.5506 87.481 35.6298 87.5185 35.7178C87.5559 35.8059 87.5748 35.9008 87.574 35.9966C87.5717 36.1099 87.5433 36.221 87.4909 36.3212C87.4152 36.4573 87.3126 36.5763 87.1896 36.6707C86.9495 36.8571 86.6789 36.9993 86.3901 37.0907C86.0406 37.2031 85.6754 37.2577 85.3087 37.2524C84.8683 37.2581 84.4313 37.1745 84.0234 37.0067C83.643 36.849 83.3005 36.6106 83.0189 36.3077C82.7295 35.9933 82.5054 35.6234 82.3598 35.2199C82.1976 34.7723 82.1174 34.2986 82.123 33.8219C82.1161 33.3212 82.2026 32.8237 82.3782 32.3556C82.5351 31.9427 82.7702 31.5647 83.0701 31.2428C83.3549 30.939 83.6991 30.6985 84.0808 30.5366C84.4701 30.3714 84.8886 30.2878 85.3108 30.2908C85.7656 30.2861 86.2158 30.3835 86.6289 30.576C87.0146 30.7549 87.3639 31.005 87.659 31.3133C87.94 31.6084 88.1654 31.9528 88.3243 32.3296C88.4775 32.6828 88.558 33.0639 88.561 33.4496C88.561 33.8209 88.4886 34.0905 88.3437 34.2585C88.2825 34.3368 88.2046 34.4002 88.1159 34.444C88.0272 34.4878 87.9299 34.5109 87.8312 34.5116H83.8645C83.8959 34.8703 84.0603 35.2037 84.3247 35.4449C84.5892 35.6869 84.939 35.8075 85.3743 35.8068C85.7296 35.8163 86.0773 35.702 86.3593 35.4833C86.4965 35.357 86.6724 35.2823 86.8575 35.2717ZM86.8954 33.405C86.8981 33.1763 86.8549 32.9495 86.7683 32.7382C86.6865 32.5413 86.5667 32.3628 86.4157 32.2135C86.2666 32.0673 86.0931 31.949 85.9032 31.864C85.716 31.7787 85.513 31.7346 85.3077 31.7344C85.1025 31.7328 84.8995 31.7771 84.7132 31.864C84.5326 31.9483 84.3698 32.0669 84.2335 32.2135C84.0929 32.366 83.9819 32.5441 83.9065 32.7382C83.8239 32.9505 83.7829 33.1769 83.7856 33.405H86.8954Z" fill="#20286D"/>
<path d="M91.6811 31.4398C91.7494 31.3361 91.8349 31.2154 91.9374 31.0779C92.0389 30.9403 92.1525 30.8122 92.2766 30.6952C92.397 30.5808 92.5302 30.4809 92.6733 30.3976C92.8072 30.3177 92.9597 30.2754 93.1151 30.2752C93.3153 30.2765 93.5074 30.3552 93.6522 30.495C93.7317 30.5659 93.7948 30.6537 93.8368 30.7521C93.8788 30.8506 93.8987 30.9572 93.8951 31.0644C93.8997 31.2517 93.8308 31.4333 93.7034 31.5694C93.5493 31.7213 93.3523 31.8209 93.1397 31.8546C92.9747 31.8935 92.8155 31.9541 92.6661 32.035C92.5003 32.1251 92.3528 32.2462 92.2315 32.3918C92.0955 32.5558 91.9874 32.7415 91.9117 32.9414C91.8215 33.1857 91.7781 33.445 91.7836 33.7057V36.373C91.7866 36.4892 91.766 36.6048 91.7232 36.7127C91.6803 36.8206 91.6161 36.9185 91.5345 37.0004C91.4555 37.0821 91.3609 37.1465 91.2563 37.1899C91.1518 37.2332 91.0396 37.2545 90.9267 37.2524C90.8118 37.2551 90.6975 37.2342 90.5908 37.1909C90.4841 37.1477 90.3871 37.0831 90.3058 37.0009C90.2245 36.9187 90.1605 36.8207 90.1176 36.7127C90.0747 36.6048 90.054 36.4892 90.0565 36.373V31.0779C90.0555 30.9722 90.0754 30.8674 90.1149 30.7696C90.1545 30.6717 90.2129 30.5829 90.2867 30.5081C90.3606 30.4334 90.4484 30.3743 90.5451 30.3343C90.6418 30.2943 90.7454 30.2742 90.8498 30.2752C91.0484 30.2729 91.2404 30.3471 91.3869 30.4826C91.4614 30.5476 91.5223 30.627 91.5663 30.7159C91.6103 30.8049 91.6364 30.9019 91.6432 31.0011L91.6811 31.4398Z" fill="#20286D"/>
<path d="M94.8125 32.2684C94.8143 32.0119 94.8702 31.7588 94.9765 31.5259C95.0867 31.2802 95.2482 31.0615 95.45 30.885C95.682 30.687 95.9492 30.5357 96.2372 30.4391C96.5919 30.3208 96.9637 30.264 97.3371 30.2711C97.9268 30.2711 98.4089 30.381 98.7833 30.6009C99.132 30.793 99.4137 31.0892 99.59 31.4492C99.6238 31.5122 99.6493 31.5795 99.6659 31.6493C99.6746 31.6941 99.6791 31.7396 99.6792 31.7852C99.6805 31.9803 99.607 32.1684 99.4742 32.3099C99.4121 32.3819 99.3354 32.4394 99.2492 32.4785C99.163 32.5175 99.0694 32.5371 98.975 32.536C98.8366 32.538 98.7007 32.4975 98.5855 32.4198C98.467 32.3385 98.3718 32.2269 98.3098 32.0963C98.1386 31.751 97.7973 31.5778 97.2848 31.5778C96.9356 31.5778 96.6964 31.6469 96.5673 31.7852C96.5069 31.8415 96.4583 31.9096 96.4243 31.9853C96.3903 32.061 96.3717 32.1428 96.3695 32.2259C96.3674 32.3481 96.4081 32.4671 96.4843 32.5619C96.5688 32.6629 96.6736 32.7446 96.7918 32.8015C96.9333 32.8719 97.0812 32.9281 97.2335 32.9695L97.7645 33.1188C98.0207 33.1879 98.2811 33.2657 98.5455 33.3521C98.7987 33.4339 99.0399 33.5493 99.263 33.6954C99.4796 33.8367 99.6629 34.0243 99.8001 34.245C99.9503 34.5034 100.024 34.8 100.012 35.0995C100.006 35.2757 99.9861 35.4511 99.9539 35.6243C99.9053 35.8862 99.7957 36.1325 99.6341 36.343C99.4228 36.6145 99.1509 36.8317 98.8407 36.9766C98.4875 37.1584 97.9992 37.249 97.376 37.2483C97.036 37.2535 96.6966 37.2166 96.3654 37.1384C96.1062 37.0777 95.8563 36.9821 95.6222 36.8542C95.4356 36.7507 95.2653 36.6197 95.1169 36.4653C94.9936 36.3358 94.8881 36.19 94.8033 36.0318C94.7685 35.9561 94.7387 35.8782 94.7141 35.7985C94.697 35.7396 94.6883 35.6785 94.6885 35.617C94.6864 35.4236 94.7601 35.2372 94.8935 35.0985C94.9784 35.0127 95.0826 34.949 95.1972 34.9128C95.3118 34.8766 95.4333 34.869 95.5514 34.8906C95.6695 34.9122 95.7807 34.9624 95.8755 35.0369C95.9703 35.1114 96.0459 35.2079 96.0958 35.3184C96.1969 35.4822 96.3323 35.6217 96.4925 35.727C96.6893 35.869 97.005 35.9406 97.4273 35.9406C97.6199 35.9474 97.8122 35.9211 97.9961 35.8628C98.1138 35.8249 98.2226 35.7632 98.3159 35.6813C98.3808 35.6253 98.4276 35.5509 98.4502 35.4677C98.4659 35.4063 98.4745 35.3433 98.4758 35.28C98.4794 35.1605 98.4409 35.0436 98.3672 34.9502C98.2879 34.8534 98.1899 34.7739 98.0792 34.7169C97.9429 34.6449 97.7992 34.5882 97.6507 34.5478C97.4847 34.5012 97.3114 34.4555 97.1331 34.412C96.8673 34.3518 96.5984 34.2786 96.3264 34.1921C96.0608 34.1093 95.8087 33.9873 95.5782 33.8302C95.3505 33.6732 95.1621 33.4648 95.0277 33.2215C94.876 32.9279 94.8018 32.5996 94.8125 32.2684Z" fill="#20286D"/>
<path d="M104.976 31.7634C104.895 31.7647 104.814 31.7487 104.739 31.7163C104.664 31.684 104.597 31.6361 104.542 31.5757C104.484 31.517 104.438 31.4473 104.408 31.3705C104.377 31.2938 104.361 31.2116 104.362 31.1287C104.362 30.9637 104.427 30.8054 104.543 30.6888C104.658 30.5721 104.814 30.5065 104.977 30.5065H105.22V29.5483C105.219 29.315 105.265 29.0838 105.355 28.869C105.531 28.4485 105.861 28.1137 106.277 27.9357C106.49 27.8446 106.719 27.7984 106.95 27.7998H107.96C108.15 27.7998 108.333 27.8763 108.468 28.0125C108.602 28.1486 108.678 28.3332 108.678 28.5258C108.678 28.7183 108.602 28.9029 108.468 29.0391C108.333 29.1752 108.15 29.2517 107.96 29.2517H107.5C107.244 29.2517 107.09 29.2932 107.033 29.3751C106.966 29.5048 106.938 29.6507 106.95 29.7961V30.5075H108.049C108.216 30.5075 108.375 30.5744 108.493 30.6934C108.611 30.8125 108.677 30.9739 108.677 31.1422C108.677 31.3105 108.611 31.472 108.493 31.591C108.375 31.71 108.216 31.7769 108.049 31.7769H106.95V36.3855C106.95 36.4996 106.928 36.6127 106.886 36.7183C106.843 36.8239 106.78 36.9198 106.7 37.0004C106.62 37.0811 106.525 37.1449 106.421 37.1881C106.316 37.2314 106.204 37.2533 106.092 37.2524C105.978 37.2547 105.864 37.2336 105.759 37.1903C105.653 37.1469 105.557 37.0824 105.477 37.0004C105.396 36.9206 105.332 36.8249 105.289 36.7191C105.246 36.6134 105.224 36.4998 105.226 36.3855V31.7634H104.976Z" fill="#20286D"/>
<path d="M115.815 33.7701C115.818 34.2359 115.731 34.6978 115.559 35.1296C115.395 35.5416 115.154 35.9175 114.849 36.2362C114.543 36.5536 114.178 36.8066 113.775 36.9808C113.347 37.1601 112.888 37.2525 112.425 37.2525C111.962 37.2525 111.503 37.1601 111.075 36.9808C110.671 36.8073 110.306 36.5541 110 36.2362C109.695 35.9173 109.453 35.5415 109.29 35.1296C108.949 34.256 108.949 33.2842 109.29 32.4105C109.455 31.9976 109.696 31.62 110 31.2978C110.305 30.9766 110.67 30.7212 111.075 30.547C111.503 30.3676 111.962 30.2753 112.425 30.2753C112.888 30.2753 113.347 30.3676 113.775 30.547C114.18 30.7218 114.545 30.9771 114.85 31.2978C115.154 31.6198 115.395 31.9974 115.56 32.4105C115.732 32.8424 115.819 33.3044 115.815 33.7701ZM114.1 33.796C114.106 33.4867 114.054 33.1791 113.946 32.8896C113.856 32.6504 113.721 32.4307 113.55 32.2425C113.397 32.0768 113.212 31.9448 113.006 31.8547C112.823 31.7718 112.625 31.7276 112.424 31.7251C112.218 31.7268 112.015 31.7731 111.829 31.8609C111.625 31.954 111.442 32.0885 111.291 32.256C111.123 32.4456 110.991 32.665 110.901 32.9031C110.793 33.1926 110.741 33.5002 110.747 33.8095C110.742 34.1053 110.792 34.3996 110.895 34.6765C110.982 34.9091 111.112 35.1224 111.279 35.3049C111.429 35.4681 111.612 35.5962 111.816 35.6803C112.009 35.7611 112.215 35.8027 112.424 35.8027C112.633 35.8027 112.839 35.7611 113.032 35.6803C113.236 35.5957 113.419 35.4677 113.569 35.3049C113.736 35.1222 113.866 34.9089 113.953 34.6765C114.056 34.3949 114.106 34.0962 114.1 33.796Z" fill="#20286D"/>
<path d="M118.848 31.4398C118.915 31.3361 119.001 31.2158 119.104 31.0779C119.205 30.9403 119.318 30.8122 119.442 30.6952C119.563 30.5813 119.696 30.4815 119.839 30.3976C119.973 30.3178 120.125 30.2755 120.281 30.2752C120.481 30.2765 120.673 30.3552 120.818 30.4951C120.898 30.5658 120.961 30.6536 121.003 30.752C121.045 30.8505 121.065 30.9571 121.062 31.0644C121.066 31.2519 120.997 31.4334 120.869 31.5694C120.715 31.7213 120.519 31.8209 120.306 31.8546C120.141 31.8931 119.982 31.9538 119.833 32.0351C119.667 32.1251 119.519 32.2462 119.398 32.3918C119.262 32.5558 119.154 32.7415 119.078 32.9414C118.988 33.1855 118.944 33.445 118.95 33.7057V36.373C118.953 36.4893 118.933 36.605 118.89 36.713C118.847 36.8209 118.782 36.9187 118.7 37.0004C118.621 37.0822 118.527 37.1467 118.422 37.19C118.317 37.2334 118.205 37.2546 118.092 37.2524C117.977 37.2548 117.863 37.2337 117.757 37.1903C117.65 37.147 117.553 37.0823 117.472 37.0002C117.391 36.9181 117.327 36.8202 117.284 36.7124C117.241 36.6046 117.22 36.4892 117.222 36.373V31.0779C117.221 30.9722 117.241 30.8674 117.281 30.7696C117.32 30.6717 117.378 30.5829 117.452 30.5081C117.526 30.4334 117.614 30.3743 117.711 30.3343C117.807 30.2943 117.911 30.2742 118.015 30.2752C118.214 30.2729 118.407 30.347 118.554 30.4826C118.628 30.5476 118.689 30.6269 118.733 30.7159C118.777 30.8049 118.802 30.9019 118.809 31.0011L118.848 31.4398Z" fill="#20286D"/>
<path d="M74.4447 44.1923C74.4403 44.0483 74.4645 43.9049 74.5159 43.7706C74.5673 43.6363 74.6449 43.5138 74.744 43.4104C74.843 43.307 74.9617 43.2247 75.0928 43.1686C75.2239 43.1124 75.3648 43.0835 75.5071 43.0835C75.6495 43.0835 75.7904 43.1124 75.9215 43.1686C76.0526 43.2247 76.1712 43.307 76.2703 43.4104C76.3694 43.5138 76.447 43.6363 76.4984 43.7706C76.5498 43.9049 76.574 44.0483 76.5696 44.1923V51.4816C76.5702 51.6573 76.5354 51.8313 76.4671 51.9929C76.4016 52.1489 76.3057 52.29 76.1852 52.4077C76.0658 52.5244 75.927 52.6188 75.7752 52.6867C75.6178 52.7561 75.4477 52.7914 75.276 52.7904C75.0441 52.7924 74.8162 52.73 74.6169 52.6099C74.4176 52.4904 74.2524 52.3207 74.1372 52.1173L71.464 47.0815V51.716C71.4684 51.86 71.4442 52.0034 71.3928 52.1377C71.3414 52.272 71.2639 52.3945 71.1648 52.4979C71.0657 52.6013 70.9471 52.6836 70.816 52.7397C70.6849 52.7959 70.544 52.8248 70.4016 52.8248C70.2592 52.8248 70.1183 52.7959 69.9872 52.7397C69.8561 52.6836 69.7375 52.6013 69.6384 52.4979C69.5393 52.3945 69.4618 52.272 69.4104 52.1377C69.359 52.0034 69.3348 51.86 69.3392 51.716V44.4381C69.3379 44.2623 69.3728 44.0882 69.4417 43.9268C69.5084 43.7696 69.6041 43.6268 69.7236 43.5058C69.9725 43.2576 70.3079 43.1183 70.6574 43.1179C70.8863 43.1175 71.1113 43.1776 71.3103 43.2921C71.513 43.4079 71.6777 43.5813 71.7838 43.791L74.4488 49.0342L74.4447 44.1923Z" fill="#20286D"/>
<path d="M78.4248 44.4121C78.423 44.2705 78.4493 44.13 78.502 43.9988C78.5547 43.8677 78.6329 43.7485 78.7318 43.6484C78.8308 43.5482 78.9486 43.4692 79.0782 43.4158C79.2079 43.3625 79.3467 43.3359 79.4867 43.3377H82.084C82.679 43.3339 83.2679 43.4576 83.8122 43.7007C84.3406 43.9372 84.8186 44.2753 85.2195 44.6963C86.0521 45.5735 86.5171 46.7426 86.5171 47.9588C86.5171 49.175 86.0521 50.3441 85.2195 51.2213C84.8179 51.6401 84.34 51.9764 83.8122 52.2117C83.2679 52.4544 82.6789 52.5778 82.084 52.5736H79.4867C79.3467 52.5757 79.2077 52.5493 79.0779 52.4961C78.9481 52.4428 78.8302 52.3638 78.7312 52.2636C78.6322 52.1634 78.554 52.0441 78.5014 51.9128C78.4488 51.7815 78.4227 51.6409 78.4248 51.4992V44.4121ZM80.5486 50.7951H81.8411C82.1898 50.797 82.5347 50.722 82.8518 50.5752C83.166 50.4295 83.4488 50.2227 83.6841 49.9665C83.9259 49.7025 84.1168 49.3951 84.2468 49.0601C84.5202 48.3526 84.5202 47.567 84.2468 46.8595C83.9907 46.1939 83.4912 45.6535 82.8518 45.3506C82.5358 45.1999 82.1905 45.1227 81.8411 45.1245H80.5486V50.7951Z" fill="#20286D"/>
<path d="M89.2119 52.7852C89.0721 52.7873 88.9334 52.761 88.8038 52.7079C88.6742 52.6549 88.5565 52.5761 88.4575 52.4763C88.3585 52.3764 88.2803 52.2575 88.2275 52.1266C88.1747 51.9956 88.1483 51.8553 88.15 51.7139V44.1923C88.15 43.9074 88.2619 43.6341 88.461 43.4326C88.6601 43.2311 88.9302 43.1179 89.2119 43.1179C89.4935 43.1179 89.7636 43.2311 89.9628 43.4326C90.1619 43.6341 90.2738 43.9074 90.2738 44.1923V51.7139C90.2752 51.8553 90.2486 51.9954 90.1957 52.1262C90.1428 52.257 90.0646 52.3758 89.9656 52.4756C89.8667 52.5754 89.7491 52.6542 89.6196 52.7074C89.4902 52.7605 89.3516 52.787 89.2119 52.7852Z" fill="#20286D"/>
<path d="M97.4652 46.0444C97.2924 46.0464 97.1222 46.0017 96.9722 45.9148C96.8281 45.8342 96.7106 45.7127 96.6339 45.5653C96.5254 45.3777 96.3712 45.2213 96.186 45.1111C95.955 44.9681 95.6879 44.8961 95.4173 44.9037C95.2623 44.8995 95.1081 44.9259 94.9632 44.9815C94.8496 45.0261 94.7453 45.0919 94.6557 45.1754C94.5788 45.2466 94.5194 45.335 94.4825 45.4336C94.45 45.5209 94.4327 45.6131 94.4312 45.7063C94.4288 45.8369 94.4744 45.9637 94.5593 46.0621C94.67 46.18 94.8027 46.2745 94.9499 46.34C95.1591 46.4409 95.3749 46.5275 95.5956 46.5992C95.8519 46.6853 96.1542 46.7807 96.5048 46.8844L96.6196 46.9104C96.815 46.9705 97.0559 47.0545 97.3422 47.1624C97.6387 47.276 97.9171 47.4333 98.1684 47.629C98.4444 47.8457 98.6748 48.1162 98.8459 48.4244C99.0454 48.8021 99.1426 49.2264 99.1277 49.6544C99.1305 50.0728 99.0478 50.4873 98.8848 50.8718C98.7227 51.2508 98.4826 51.5905 98.1807 51.8684C97.8526 52.1662 97.4694 52.3949 97.0532 52.5415C96.5634 52.712 96.0479 52.7945 95.53 52.7852C94.7278 52.7852 94.0516 52.63 93.5015 52.3195C92.9514 52.0091 92.5527 51.6209 92.3053 51.1549C92.2459 51.0562 92.2007 50.9493 92.1711 50.8376C92.1502 50.7507 92.1396 50.6616 92.1393 50.5721C92.1368 50.3018 92.2348 50.0405 92.414 49.84C92.5033 49.7371 92.6138 49.6553 92.7378 49.6005C92.8618 49.5456 92.9962 49.5191 93.1315 49.5226C93.3291 49.518 93.5226 49.5796 93.6819 49.6979C93.8473 49.8275 93.9865 49.988 94.0919 50.1708C94.2383 50.4053 94.4296 50.6077 94.6547 50.7661C94.9249 50.9413 95.2422 51.0271 95.5628 51.0118C96.0145 51.0118 96.3708 50.8953 96.6319 50.6624C96.7565 50.5562 96.8561 50.4233 96.9237 50.2734C96.9912 50.1234 97.025 49.9602 97.0224 49.7954C97.0287 49.6182 96.9791 49.4435 96.881 49.2966C96.7717 49.149 96.6317 49.0276 96.471 48.9409C96.2591 48.823 96.0358 48.7275 95.8047 48.6557C95.5403 48.57 95.2375 48.4749 94.8966 48.3705L94.833 48.3581C94.6106 48.2886 94.3554 48.2025 94.0653 48.0988C93.7706 47.9928 93.4924 47.8448 93.2391 47.6591C92.974 47.4637 92.75 47.217 92.58 46.9332C92.3899 46.5944 92.2969 46.2087 92.3115 45.8194C92.3111 45.4687 92.3786 45.1213 92.5103 44.7969C92.6422 44.4695 92.8405 44.1738 93.0925 43.9289C93.369 43.6665 93.6954 43.4639 94.052 43.3336C94.4832 43.1793 94.9384 43.1048 95.3957 43.1138C95.7384 43.1098 96.0803 43.1488 96.4136 43.2299C96.6956 43.2999 96.9682 43.4043 97.2253 43.541C97.4462 43.6574 97.6506 43.8032 97.8332 43.9745C97.9872 44.1187 98.1229 44.2817 98.237 44.4598C98.3019 44.5592 98.3556 44.6656 98.3969 44.7772C98.4263 44.8668 98.4412 44.9607 98.441 45.0551C98.4415 45.1815 98.4178 45.3069 98.3713 45.4243C98.3244 45.5409 98.2547 45.6467 98.1663 45.7354C98.0753 45.8267 97.9691 45.9011 97.8526 45.9552C97.7313 46.0127 97.5992 46.0431 97.4652 46.0444Z" fill="#20286D"/>
<path d="M25.791 12.3532C28.1822 12.3532 30.1206 10.392 30.1206 7.97273C30.1206 5.55348 28.1822 3.59229 25.791 3.59229C23.3999 3.59229 21.4614 5.55348 21.4614 7.97273C21.4614 10.392 23.3999 12.3532 25.791 12.3532Z" fill="#F7A600"/>
<path d="M35.6013 37.3002C35.6013 37.3002 27.1563 32.9031 18.86 36.1511C18.3659 34.6516 17.4322 25.4209 22.96 21.1628C25.3431 19.3262 26.5618 20.4742 33.7912 14.7674C39.2565 10.4544 40.9354 6.04075 41.0687 5.65808C41.1773 7.40653 40.6587 14.5009 32.1973 20.7988C29.7024 22.6551 24.3448 24.3133 23.1435 31.025C25.791 30.9877 32.8195 31.1879 35.6013 37.3002Z" fill="#F7A600"/>
<path d="M13.6858 22.7972C10.2575 23.8411 7.25769 25.9847 5.13899 28.9046C3.02029 31.8245 1.89761 35.3623 1.94032 38.9843C2.04282 47.7877 9.42282 55.3031 18.1189 55.4659C21.8384 55.5357 25.4721 54.3318 28.4304 52.0498C31.3887 49.7677 33.4981 46.5413 34.4164 42.8939C34.4918 42.5885 34.4993 42.2699 34.4384 41.9612C34.3774 41.6524 34.2495 41.3612 34.064 41.1085C33.8784 40.8557 33.6397 40.6478 33.3651 40.4996C33.0906 40.3514 32.7869 40.2667 32.4761 40.2516C31.9944 40.2265 31.519 40.3702 31.1298 40.6584C30.7407 40.9467 30.4618 41.3619 30.34 41.8341C29.6683 44.5133 28.133 46.8895 25.9768 48.5868C23.8206 50.2842 21.1666 51.2057 18.4346 51.2058C11.6143 51.2058 6.05775 45.5021 6.15717 38.5975C6.19618 35.9602 7.06336 33.4038 8.63328 31.2981C10.2032 29.1924 12.3945 27.6466 14.8902 26.8842C15.3833 26.7356 15.8059 26.41 16.0786 25.9685C16.3513 25.5271 16.4554 25.0001 16.3713 24.4865C16.3215 24.1882 16.2097 23.904 16.0431 23.6527C15.8765 23.4015 15.659 23.1889 15.4051 23.0292C15.1511 22.8694 14.8665 22.7661 14.5701 22.7261C14.2737 22.6861 13.9723 22.7104 13.6858 22.7972Z" fill="#20286D"/>
<path d="M40.9682 4.9913C40.9682 4.9913 40.1482 4.04345 40.2394 3.09145C40.3307 2.13945 40.8749 1.25175 40.6761 0.531006C40.6761 0.531006 42.3161 1.20093 42.1644 2.96701C42.0691 4.10775 41.2265 4.85649 41.2265 4.85649C41.2265 4.85649 40.6915 3.43678 41.1619 2.11456C41.1619 2.11456 40.5664 2.95975 40.9682 4.9913Z" fill="#13A538"/>
<path d="M39.2493 7.39092C39.2493 7.39092 38.4242 6.90559 38.2592 6.19107C38.0941 5.47655 38.2756 4.6967 37.9568 4.2207C37.9568 4.2207 39.3067 4.30263 39.6275 5.62174C39.8325 6.47522 39.4041 7.22811 39.4041 7.22811C39.4041 7.22811 38.6722 6.329 38.6927 5.25152C38.6927 5.25255 38.4652 6.01478 39.2493 7.39092Z" fill="#13A538"/>
<path d="M41.7247 7.36297C41.7247 7.36297 42.6256 7.68134 43.2693 7.34431C43.913 7.00727 44.3825 6.36016 44.9452 6.2969C44.9452 6.2969 44.0063 5.31068 42.8071 5.92149C42.0311 6.3166 41.7452 7.1369 41.7452 7.1369C41.7452 7.1369 42.8962 7.11616 43.6927 6.4006C43.6927 6.4006 43.2683 7.07053 41.7247 7.36297Z" fill="#13A538"/>
<path d="M42.3755 4.77034C42.3755 4.77034 43.1156 5.03271 43.6435 4.75582C44.1713 4.47893 44.5567 3.949 45.019 3.89715C45.019 3.89715 44.2492 3.08723 43.2642 3.58604C42.8671 3.80486 42.5587 4.158 42.393 4.58367C42.393 4.58367 43.338 4.56604 43.9909 3.97908C43.9909 3.9853 43.6424 4.53493 42.3755 4.77034Z" fill="#13A538"/>
<path d="M44.4368 5.52326C44.4368 5.52326 44.9493 5.70475 45.3163 5.51289C45.6832 5.32104 45.9497 4.95289 46.2706 4.9166C46.2706 4.9166 45.7365 4.35556 45.0529 4.70297C44.7781 4.85441 44.5645 5.09841 44.4491 5.3926C44.4491 5.3926 45.1041 5.38119 45.5572 4.97778C45.5572 4.97778 45.3153 5.35734 44.4368 5.52326Z" fill="#13A538"/>
<path d="M38.7542 3.56841C38.7542 3.56841 38.0972 3.2573 37.9239 2.73152C37.7507 2.20574 37.8348 1.60115 37.5611 1.26515C37.5611 1.26515 38.5861 1.23196 38.9192 2.20678C39.0423 2.61081 39.0213 3.04573 38.8598 3.43567C38.8598 3.43567 38.2448 2.80722 38.1884 1.99211C38.1884 1.99211 38.0674 2.58322 38.7542 3.56841Z" fill="#13A538"/>
<path d="M37.1798 4.06722C37.1798 4.06722 36.6366 3.95626 36.4141 3.59537C36.1917 3.23448 36.1466 2.76574 35.8842 2.57078C35.8842 2.57078 36.6417 2.36337 37.0609 3.02396C37.224 3.30227 37.2856 3.62953 37.2352 3.949C37.2352 3.949 36.6663 3.59329 36.4787 2.997C36.4787 2.997 36.49 3.45952 37.1798 4.06722Z" fill="#13A538"/>
</svg>
