<svg width="212" height="96" viewBox="0 0 212 96" fill="none" xmlns="http://www.w3.org/2000/svg">
<path d="M77.8712 63.861C77.4496 63.861 77.0451 63.6924 76.747 63.3923C76.4488 63.0923 76.2812 62.6853 76.2812 62.261V49.2583C76.2812 48.8339 76.4488 48.427 76.747 48.1269C77.0451 47.8269 77.4496 47.6583 77.8712 47.6583H82.1501C82.852 47.6544 83.547 47.7979 84.1906 48.0796C85.4423 48.6175 86.4409 49.6185 86.9802 50.8761C87.2608 51.5198 87.4035 52.2158 87.3989 52.9187C87.4042 53.6321 87.2616 54.3387 86.9802 54.9934C86.711 55.6225 86.3214 56.1922 85.8336 56.6698C85.3435 57.1459 84.7719 57.529 84.1464 57.8005C83.5028 58.0822 82.8078 58.2257 82.106 58.2218H79.456V62.2627C79.4571 62.4732 79.4168 62.6818 79.3373 62.8764C79.2578 63.0711 79.1407 63.2479 78.9929 63.3967C78.845 63.5455 78.6692 63.6633 78.4758 63.7433C78.2824 63.8233 78.0751 63.8639 77.866 63.8627L77.8712 63.861ZM79.4612 50.3018V55.5836H81.6449C81.9938 55.5842 82.339 55.5121 82.6589 55.3721C82.9741 55.2374 83.2621 55.0458 83.5087 54.8067C83.7511 54.5689 83.946 54.2864 84.0829 53.9747C84.2204 53.6483 84.2913 53.2973 84.2913 52.9427C84.2913 52.5881 84.2204 52.2372 84.0829 51.9107C83.946 51.599 83.7511 51.3166 83.5087 51.0787C83.2622 50.8391 82.9742 50.6469 82.6589 50.5116C82.3389 50.3721 81.9936 50.3007 81.6449 50.3018H79.4612Z" fill="white"/>
<path d="M92.8913 53.8969C93.0079 53.7191 93.1563 53.5129 93.333 53.2764C93.5074 53.0406 93.7025 52.8211 93.916 52.6204C94.1242 52.4251 94.3535 52.254 94.5997 52.1102C94.8305 51.9734 95.0933 51.901 95.3611 51.9004C95.7062 51.9027 96.0373 52.0375 96.2869 52.2773C96.4243 52.3986 96.5332 52.5491 96.6059 52.7178C96.6787 52.8866 96.7133 53.0695 96.7073 53.2533C96.7145 53.5747 96.5951 53.8859 96.3752 54.1191C96.1101 54.3794 95.7712 54.5503 95.4053 54.608C95.1207 54.674 94.8462 54.778 94.5891 54.9173C94.3033 55.0717 94.0491 55.2792 93.84 55.5289C93.6056 55.81 93.4193 56.1284 93.2888 56.4711C93.133 56.8885 93.058 57.332 93.068 57.7778V62.3502C93.0732 62.5496 93.0376 62.748 92.9635 62.933C92.8893 63.118 92.7782 63.2858 92.6369 63.4257C92.5009 63.5659 92.3377 63.6766 92.1575 63.7509C91.9774 63.8252 91.784 63.8616 91.5893 63.8578C91.3913 63.8619 91.1946 63.8257 91.0109 63.7514C90.8272 63.6771 90.6603 63.5663 90.5202 63.4255C90.3802 63.2847 90.2698 63.1168 90.1958 62.9321C90.1217 62.7473 90.0855 62.5494 90.0894 62.3502V53.2764C90.0877 53.0953 90.122 52.9156 90.1901 52.7479C90.2582 52.5802 90.3589 52.4278 90.4862 52.2997C90.6135 52.1716 90.7649 52.0703 90.9316 52.0018C91.0982 51.9332 91.2768 51.8988 91.4568 51.9004C91.7995 51.8965 92.131 52.0235 92.3843 52.256C92.5126 52.3673 92.6176 52.5033 92.6931 52.6559C92.7686 52.8085 92.8132 52.9747 92.8242 53.1449L92.8913 53.8969Z" fill="white"/>
<path d="M109.542 57.8916C109.548 58.6899 109.398 59.4816 109.102 60.2222C108.82 60.9283 108.404 61.5725 107.878 62.1191C107.35 62.6639 106.72 63.0977 106.025 63.3956C105.287 63.7031 104.496 63.8614 103.698 63.8614C102.9 63.8614 102.109 63.7031 101.371 63.3956C100.676 63.0977 100.046 62.6639 99.5181 62.1191C98.992 61.5725 98.5762 60.9283 98.2938 60.2222C97.7073 58.7245 97.7073 57.0586 98.2938 55.5609C98.5785 54.8529 98.9939 54.2057 99.5181 53.6534C100.043 53.1031 100.674 52.6653 101.371 52.3662C102.109 52.0587 102.9 51.9005 103.698 51.9005C104.496 51.9005 105.287 52.0587 106.025 52.3662C106.722 52.6653 107.353 53.1031 107.878 53.6534C108.402 54.2057 108.818 54.8529 109.102 55.5609C109.398 56.3015 109.548 57.0933 109.542 57.8916ZM106.588 57.936C106.599 57.4058 106.509 56.8785 106.323 56.3822C106.167 55.9724 105.935 55.596 105.64 55.2729C105.376 54.9884 105.057 54.762 104.702 54.608C104.386 54.4659 104.044 54.3902 103.698 54.3858C103.344 54.3887 102.994 54.4681 102.673 54.6187C102.321 54.7777 102.005 55.0083 101.746 55.296C101.456 55.621 101.227 55.9971 101.073 56.4054C100.888 56.9019 100.799 57.4291 100.81 57.9591C100.799 58.4662 100.885 58.9705 101.062 59.4454C101.213 59.8437 101.437 60.2094 101.725 60.5227C101.983 60.8021 102.299 61.0217 102.65 61.1662C102.983 61.3047 103.339 61.376 103.698 61.376C104.058 61.376 104.414 61.3047 104.746 61.1662C105.097 61.0217 105.413 60.8021 105.671 60.5227C105.959 60.2094 106.183 59.8437 106.334 59.4454C106.513 58.963 106.599 58.4508 106.588 57.936Z" fill="white"/>
<path d="M111.042 53.7871C110.981 53.6391 110.951 53.4799 110.954 53.3196C110.952 53.1352 110.985 52.9521 111.054 52.781C111.122 52.6098 111.223 52.4539 111.351 52.3222C111.474 52.1869 111.624 52.0794 111.791 52.0067C111.959 51.9341 112.139 51.898 112.321 51.9009C112.61 51.8983 112.892 51.9872 113.127 52.1551C113.364 52.318 113.539 52.5568 113.623 52.8325L116.005 60.1782L118.367 52.8325C118.452 52.5568 118.626 52.318 118.863 52.1551C119.098 51.9872 119.38 51.8983 119.669 51.9009C119.852 51.8957 120.034 51.9295 120.202 51.9999C120.371 52.0704 120.524 52.176 120.649 52.3098C120.903 52.5747 121.042 52.9302 121.036 53.2982C121.041 53.4656 121.01 53.632 120.948 53.7871L117.704 62.6867C117.579 63.0344 117.348 63.3332 117.044 63.54C116.74 63.7533 116.377 63.8658 116.007 63.8618C115.633 63.8647 115.267 63.7524 114.959 63.54C114.65 63.3359 114.414 63.0365 114.288 62.6867L111.042 53.7871Z" fill="white"/>
<path d="M124.695 50.5905C124.476 50.5953 124.259 50.5556 124.056 50.4737C123.853 50.3918 123.669 50.2694 123.515 50.1139C123.36 49.9584 123.239 49.773 123.157 49.569C123.076 49.3649 123.036 49.1463 123.041 48.9265C123.037 48.7098 123.076 48.4946 123.158 48.294C123.239 48.0934 123.361 47.9118 123.515 47.7603C123.668 47.6038 123.853 47.4808 124.056 47.3989C124.259 47.3169 124.476 47.2778 124.695 47.2838C124.91 47.2822 125.123 47.3235 125.321 47.4055C125.52 47.4874 125.701 47.6084 125.853 47.7612C126.005 47.9141 126.125 48.0959 126.206 48.2959C126.288 48.4959 126.329 48.7103 126.327 48.9265C126.333 49.1466 126.293 49.3655 126.212 49.5697C126.13 49.7739 126.007 49.9592 125.852 50.114C125.702 50.2689 125.521 50.391 125.322 50.473C125.123 50.5549 124.91 50.5949 124.695 50.5905ZM124.695 63.8616C124.497 63.8662 124.3 63.8304 124.116 63.7563C123.932 63.6822 123.765 63.5713 123.625 63.4304C123.484 63.2895 123.374 63.1215 123.3 62.9365C123.226 62.7515 123.191 62.5534 123.195 62.354V53.4083C123.191 53.2089 123.226 53.0108 123.3 52.8258C123.374 52.6408 123.484 52.4728 123.625 52.3319C123.765 52.191 123.932 52.0801 124.116 52.006C124.3 51.9319 124.497 51.8961 124.695 51.9007C124.889 51.8969 125.083 51.9333 125.263 52.0076C125.443 52.0819 125.606 52.1925 125.742 52.3327C125.883 52.473 125.994 52.6408 126.068 52.8258C126.141 53.0108 126.177 53.209 126.172 53.4083V62.354C126.177 62.5533 126.141 62.7515 126.068 62.9365C125.994 63.1214 125.883 63.2893 125.742 63.4296C125.606 63.5698 125.443 63.6804 125.263 63.7547C125.083 63.829 124.889 63.8654 124.695 63.8616Z" fill="white"/>
<path d="M128.437 57.9804C128.428 57.1463 128.562 56.3169 128.834 55.5289C129.072 54.8307 129.431 54.1806 129.894 53.6089C130.317 53.0913 130.838 52.6645 131.428 52.3538C131.989 52.0563 132.613 51.9007 133.247 51.9004C133.877 51.8919 134.497 52.0527 135.044 52.3662C135.58 52.6753 136.049 53.0901 136.422 53.5858V48.7858C136.418 48.5864 136.454 48.3883 136.528 48.2033C136.602 48.0184 136.712 47.8503 136.852 47.7093C136.992 47.5684 137.159 47.4573 137.343 47.3829C137.527 47.3085 137.724 47.2723 137.922 47.2764C138.117 47.2726 138.31 47.309 138.49 47.3833C138.67 47.4576 138.833 47.5683 138.97 47.7084C139.111 47.8488 139.222 48.0168 139.296 48.2021C139.37 48.3874 139.406 48.5861 139.401 48.7858V62.4569C139.399 62.8274 139.252 63.1822 138.992 63.444C138.731 63.7058 138.378 63.8533 138.01 63.8542C137.674 63.8551 137.349 63.7332 137.095 63.5111C136.964 63.4038 136.857 63.2707 136.779 63.12C136.701 62.9692 136.655 62.8041 136.643 62.6347L136.577 61.7013C136.167 62.3442 135.619 62.8865 134.973 63.2889C134.364 63.6668 133.661 63.8663 132.945 63.8649C132.316 63.8696 131.696 63.709 131.147 63.3991C130.59 63.0833 130.105 62.6525 129.725 62.1351C129.311 61.5669 128.994 60.9329 128.788 60.2595C128.554 59.5229 128.435 58.7539 128.437 57.9804ZM131.327 57.9804C131.322 58.464 131.385 58.9458 131.514 59.4115C131.623 59.8154 131.798 60.1982 132.032 60.544C132.235 60.8462 132.498 61.1033 132.804 61.2995C133.087 61.4815 133.416 61.5778 133.753 61.5769C134.102 61.5735 134.444 61.4779 134.745 61.2995C135.082 61.1023 135.375 60.838 135.606 60.5227C135.868 60.1626 136.069 59.7613 136.201 59.3351C136.353 58.8389 136.427 58.3218 136.42 57.8027C136.423 57.3381 136.363 56.8754 136.244 56.4267C136.138 56.027 135.966 55.6482 135.735 55.3067C135.529 55.0024 135.263 54.745 134.952 54.5511C134.658 54.3681 134.318 54.272 133.972 54.2738C133.62 54.2734 133.274 54.3653 132.968 54.5404C132.646 54.7303 132.366 54.9851 132.147 55.2889C131.889 55.6457 131.691 56.0427 131.562 56.464C131.407 56.9543 131.331 57.4661 131.334 57.9804H131.327Z" fill="white"/>
<path d="M149.706 60.4658C149.866 60.4661 150.025 60.4987 150.172 60.5616C150.32 60.6244 150.454 60.7164 150.566 60.832C150.685 60.9439 150.78 61.0797 150.845 61.2306C150.909 61.3815 150.942 61.5442 150.94 61.7084C150.937 61.9026 150.888 62.0932 150.797 62.2649C150.667 62.4983 150.49 62.7022 150.278 62.864C149.864 63.1836 149.398 63.4273 148.9 63.584C148.298 63.7767 147.668 63.8703 147.036 63.8613C146.277 63.871 145.524 63.7277 144.821 63.44C144.165 63.1696 143.575 62.761 143.089 62.2418C142.591 61.7028 142.204 61.0686 141.953 60.3769C141.674 59.6096 141.536 58.7976 141.545 57.9804C141.533 57.1221 141.683 56.2692 141.985 55.4667C142.256 54.7588 142.661 54.1109 143.178 53.5591C143.669 53.0382 144.262 52.6259 144.92 52.3484C145.591 52.0653 146.312 51.922 147.04 51.9271C147.824 51.919 148.6 52.0859 149.312 52.416C149.976 52.7227 150.578 53.1514 151.087 53.68C151.571 54.1858 151.96 54.7762 152.234 55.4222C152.498 56.0277 152.637 56.681 152.642 57.3422C152.642 57.9787 152.517 58.4409 152.267 58.7289C152.162 58.8631 152.027 58.9718 151.875 59.0469C151.722 59.122 151.554 59.1615 151.384 59.1627H144.547C144.601 59.7777 144.884 60.3493 145.34 60.7627C145.796 61.1775 146.399 61.3843 147.149 61.3831C147.762 61.3993 148.361 61.2035 148.847 60.8284C149.083 60.612 149.386 60.4839 149.706 60.4658ZM149.771 57.2658C149.776 56.8737 149.701 56.4848 149.552 56.1227C149.411 55.785 149.204 55.4792 148.944 55.2231C148.687 54.9725 148.388 54.7696 148.061 54.624C147.738 54.4778 147.388 54.4021 147.034 54.4018C146.681 54.3991 146.331 54.475 146.01 54.624C145.698 54.7685 145.418 54.9719 145.183 55.2231C144.941 55.4846 144.749 55.7898 144.619 56.1227C144.477 56.4865 144.406 56.8747 144.411 57.2658H149.771Z" fill="white"/>
<path d="M158.02 53.8969C158.137 53.7191 158.285 53.5123 158.461 53.2764C158.636 53.0406 158.832 52.821 159.046 52.6204C159.253 52.4243 159.483 52.2531 159.73 52.1102C159.96 51.9733 160.223 51.9008 160.491 51.9004C160.836 51.9027 161.167 52.0375 161.417 52.2773C161.554 52.3988 161.663 52.5493 161.735 52.718C161.807 52.8868 161.842 53.0696 161.836 53.2533C161.843 53.5745 161.725 53.8857 161.505 54.1191C161.239 54.3794 160.9 54.5503 160.533 54.608C160.249 54.6746 159.975 54.7786 159.717 54.9173C159.431 55.0717 159.177 55.2792 158.968 55.5289C158.734 55.81 158.548 56.1284 158.417 56.4711C158.262 56.8898 158.187 57.3344 158.196 57.7813V62.3537C158.201 62.553 158.166 62.7512 158.092 62.9362C158.018 63.1212 157.908 63.289 157.767 63.4293C157.631 63.5693 157.468 63.6799 157.287 63.7541C157.107 63.8284 156.914 63.8649 156.719 63.8613C156.521 63.8659 156.324 63.8301 156.14 63.756C155.956 63.6819 155.789 63.571 155.649 63.4301C155.509 63.2892 155.399 63.1212 155.325 62.9362C155.251 62.7512 155.215 62.5531 155.219 62.3537V53.2764C155.218 53.0953 155.252 52.9156 155.32 52.7479C155.388 52.5802 155.489 52.4278 155.616 52.2997C155.743 52.1716 155.895 52.0703 156.062 52.0018C156.228 51.9332 156.407 51.8988 156.587 51.9004C156.929 51.8965 157.26 52.0236 157.512 52.256C157.641 52.3675 157.746 52.5034 157.822 52.656C157.897 52.8085 157.942 52.9747 157.954 53.1449L158.02 53.8969Z" fill="white"/>
<path d="M163.417 55.3176C163.42 54.8779 163.516 54.4439 163.699 54.0447C163.889 53.6234 164.168 53.2486 164.516 52.946C164.915 52.6066 165.376 52.3471 165.872 52.1816C166.484 51.9788 167.125 51.8814 167.768 51.8936C168.784 51.8936 169.615 52.082 170.261 52.4589C170.862 52.7883 171.347 53.2961 171.651 53.9131C171.709 54.0213 171.753 54.1366 171.782 54.2563C171.797 54.333 171.805 54.411 171.805 54.4891C171.807 54.8237 171.68 55.1461 171.452 55.3887C171.345 55.5122 171.212 55.6107 171.064 55.6777C170.915 55.7446 170.754 55.7782 170.591 55.7763C170.353 55.7797 170.118 55.7103 169.92 55.5771C169.716 55.4377 169.552 55.2464 169.445 55.0225C169.15 54.4305 168.561 54.1336 167.678 54.1336C167.076 54.1336 166.664 54.2521 166.441 54.4891C166.337 54.5858 166.253 54.7024 166.195 54.8322C166.136 54.962 166.104 55.1022 166.1 55.2447C166.097 55.4542 166.167 55.6582 166.298 55.8207C166.444 55.9939 166.625 56.1338 166.828 56.2314C167.072 56.352 167.327 56.4485 167.59 56.5194L168.505 56.7754C168.946 56.8939 169.395 57.0272 169.851 57.1754C170.287 57.3156 170.703 57.5134 171.088 57.7638C171.461 58.0061 171.777 58.3277 172.013 58.706C172.272 59.149 172.399 59.6575 172.379 60.1709C172.367 60.4729 172.334 60.7735 172.278 61.0705C172.195 61.5194 172.006 61.9418 171.727 62.3025C171.363 62.7681 170.894 63.1403 170.36 63.3887C169.751 63.7004 168.909 63.8557 167.835 63.8545C167.249 63.8634 166.664 63.8001 166.093 63.666C165.647 63.5621 165.216 63.3982 164.812 63.1789C164.491 63.0015 164.197 62.7768 163.941 62.5123C163.729 62.2902 163.547 62.0402 163.401 61.7692C163.341 61.6394 163.29 61.5057 163.247 61.3692C163.218 61.2681 163.203 61.1633 163.203 61.058C163.199 60.7264 163.326 60.4068 163.556 60.1692C163.703 60.0221 163.882 59.9129 164.08 59.8509C164.277 59.7888 164.487 59.7757 164.69 59.8127C164.894 59.8498 165.086 59.9358 165.249 60.0635C165.412 60.1912 165.543 60.3567 165.629 60.546C165.803 60.827 166.036 61.0661 166.312 61.2465C166.651 61.49 167.196 61.6127 167.923 61.6127C168.255 61.6243 168.587 61.5792 168.904 61.4794C169.107 61.4145 169.294 61.3086 169.455 61.1683C169.567 61.0722 169.648 60.9447 169.687 60.802C169.714 60.6969 169.728 60.5889 169.731 60.4803C169.737 60.2754 169.671 60.0751 169.544 59.9149C169.407 59.7489 169.238 59.6128 169.047 59.5149C168.812 59.3916 168.565 59.2944 168.309 59.2252C168.022 59.1452 167.724 59.0669 167.416 58.9923C166.958 58.8891 166.495 58.7635 166.026 58.6154C165.568 58.4733 165.134 58.2643 164.736 57.9949C164.344 57.7258 164.019 57.3685 163.788 56.9514C163.526 56.4481 163.398 55.8853 163.417 55.3176Z" fill="white"/>
<path d="M180.935 54.452C180.795 54.4542 180.656 54.4267 180.526 54.3713C180.397 54.3158 180.281 54.2337 180.186 54.1302C180.086 54.0296 180.008 53.91 179.955 53.7784C179.901 53.6469 179.875 53.5059 179.877 53.364C179.877 53.0811 179.988 52.8097 180.187 52.6097C180.386 52.4097 180.656 52.2973 180.937 52.2973H181.355V50.6546C181.353 50.2547 181.432 49.8584 181.587 49.4902C181.89 48.7692 182.46 48.1954 183.177 47.8902C183.543 47.734 183.938 47.6548 184.336 47.6573H186.078C186.406 47.6573 186.72 47.7884 186.952 48.0218C187.184 48.2551 187.314 48.5717 187.314 48.9017C187.314 49.2318 187.184 49.5483 186.952 49.7817C186.72 50.0151 186.406 50.1462 186.078 50.1462H185.285C184.843 50.1462 184.578 50.2173 184.479 50.3577C184.365 50.5801 184.315 50.8302 184.336 51.0795V52.2991H186.231C186.518 52.2991 186.793 52.4137 186.996 52.6177C187.199 52.8218 187.313 53.0985 187.313 53.3871C187.313 53.6756 187.199 53.9524 186.996 54.1564C186.793 54.3604 186.518 54.4751 186.231 54.4751H184.336V62.3755C184.337 62.5712 184.3 62.7651 184.226 62.9461C184.152 63.127 184.043 63.2914 183.905 63.4297C183.768 63.568 183.604 63.6774 183.424 63.7515C183.244 63.8257 183.052 63.8631 182.857 63.8617C182.661 63.8657 182.465 63.8294 182.283 63.7552C182.101 63.6809 181.936 63.5702 181.797 63.4297C181.658 63.2929 181.547 63.1288 181.473 62.9475C181.399 62.7662 181.363 62.5715 181.366 62.3755V54.452H180.935Z" fill="white"/>
<path d="M199.616 57.8916C199.622 58.6901 199.472 59.482 199.174 60.2222C198.893 60.9285 198.478 61.5728 197.951 62.1191C197.424 62.6633 196.795 63.0971 196.1 63.3956C195.362 63.7031 194.572 63.8614 193.773 63.8614C192.975 63.8614 192.184 63.7031 191.447 63.3956C190.751 63.0982 190.121 62.6642 189.593 62.1191C189.067 61.5725 188.651 60.9283 188.369 60.2222C187.783 58.7245 187.783 57.0586 188.369 55.5609C188.654 54.8529 189.069 54.2057 189.593 53.6534C190.118 53.1027 190.749 52.6649 191.447 52.3662C192.184 52.0587 192.975 51.9005 193.773 51.9005C194.572 51.9005 195.362 52.0587 196.1 52.3662C196.797 52.6659 197.428 53.1036 197.953 53.6534C198.477 54.2054 198.892 54.8527 199.176 55.5609C199.473 56.3013 199.622 57.0932 199.616 57.8916ZM196.66 57.936C196.671 57.4058 196.581 56.8785 196.395 56.3822C196.239 55.972 196.007 55.5955 195.711 55.2729C195.448 54.9889 195.129 54.7625 194.775 54.608C194.459 54.4659 194.118 54.3902 193.772 54.3858C193.417 54.3888 193.067 54.4682 192.745 54.6187C192.394 54.7782 192.079 55.0088 191.819 55.296C191.529 55.621 191.301 55.9971 191.146 56.4054C190.96 56.9015 190.87 57.4289 190.881 57.9591C190.872 58.4663 190.958 58.9707 191.136 59.4454C191.285 59.8441 191.51 60.2099 191.798 60.5227C192.056 60.8025 192.372 61.0221 192.724 61.1662C193.056 61.3047 193.412 61.376 193.772 61.376C194.131 61.376 194.487 61.3047 194.819 61.1662C195.17 61.0212 195.486 60.8017 195.745 60.5227C196.032 60.2094 196.257 59.8437 196.407 59.4454C196.585 58.9626 196.671 58.4506 196.66 57.936Z" fill="white"/>
<path d="M204.843 53.8969C204.96 53.7191 205.108 53.5129 205.285 53.2764C205.459 53.0406 205.654 52.8211 205.868 52.6204C206.076 52.4251 206.305 52.254 206.552 52.1102C206.782 51.9734 207.045 51.901 207.313 51.9004C207.658 51.9027 207.989 52.0375 208.239 52.2773C208.376 52.3986 208.485 52.5491 208.558 52.7178C208.631 52.8866 208.665 53.0695 208.659 53.2533C208.666 53.5747 208.547 53.8859 208.327 54.1191C208.062 54.3794 207.723 54.5503 207.357 54.608C207.073 54.674 206.798 54.778 206.541 54.9173C206.255 55.0717 206.001 55.2792 205.792 55.5289C205.558 55.81 205.371 56.1284 205.241 56.4711C205.084 56.8896 205.009 57.3344 205.02 57.7813V62.3538C205.025 62.5532 204.99 62.7516 204.915 62.9366C204.841 63.1216 204.73 63.2893 204.589 63.4293C204.453 63.5695 204.29 63.6801 204.109 63.7544C203.929 63.8287 203.736 63.8651 203.541 63.8613C203.343 63.8654 203.147 63.8292 202.963 63.755C202.779 63.6807 202.612 63.5698 202.472 63.429C202.332 63.2882 202.222 63.1204 202.148 62.9356C202.074 62.7509 202.037 62.5529 202.041 62.3538V53.2764C202.04 53.0953 202.074 52.9156 202.142 52.7479C202.21 52.5802 202.311 52.4278 202.438 52.2997C202.565 52.1716 202.717 52.0703 202.883 52.0018C203.05 51.9332 203.229 51.8988 203.409 51.9004C203.751 51.8965 204.083 52.0235 204.336 52.256C204.465 52.3673 204.57 52.5033 204.645 52.6559C204.721 52.8085 204.765 52.9747 204.776 53.1449L204.843 53.8969Z" fill="white"/>
<path d="M128.311 75.7582C128.304 75.5114 128.345 75.2656 128.434 75.0353C128.523 74.8051 128.656 74.5951 128.827 74.4178C128.998 74.2405 129.202 74.0995 129.428 74.0033C129.654 73.907 129.897 73.8574 130.142 73.8574C130.388 73.8574 130.631 73.907 130.857 74.0033C131.083 74.0995 131.287 74.2405 131.458 74.4178C131.629 74.5951 131.762 74.8051 131.851 75.0353C131.939 75.2656 131.981 75.5114 131.974 75.7582V88.2542C131.975 88.5554 131.915 88.8537 131.797 89.1307C131.684 89.3981 131.519 89.64 131.311 89.8418C131.105 90.0418 130.866 90.2037 130.604 90.32C130.333 90.439 130.04 90.4996 129.744 90.4978C129.344 90.5012 128.951 90.3942 128.608 90.1884C128.265 89.9836 127.98 89.6926 127.781 89.344L123.174 80.7111V88.656C123.181 88.9028 123.14 89.1486 123.051 89.3789C122.962 89.6091 122.829 89.8191 122.658 89.9964C122.487 90.1737 122.283 90.3147 122.057 90.4109C121.831 90.5072 121.588 90.5568 121.343 90.5568C121.097 90.5568 120.854 90.5072 120.628 90.4109C120.402 90.3147 120.198 90.1737 120.027 89.9964C119.856 89.8191 119.723 89.6091 119.634 89.3789C119.546 89.1486 119.504 88.9028 119.511 88.656V76.1796C119.509 75.8782 119.569 75.5797 119.688 75.3031C119.803 75.0337 119.968 74.7887 120.174 74.5813C120.603 74.1559 121.181 73.9171 121.783 73.9164C122.178 73.9157 122.566 74.0187 122.909 74.2151C123.258 74.4135 123.542 74.7109 123.725 75.0702L128.318 84.0587L128.311 75.7582Z" fill="white"/>
<path d="M135.171 76.1351C135.168 75.8924 135.213 75.6515 135.304 75.4267C135.395 75.2018 135.53 74.9975 135.7 74.8259C135.871 74.6542 136.074 74.5187 136.297 74.4272C136.521 74.3358 136.76 74.2903 137.001 74.2934H141.478C142.504 74.2868 143.519 74.4989 144.457 74.9156C145.368 75.321 146.191 75.9006 146.882 76.6223C148.318 78.1261 149.119 80.1302 149.119 82.2151C149.119 84.3001 148.318 86.3042 146.882 87.808C146.19 88.5259 145.367 89.1024 144.457 89.5058C143.519 89.922 142.503 90.1334 141.478 90.1262H137.001C136.76 90.1298 136.521 90.0847 136.297 89.9934C136.073 89.9021 135.87 89.7666 135.699 89.5948C135.529 89.4231 135.394 89.2186 135.303 88.9935C135.213 88.7684 135.168 88.5273 135.171 88.2845V76.1351ZM138.832 87.0774H141.06C141.66 87.0807 142.255 86.9521 142.801 86.7005C143.343 86.4507 143.83 86.0961 144.236 85.6569C144.653 85.2045 144.982 84.6774 145.206 84.1031C145.677 82.8903 145.677 81.5435 145.206 80.3307C144.765 79.1896 143.903 78.2633 142.801 77.744C142.257 77.4857 141.662 77.3533 141.06 77.3565H138.832V87.0774Z" fill="white"/>
<path d="M153.763 90.4885C153.523 90.492 153.283 90.447 153.06 90.3561C152.837 90.2651 152.634 90.1301 152.463 89.9589C152.293 89.7877 152.158 89.5839 152.067 89.3594C151.976 89.135 151.93 88.8944 151.933 88.652V75.7578C151.933 75.2693 152.126 74.8009 152.469 74.4555C152.813 74.1101 153.278 73.916 153.763 73.916C154.249 73.916 154.714 74.1101 155.058 74.4555C155.401 74.8009 155.594 75.2693 155.594 75.7578V88.652C155.596 88.8943 155.55 89.1346 155.459 89.3588C155.368 89.5831 155.233 89.7867 155.063 89.9578C154.892 90.1289 154.689 90.2639 154.466 90.3551C154.243 90.4462 154.004 90.4916 153.763 90.4885Z" fill="white"/>
<path d="M167.989 78.9333C167.691 78.9368 167.398 78.8601 167.139 78.7111C166.891 78.5729 166.688 78.3646 166.556 78.112C166.369 77.7903 166.103 77.5222 165.784 77.3333C165.386 77.0883 164.926 76.9648 164.459 76.9778C164.192 76.9705 163.926 77.0158 163.676 77.1111C163.481 77.1877 163.301 77.3004 163.146 77.4435C163.014 77.5656 162.912 77.7172 162.848 77.8862C162.792 78.0358 162.762 78.194 162.759 78.3538C162.755 78.5776 162.834 78.7949 162.98 78.9635C163.171 79.1658 163.4 79.3278 163.653 79.44C164.014 79.613 164.386 79.7615 164.766 79.8844C165.208 80.032 165.729 80.1955 166.333 80.3733L166.531 80.4178C166.868 80.5209 167.283 80.6649 167.777 80.8498C168.288 81.0447 168.768 81.3142 169.201 81.6498C169.677 82.0213 170.074 82.4849 170.368 83.0133C170.712 83.6607 170.88 84.3881 170.854 85.1218C170.859 85.8391 170.717 86.5496 170.436 87.2089C170.156 87.8586 169.742 88.441 169.222 88.9173C168.657 89.4277 167.996 89.8199 167.279 90.0711C166.434 90.3634 165.546 90.5048 164.653 90.4889C163.271 90.4889 162.105 90.2228 161.157 89.6907C160.209 89.1585 159.522 88.493 159.095 87.6942C158.993 87.5249 158.915 87.3417 158.864 87.1502C158.828 87.0012 158.81 86.8484 158.809 86.6951C158.805 86.2317 158.974 85.7837 159.283 85.44C159.436 85.2636 159.627 85.1234 159.841 85.0294C160.054 84.9354 160.286 84.8898 160.519 84.896C160.86 84.888 161.193 84.9936 161.468 85.1964C161.753 85.4186 161.993 85.6938 162.175 86.0071C162.427 86.4091 162.757 86.7561 163.145 87.0275C163.61 87.3279 164.157 87.4751 164.71 87.4489C165.488 87.4489 166.103 87.2492 166.552 86.8498C166.767 86.6678 166.939 86.44 167.055 86.183C167.172 85.9259 167.23 85.646 167.226 85.3635C167.236 85.0597 167.151 84.7603 166.982 84.5084C166.794 84.2555 166.552 84.0473 166.275 83.8986C165.91 83.6966 165.525 83.5328 165.127 83.4098C164.671 83.2628 164.149 83.0998 163.562 82.9209L163.452 82.8995C163.069 82.7804 162.629 82.6329 162.129 82.4551C161.621 82.2734 161.141 82.0196 160.705 81.7013C160.248 81.3664 159.862 80.9434 159.569 80.4569C159.241 79.8761 159.081 79.2149 159.106 78.5475C159.105 77.9463 159.222 77.3508 159.449 76.7947C159.676 76.2334 160.018 75.7265 160.452 75.3067C160.929 74.8568 161.491 74.5096 162.106 74.2862C162.849 74.0216 163.634 73.894 164.422 73.9093C165.013 73.9025 165.602 73.9694 166.176 74.1084C166.662 74.2284 167.132 74.4075 167.575 74.6418C167.956 74.8413 168.308 75.0913 168.623 75.3849C168.888 75.632 169.122 75.9115 169.319 76.2169C169.431 76.3872 169.523 76.5697 169.595 76.7609C169.645 76.9145 169.671 77.0754 169.671 77.2373C169.671 77.4541 169.631 77.669 169.55 77.8702C169.47 78.0701 169.349 78.2516 169.197 78.4035C169.04 78.5601 168.857 78.6876 168.657 78.7804C168.447 78.879 168.22 78.9311 167.989 78.9333Z" fill="white"/>
<path d="M44.4529 21.1769C48.5742 21.1769 51.9153 17.8148 51.9153 13.6675C51.9153 9.52025 48.5742 6.1582 44.4529 6.1582C40.3315 6.1582 36.9905 9.52025 36.9905 13.6675C36.9905 17.8148 40.3315 21.1769 44.4529 21.1769Z" fill="#F7A600"/>
<path d="M61.3616 63.9428C61.3616 63.9428 46.8061 56.405 32.5067 61.973C31.6551 59.4023 30.0457 43.5783 39.5733 36.2788C43.6808 33.1303 45.7814 35.0983 58.2417 25.3152C67.6616 17.9214 70.5554 10.3552 70.785 9.69922C70.9723 12.6966 70.0784 24.8583 55.4945 35.6548C51.1945 38.837 41.9601 41.6797 39.8896 53.1854C44.4529 53.1214 56.5669 53.4645 61.3616 63.9428Z" fill="#F7A600"/>
<path d="M23.5885 39.0809C17.6796 40.8704 12.5092 44.5452 8.85746 49.5507C5.20572 54.5562 3.27069 60.6211 3.34431 66.8302C3.52098 81.9218 16.241 94.8053 31.2294 95.0844C37.6402 95.204 43.9031 93.1403 49.002 89.2281C54.1009 85.316 57.7366 79.785 59.3194 73.5324C59.4493 73.0088 59.4622 72.4627 59.3572 71.9334C59.2521 71.4041 59.0317 70.9049 58.7119 70.4716C58.392 70.0384 57.9806 69.6819 57.5074 69.4279C57.0341 69.1739 56.5108 69.0286 55.9751 69.0027C55.1449 68.9596 54.3254 69.2059 53.6547 69.7001C52.984 70.1943 52.5032 70.9061 52.2933 71.7155C51.1357 76.3085 48.4894 80.382 44.773 83.2917C41.0566 86.2014 36.4823 87.7812 31.7735 87.7813C20.0181 87.7813 10.441 78.0035 10.6124 66.1671C10.6796 61.646 12.1743 57.2637 14.8801 53.6539C17.586 50.0441 21.3629 47.3941 25.6644 46.0871C26.5143 45.8324 27.2427 45.2742 27.7127 44.5175C28.1827 43.7607 28.3621 42.8573 28.2172 41.9769C28.1315 41.4655 27.9386 40.9782 27.6515 40.5475C27.3644 40.1168 26.9896 39.7524 26.5518 39.4785C26.1141 39.2047 25.6236 39.0276 25.1127 38.959C24.6018 38.8905 24.0823 38.932 23.5885 39.0809Z" fill="white"/>
<path d="M70.6119 8.55644C70.6119 8.55644 69.1985 6.93155 69.3558 5.29955C69.513 3.66755 70.4511 2.14577 70.1084 0.910217C70.1084 0.910217 72.935 2.05866 72.6736 5.08622C72.5093 7.04177 71.0571 8.32533 71.0571 8.32533C71.0571 8.32533 70.1349 5.89155 70.9458 3.62488C70.9458 3.62488 69.9193 5.07377 70.6119 8.55644Z" fill="#13A538"/>
<path d="M67.6492 12.6702C67.6492 12.6702 66.227 11.8382 65.9426 10.6133C65.6582 9.38842 65.9709 8.05153 65.4214 7.23553C65.4214 7.23553 67.7481 7.37598 68.3011 9.63731C68.6544 11.1004 67.916 12.3911 67.916 12.3911C67.916 12.3911 66.6546 10.8498 66.6899 9.00265C66.6899 9.00442 66.2977 10.3111 67.6492 12.6702Z" fill="#13A538"/>
<path d="M71.9158 12.6218C71.9158 12.6218 73.4687 13.1676 74.5781 12.5898C75.6876 12.012 76.4967 10.9027 77.4666 10.7943C77.4666 10.7943 75.8484 9.1036 73.7814 10.1507C72.444 10.828 71.9511 12.2343 71.9511 12.2343C71.9511 12.2343 73.9351 12.1987 75.3078 10.972C75.3078 10.972 74.5764 12.1205 71.9158 12.6218Z" fill="#13A538"/>
<path d="M73.0375 8.17777C73.0375 8.17777 74.3131 8.62755 75.2229 8.15288C76.1327 7.67822 76.797 6.76977 77.5938 6.68088C77.5938 6.68088 76.267 5.29244 74.5692 6.14755C73.8848 6.52267 73.3532 7.12806 73.0676 7.85777C73.0676 7.85777 74.6964 7.82755 75.8218 6.82133C75.8218 6.832 75.2211 7.77422 73.0375 8.17777Z" fill="#13A538"/>
<path d="M76.5903 9.46796C76.5903 9.46796 77.4737 9.77907 78.1061 9.45019C78.7386 9.1213 79.1979 8.49019 79.7509 8.42796C79.7509 8.42796 78.8305 7.46619 77.6521 8.06174C77.1786 8.32136 76.8105 8.73964 76.6115 9.24396C76.6115 9.24396 77.7404 9.22441 78.5213 8.53285C78.5213 8.53285 78.1044 9.18352 76.5903 9.46796Z" fill="#13A538"/>
<path d="M66.7959 6.11762C66.7959 6.11762 65.6635 5.58429 65.3649 4.68295C65.0663 3.78162 65.2112 2.74518 64.7395 2.16918C64.7395 2.16918 66.5062 2.11229 67.0803 3.7834C67.2925 4.47602 67.2562 5.22161 66.9779 5.89007C66.9779 5.89007 65.9179 4.81273 65.8207 3.4154C65.8207 3.4154 65.6122 4.42873 66.7959 6.11762Z" fill="#13A538"/>
<path d="M64.0822 6.97273C64.0822 6.97273 63.1459 6.7825 62.7625 6.16384C62.3791 5.54517 62.3014 4.74162 61.8491 4.40739C61.8491 4.40739 63.1547 4.05184 63.8773 5.18428C64.1583 5.66138 64.2645 6.22239 64.1776 6.77006C64.1776 6.77006 63.1971 6.16028 62.8738 5.13806C62.8738 5.13806 62.8932 5.93095 64.0822 6.97273Z" fill="#13A538"/>
</svg>
